SplineFontDB: 3.2
FontName: NewCM10-BoldItalic
FullName: NewComputerModern10-BoldItalic
FamilyName: NewComputerModern10
Weight: Bold
Copyright: Antonis Tsolomitis. This work is released under the GUST Font License --  see http://tug.org/fonts/licenses/GUST-FONT-LICENSE.txt for details.
Version: 3.93
ItalicAngle: -14.0362
UnderlinePosition: -146
UnderlineWidth: 60
Ascent: 806
Descent: 194
InvalidEm: 0
sfntRevision: 0x00021999
LayerCount: 2
Layer: 0 0 "Back" 1
Layer: 1 0 "Fore" 0
XUID: [1021 970 578947182 6037090]
StyleMap: 0x0021
FSType: 12
OS2Version: 3
OS2_WeightWidthSlopeOnly: 0
OS2_UseTypoMetrics: 0
CreationTime: 1254995910
ModificationTime: 1633793845
PfmFamily: 81
TTFWeight: 700
TTFWidth: 5
LineGap: 0
VLineGap: 0
Panose: 0 0 8 0 0 0 0 0 0 0
OS2TypoAscent: 806
OS2TypoAOffset: 0
OS2TypoDescent: -194
OS2TypoDOffset: 0
OS2TypoLinegap: 200
OS2WinAscent: 1147
OS2WinAOffset: 0
OS2WinDescent: 307
OS2WinDOffset: 0
HheadAscent: 1147
HheadAOffset: 0
HheadDescent: -307
HheadDOffset: 0
OS2SubXSize: 650
OS2SubYSize: 600
OS2SubXOff: -19
OS2SubYOff: 75
OS2SupXSize: 650
OS2SupYSize: 600
OS2SupXOff: 87
OS2SupYOff: 350
OS2StrikeYSize: 60
OS2StrikeYPos: 266
OS2CapHeight: 686
OS2XHeight: 444
OS2Vendor: 'UKWN'
OS2CodePages: 20000193.00000000
OS2UnicodeRanges: 20000007.00000000.00000000.00000000
Lookup: 1 0 0 "'aalt' Access All Alternates lookup 0" { "'aalt' Access All Alternates lookup 0 subtable"  } ['aalt' ('DFLT' <'dflt' > 'cyrl' <'dflt' > 'latn' <'AZE ' 'CRT ' 'MOL ' 'NLD ' 'PLK ' 'ROM ' 'TRK ' 'dflt' > ) ]
Lookup: 3 0 0 "'aalt' Access All Alternates lookup 1" { "'aalt' Access All Alternates lookup 1 subtable"  } ['aalt' ('DFLT' <'dflt' > 'cyrl' <'dflt' > 'latn' <'AZE ' 'CRT ' 'MOL ' 'NLD ' 'PLK ' 'ROM ' 'TRK ' 'dflt' > ) ]
Lookup: 1 0 0 "'locl' Localized Forms in Latin lookup 2" { "'locl' Localized Forms in Latin lookup 2 subtable"  } ['locl' ('latn' <'MOL ' 'ROM ' > ) ]

StartChar: exclam
Encoding: 33 33 2
Width: 386
GlyphClass: 2
Flags: MW
HStem: 0 147<204.5 220>
VStem: 137 150<63 84.5>
LayerCount: 2
Fore
SplineSet
423 627 m 2
 282 237 l 2
 276 220 275 219 252 219 c 0
 239 219 221 219 225 236 c 1
 225 247 l 1
 279 633 l 2
 289 704 355 711 367 711 c 0
 411 711 430 680 430 655 c 0
 430 646 428 642 423 627 c 2
287 87 m 0
 287 39 241 0 199 0 c 0
 164 0 137 24 137 60 c 0
 137 109 184 147 225 147 c 0
 263 147 287 120 287 87 c 0
EndSplineSet
EndChar

StartChar: quotedbl
Encoding: 34 34 3
Width: 518
GlyphClass: 2
Flags: MW
HStem: 422 21G<255 311 255 255 417 417 417 473> 683 20G<338.5 369 500.5 531>
LayerCount: 2
Fore
SplineSet
393 650 m 2
 311 422 l 1
 255 422 l 1
 287 650 l 2
 291 679 323 703 354 703 c 0
 384 703 404 679 393 650 c 2
555 650 m 2
 473 422 l 1
 417 422 l 1
 449 650 l 2
 453 679 485 703 516 703 c 0
 546 703 566 679 555 650 c 2
EndSplineSet
EndChar

StartChar: numbersign
Encoding: 35 35 4
Width: 944
GlyphClass: 2
Flags: MW
HStem: 108 61<165 171 171 307 410 541 165 376 644 842> 332 61<215 460 227 427 227 496 529 661 763 898 898 904>
LayerCount: 2
Fore
SplineSet
889 139 m 0
 889 108 857 108 842 108 c 2
 610 108 l 1
 461 -172 l 2
 455 -183 449 -194 432 -194 c 0
 415 -194 401 -180 401 -163 c 0
 401 -157 402 -155 408 -144 c 2
 541 108 l 1
 376 108 l 1
 227 -172 l 2
 221 -183 215 -194 198 -194 c 0
 181 -194 167 -180 167 -163 c 0
 167 -157 168 -155 174 -144 c 2
 307 108 l 1
 171 108 l 2
 156 108 125 108 125 139 c 0
 125 169 153 169 165 169 c 2
 341 169 l 1
 427 332 l 1
 221 332 l 2
 209 332 181 332 181 362 c 0
 181 393 212 393 227 393 c 2
 460 393 l 1
 608 672 l 2
 614 683 620 694 637 694 c 0
 654 694 668 680 668 663 c 0
 668 657 667 655 661 644 c 2
 529 393 l 1
 694 393 l 1
 842 672 l 2
 848 683 854 694 871 694 c 0
 888 694 902 680 902 663 c 0
 902 657 901 655 895 644 c 2
 763 393 l 1
 898 393 l 2
 913 393 944 393 944 362 c 0
 944 332 916 332 904 332 c 2
 730 332 l 1
 644 169 l 1
 848 169 l 2
 860 169 889 169 889 139 c 0
661 332 m 1
 496 332 l 1
 410 169 l 1
 575 169 l 1
 661 332 l 1
EndSplineSet
EndChar

StartChar: dollar
Encoding: 36 36 5
Width: 575
GlyphClass: 2
Flags: MW
HStem: -56 21G<250 297 250 250> -9 52 127 125<154 188.5> 456 125<568 590.5> 730 20G<451 498 498 498>
LayerCount: 2
Fore
SplineSet
645 549 m 0
 641 500 617 456 564 456 c 0
 543 456 510 468 513 509 c 0
 516 543 542 581 594 581 c 1
 581 630 529 649 474 652 c 1
 418 428 l 1
 445 422 496 411 531 369 c 0
 552 343 573 304 568 243 c 0
 561 158 489 8 310 -5 c 1
 297 -56 l 1
 250 -56 l 1
 263 -5 l 1
 128 7 99 86 105 154 c 0
 106 173 115 252 187 252 c 0
 201 252 241 245 237 198 c 0
 236 180 223 127 154 127 c 1
 165 64 224 46 275 42 c 1
 337 294 l 1
 303 301 260 309 221 352 c 0
 186 391 181 440 183 469 c 0
 190 552 265 690 439 699 c 1
 451 750 l 1
 498 750 l 1
 486 699 l 1
 568 694 654 656 645 549 c 0
427 652 m 1
 328 642 282 578 278 529 c 0
 274 485 307 450 373 438 c 1
 427 652 l 1
474 182 m 0
 477 211 465 268 383 283 c 1
 322 43 l 1
 432 54 471 140 474 182 c 0
EndSplineSet
Substitution2: "'onum' Oldstyle Figures lookup 4 subtable" dollar.oldstyle
Substitution2: "'aalt' Access All Alternates lookup 0 subtable" dollar.oldstyle
EndChar

StartChar: percent
Encoding: 37 37 6
Width: 944
GlyphClass: 2
Flags: MW
HStem: -56 36<699 749.5 699 768> 311 36<751 818> 347 36<329.5 380.5 329.5 399.5> 611 35<651 695> 714 36<420.5 448.5 366 453.5>
VStem: 218 87<421.5 458.5 418.5 541> 478 54<591.5 629.5 572 638> 587 87<23 32 15 135> 847 54<187.5 242.5>
LayerCount: 2
Fore
SplineSet
946 719 m 0xbf80
 946 709 939 699 933 693 c 2
 228 -42 l 2
 220 -50 215 -56 202 -56 c 0
 189 -56 172 -47 172 -25 c 0
 172 -14 174 -11 188 3 c 2
 783 626 l 1
 782 626 l 1
 741 613 707 611 683 611 c 0
 597 611 541 645 531 651 c 1
 532 644 532 633 532 626 c 0
 532 518 462 347 337 347 c 0
 302 347 218 363 218 480 c 0
 218 602 302 750 430 750 c 0
 467 750 486 736 507 716 c 0
 553 670 618 646 684 646 c 0
 762 646 836 679 889 737 c 0
 894 742 902 750 915 750 c 0
 932 750 946 736 946 719 c 0xbf80
901 222 m 0
 901 113 830 -56 706 -56 c 0
 660 -56 587 -31 587 77 c 0
 587 193 667 347 800 347 c 0
 836 347 901 328 901 222 c 0
478 634 m 0
 478 642 477 714 430 714 c 0
 411 714 373 701 347 624 c 0
 337 594 305 482 305 435 c 0
 305 402 319 383 340 383 c 0
 421 383 478 549 478 634 c 0
847 230 m 0
 847 255 842 311 799 311 c 0x4080
 703 311 674 32 674 32 c 1
 674 -2 689 -20 709 -20 c 0
 790 -20 847 145 847 230 c 0
EndSplineSet
EndChar

StartChar: ampersand
Encoding: 38 38 7
Width: 886
GlyphClass: 2
Flags: MW
HStem: -17 36<387 491.5 387 635.5> 306 36<368 393.5 368 412> 433 36<403 418> 675 36<419.5 472>
VStem: 141 115<125.5 179.5 107.5 208.5> 467 122<564.5 571.5> 775 122<640.5 641.5>
LayerCount: 2
Fore
SplineSet
834 298 m 0
 834 272 827 -17 444 -17 c 0
 231 -17 141 70 141 181 c 0
 141 236 172 330 234 392 c 1
 226 413 224 440 224 450 c 0
 224 561 309 711 459 711 c 0
 536 711 589 663 589 597 c 0
 589 532 545 511 516 511 c 0
 498 511 467 519 467 557 c 0
 467 586 486 619 529 627 c 1
 516 663 485 675 459 675 c 0
 380 675 346 563 326 453 c 1
 367 469 399 469 407 469 c 0
 459 469 483 443 483 405 c 0
 483 363 450 306 374 306 c 0
 341 306 309 316 294 323 c 1
 276 276 256 204 256 155 c 0
 256 60 326 19 448 19 c 0
 535 19 611 36 665 74 c 0
 753 138 777 245 777 292 c 0
 777 315 776 357 726 429 c 1
 714 422 676 404 655 390 c 0
 623 367 612 347 610 320 c 1
 610 320 631 355 672 355 c 0
 706 355 722 332 722 308 c 0
 722 276 696 236 648 236 c 0
 595 236 554 271 554 320 c 0
 554 393 626 433 697 474 c 0
 734 494 777 519 813 576 c 1
 790 582 775 597 775 622 c 0
 775 661 809 694 847 694 c 0
 872 694 897 679 897 647 c 0
 897 634 884 543 776 460 c 1
 803 420 834 371 834 298 c 0
429 413 m 0
 429 420 429 433 407 433 c 0
 385 433 354 420 324 381 c 1
 334 351 359 342 377 342 c 0
 410 342 429 377 429 413 c 0
EndSplineSet
Substitution2: "'lnum' Lining Figures lookup 5 subtable" ampersand
Substitution2: "'onum' Oldstyle Figures lookup 4 subtable" ampersand
Substitution2: "'aalt' Access All Alternates lookup 0 subtable" ampersand
EndChar

StartChar: quotesingle
Encoding: 39 39 8
Width: 356
GlyphClass: 2
Flags: MW
HStem: 422 21G<255 311 255 255> 683 20G<338.5 369>
LayerCount: 2
Fore
SplineSet
393 650 m 2
 311 422 l 1
 255 422 l 1
 287 650 l 2
 291 679 323 703 354 703 c 0
 384 703 404 679 393 650 c 2
EndSplineSet
EndChar

StartChar: parenleft
Encoding: 40 40 9
Width: 473
GlyphClass: 2
Flags: MW
VStem: 169 83<59.5 86.5 -2.5 185>
LayerCount: 2
Fore
SplineSet
567 736 m 0
 567 730 563 726 561 725 c 2
 542 708 l 1
 316 516 252 157 252 16 c 0
 252 -21 255 -129 313 -215 c 0
 324 -229 324 -231 324 -235 c 0
 324 -249 310 -249 306 -249 c 0
 281 -249 225 -172 201 -111 c 0
 169 -30 169 45 169 74 c 0
 169 296 280 519 413 650 c 0
 450 686 528 750 549 750 c 0
 557 750 567 747 567 736 c 0
EndSplineSet
EndChar

StartChar: parenright
Encoding: 41 41 10
Width: 473
GlyphClass: 2
Flags: MW
VStem: 346 84<422 462 352.5 555>
LayerCount: 2
Fore
SplineSet
430 427 m 0
 430 278 369 27 173 -159 c 0
 146 -186 71 -249 49 -249 c 0
 43 -249 32 -247 32 -235 c 0
 32 -229 33 -228 51 -212 c 0
 291 -9 346 359 346 485 c 0
 346 625 299 695 280 724 c 0
 277 728 274 731 274 736 c 0
 274 747 284 750 292 750 c 0
 319 750 373 669 391 628 c 0
 418 565 430 497 430 427 c 0
EndSplineSet
EndChar

StartChar: asterisk
Encoding: 42 42 11
Width: 591
GlyphClass: 2
Flags: MW
HStem: 306 21G<361.5 374> 730 20G<481 493.5>
LayerCount: 2
Fore
SplineSet
604 450 m 0
 604 421 574 395 550 395 c 0
 543 395 537 395 524 408 c 2
 438 495 l 1
 425 358 l 2
 420 306 376 306 372 306 c 0
 351 306 338 320 338 335 c 0
 338 339 338 341 344 354 c 2
 400 494 l 1
 316 440 348 459 280 414 c 0
 252 395 250 395 239 395 c 0
 225 395 207 404 207 430 c 0
 207 463 235 473 247 477 c 2
 390 528 l 1
 271 579 l 2
 254 586 251 595 251 606 c 0
 251 635 281 661 305 661 c 0
 312 661 318 661 331 648 c 2
 417 561 l 1
 430 698 l 2
 435 750 479 750 483 750 c 0
 504 750 517 736 517 721 c 0
 517 717 517 715 511 702 c 2
 455 561 l 1
 588 650 l 2
 599 657 604 661 616 661 c 0
 630 661 648 652 648 626 c 0
 648 593 620 583 608 579 c 2
 465 528 l 1
 584 477 l 2
 601 470 604 461 604 450 c 0
EndSplineSet
EndChar

StartChar: plus
Encoding: 43 43 12
Width: 886
GlyphClass: 2
Flags: MW
HStem: -102 21G<417.5 438> 220 61<188.5 482 196 467 545 816 196 530> 583 20G<575 593.5>
LayerCount: 2
Fore
SplineSet
859 250 m 0
 859 220 827 220 816 220 c 2
 530 220 l 1
 457 -72 l 2
 455 -80 450 -102 426 -102 c 0
 409 -102 395 -88 395 -71 c 0
 395 -68 396 -63 398 -56 c 2
 467 220 l 1
 196 220 l 2
 181 220 153 220 153 251 c 0
 153 281 182 281 196 281 c 2
 482 281 l 1
 555 572 l 2
 557 581 563 603 587 603 c 0
 600 603 617 593 617 572 c 0
 617 568 617 566 613 552 c 2
 545 281 l 1
 816 281 l 2
 828 281 859 281 859 250 c 0
EndSplineSet
EndChar

StartChar: comma
Encoding: 44 44 13
Width: 356
GlyphClass: 2
Flags: MW
HStem: 0 147<183.5 195>
VStem: 121 155<46 77.5>
LayerCount: 2
Fore
SplineSet
276 67 m 0
 276 -64 130 -194 107 -194 c 0
 97 -194 89 -183 89 -174 c 0
 89 -168 90 -167 106 -154 c 0
 143 -128 203 -73 230 14 c 1
 227 12 208 0 182 0 c 0
 135 0 121 34 121 58 c 0
 121 97 156 147 211 147 c 0
 254 147 276 114 276 67 c 0
EndSplineSet
EndChar

StartChar: hyphen
Encoding: 45 45 14
Width: 414
GlyphClass: 2
Flags: MW
HStem: 175 94<117.5 355 138 338>
VStem: 92 295<184.5 260>
LayerCount: 2
Fore
SplineSet
375 202 m 0
 369 178 368 175 338 175 c 2
 125 175 l 2
 110 175 92 175 92 194 c 0
 92 197 102 237 103 244 c 0
 109 267 110 269 138 269 c 2
 355 269 l 2
 369 269 387 269 387 251 c 0
 387 248 379 218 375 202 c 0
EndSplineSet
EndChar

StartChar: period
Encoding: 46 46 15
Width: 356
GlyphClass: 2
Flags: MW
HStem: 0 147<190.5 204.5>
VStem: 122 150<64.5 84>
LayerCount: 2
Fore
SplineSet
272 88 m 0
 272 41 227 0 182 0 c 0
 153 0 122 18 122 59 c 0
 122 109 170 147 211 147 c 0
 247 147 272 123 272 88 c 0
EndSplineSet
EndChar

StartChar: slash
Encoding: 47 47 16
Width: 591
GlyphClass: 2
Flags: MW
HStem: -250 21G<57.5 74.5> 730 20G<641.5 658.5>
LayerCount: 2
Fore
SplineSet
681 719 m 0
 681 711 677 705 671 695 c 2
 97 -227 l 2
 90 -238 83 -250 66 -250 c 0
 49 -250 35 -236 35 -219 c 0
 35 -211 39 -205 45 -195 c 2
 619 727 l 2
 626 738 633 750 650 750 c 0
 667 750 681 736 681 719 c 0
EndSplineSet
EndChar

StartChar: zero
Encoding: 48 48 17
Width: 591
GlyphClass: 2
Flags: MW
HStem: -17 36<278 325.5> 625 36<423 477>
VStem: 115 103<125.5 137.5 77.5 201> 536 100<507.5 518 447.5 566.5>
LayerCount: 2
Fore
SplineSet
636 481 m 0
 636 414 600 199 511 88 c 0
 443 4 359 -17 292 -17 c 0
 131 -17 115 91 115 160 c 0
 115 242 155 412 209 508 c 0
 267 608 354 661 460 661 c 0
 617 661 636 555 636 481 c 0
446 157 m 0
 470 227 536 472 536 543 c 0
 536 590 503 625 451 625 c 0
 395 625 348 583 331 552 c 0
 290 475 218 170 218 105 c 0
 218 50 256 19 300 19 c 0
 400 19 436 127 446 157 c 0
EndSplineSet
Substitution2: "'smcp' Lowercase to Small Capitals lookup 14 subtable" zero.oldstyle
Substitution2: "'zero' Slashed Zero lookup 9 subtable" zero.slash
Substitution2: "'pnum' Proportional Numbers lookup 6 subtable" zero.prop
Substitution2: "'onum' Oldstyle Figures lookup 4 subtable" zero.oldstyle
AlternateSubs2: "'aalt' Access All Alternates lookup 1 subtable" zero.oldstyle zero.prop zero.slash
EndChar

StartChar: one
Encoding: 49 49 18
Width: 591
GlyphClass: 2
Flags: MW
HStem: 0 47<159 171.5 437.5 462 462 469>
LayerCount: 2
Fore
SplineSet
494 29 m 0
 494 0 475 0 464 0 c 0
 411 0 356 3 302 3 c 0
 250 3 197 0 146 0 c 0
 126 0 124 13 124 18 c 0
 124 47 141 47 159 47 c 2
 190 47 l 2
 205 47 220 47 234 49 c 0
 256 51 257 52 261 67 c 2
 373 514 l 1
 330 494 282 485 256 485 c 0
 235 485 233 497 233 504 c 0
 233 530 250 531 258 532 c 0
 325 537 400 560 477 650 c 0
 483 656 487 661 497 661 c 0
 516 661 518 646 518 643 c 0
 518 640 517 636 515 630 c 2
 370 50 l 1
 397 47 398 47 429 47 c 2
 462 47 l 2
 476 47 494 47 494 29 c 0
EndSplineSet
Substitution2: "'smcp' Lowercase to Small Capitals lookup 14 subtable" one.oldstyle
Substitution2: "'pnum' Proportional Numbers lookup 6 subtable" one.prop
Substitution2: "'onum' Oldstyle Figures lookup 4 subtable" one.oldstyle
AlternateSubs2: "'aalt' Access All Alternates lookup 1 subtable" one.oldstyle one.prop
EndChar

StartChar: two
Encoding: 50 50 19
Width: 591
GlyphClass: 2
Flags: MW
HStem: 66 36<203 219> 346 36<239.5 271.5 239.5 281.5> 625 36<367.5 444>
VStem: 170 54<399 447 396.5 460.5> 342 36<483.5 503.5> 509 109<537.5 552 439.5 573>
LayerCount: 2
Fore
SplineSet
601 168 m 0
 601 141 537 -17 411 -17 c 0
 367 -17 332 5 300 25 c 0
 268 46 236 66 202 66 c 0
 180 66 163 51 147 -3 c 0
 143 -17 139 -17 118 -17 c 0
 104 -17 91 -17 91 -3 c 0
 91 12 130 160 306 252 c 0
 351 275 413 310 460 373 c 0
 504 434 509 536 509 539 c 0
 509 607 463 625 425 625 c 0
 310 625 224 484 224 410 c 0
 224 383 236 382 243 382 c 0
 300 382 342 469 342 498 c 0
 342 509 337 520 331 530 c 0
 329 533 326 537 326 541 c 0
 326 546 329 551 334 554 c 0
 337 558 342 561 347 561 c 0
 362 561 378 526 378 500 c 0
 378 454 324 346 239 346 c 0
 197 346 170 377 170 421 c 0
 170 500 273 661 430 661 c 0
 534 661 618 608 618 496 c 0
 618 383 556 320 352 216 c 0
 322 201 255 167 203 102 c 1
 238 102 275 100 319 95 c 0
 330 94 392 88 424 88 c 0
 489 88 530 126 544 167 c 0
 549 182 550 183 573 183 c 0
 588 183 601 183 601 168 c 0
EndSplineSet
Substitution2: "'smcp' Lowercase to Small Capitals lookup 14 subtable" two.oldstyle
Substitution2: "'pnum' Proportional Numbers lookup 6 subtable" two.prop
Substitution2: "'onum' Oldstyle Figures lookup 4 subtable" two.oldstyle
AlternateSubs2: "'aalt' Access All Alternates lookup 1 subtable" two.oldstyle two.prop
EndChar

StartChar: three
Encoding: 51 51 20
Width: 591
GlyphClass: 2
Flags: MW
HStem: -17 36<246 298.5 246 353.5> 311 47<326.5 366 338 366 366 368> 412 36<279.5 299 279.5 309> 625 36<405.5 472>
VStem: 108 123<150 157> 231 37 342 37<485.5 505.5> 438 109<146 280.5>
LayerCount: 2
Fore
SplineSet
628 527 m 0xf7
 628 467 590 368 475 328 c 1
 520 306 547 265 547 206 c 0
 547 86 438 -17 269 -17 c 0
 171 -17 108 39 108 116 c 0x89
 108 198 166 206 181 206 c 0
 214 206 231 183 231 160 c 0
 231 140 217 97 167 90 c 1
 179 40 224 19 268 19 c 0
 329 19 376 51 396 90 c 0
 422 139 438 229 438 250 c 0
 438 311 387 311 368 311 c 2
 336 311 l 2
 317 311 304 311 304 326 c 1
 304 326 308 348 312 352 c 0
 315 357 316 358 338 358 c 2
 366 358 l 2
 395 358 451 358 487 412 c 0
 512 448 529 534 529 559 c 0
 529 613 490 625 454 625 c 0
 357 625 268 548 268 476 c 0
 268 463 272 448 287 448 c 0
 311 448 342 471 342 500 c 0
 342 511 337 521 332 529 c 0
 330 531 326 536 326 541 c 0
 326 546 329 551 334 554 c 0
 337 558 342 561 347 561 c 0
 362 561 379 524 379 502 c 0
 379 456 334 412 284 412 c 0
 244 412 213 439 213 483 c 0
 213 562 315 661 458 661 c 0
 559 661 628 615 628 527 c 0xf7
EndSplineSet
Substitution2: "'smcp' Lowercase to Small Capitals lookup 14 subtable" three.oldstyle
Substitution2: "'pnum' Proportional Numbers lookup 6 subtable" three.prop
Substitution2: "'onum' Oldstyle Figures lookup 4 subtable" three.oldstyle
AlternateSubs2: "'aalt' Access All Alternates lookup 1 subtable" three.oldstyle three.prop
EndChar

StartChar: four
Encoding: 52 52 21
Width: 591
GlyphClass: 2
Flags: MW
HStem: -194 21G<324.5 363.5> -23 47<444 448.5> 28 47<186 206 206 217> 641 20G<462 491.5>
LayerCount: 2
Fore
SplineSet
547 10 m 0
 547 -12 466 -23 431 -23 c 1
 426 -48 412 -102 404 -134 c 0
 400 -150 388 -194 339 -194 c 0
 310 -194 294 -174 294 -152 c 0
 294 -145 306 -100 312 -74 c 2
 330 -1 l 1
 259 23 242 28 192 28 c 0
 124 28 113 21 99 12 c 0
 85 2 82 0 77 0 c 0
 65 0 53 21 53 27 c 0
 53 45 84 59 91 62 c 0
 99 66 191 127 280 263 c 0
 331 341 383 453 421 599 c 0
 426 617 437 661 487 661 c 0
 496 661 531 657 531 618 c 0
 531 611 483 323 186 75 c 1
 206 75 l 2
 253 75 283 65 342 45 c 1
 372 164 l 2
 379 193 390 236 439 236 c 0
 463 236 484 222 484 194 c 0
 484 188 484 186 480 171 c 2
 444 24 l 1
 457 24 483 25 511 34 c 0
 518 36 519 37 523 37 c 0
 536 37 547 15 547 10 c 0
EndSplineSet
Substitution2: "'smcp' Lowercase to Small Capitals lookup 14 subtable" four.oldstyle
Substitution2: "'pnum' Proportional Numbers lookup 6 subtable" four.prop
Substitution2: "'onum' Oldstyle Figures lookup 4 subtable" four.oldstyle
AlternateSubs2: "'aalt' Access All Alternates lookup 1 subtable" four.oldstyle four.prop
EndChar

StartChar: five
Encoding: 53 53 22
Width: 591
GlyphClass: 2
Flags: MW
HStem: -17 43<245.5 279.5 245.5 359.5> 379 36<381.5 413> 512 117<361.5 476>
VStem: 119 134<162 167> 444 121<305.5 316 191.5 333.5>
LayerCount: 2
Fore
SplineSet
565 260 m 0
 565 123 452 -17 267 -17 c 0
 164 -17 119 55 119 122 c 0
 119 212 178 225 200 225 c 0
 225 225 253 211 253 175 c 0
 253 149 235 103 178 98 c 1
 188 51 223 26 268 26 c 0
 291 26 356 34 392 110 c 0
 414 159 444 288 444 323 c 0
 444 344 434 379 392 379 c 0
 363 379 309 371 257 320 c 0
 243 306 243 305 229 305 c 0
 224 305 205 305 205 323 c 0
 205 328 207 334 208 339 c 2
 284 641 l 2
 287 651 289 661 300 661 c 0
 304 661 306 660 316 655 c 0
 358 637 404 629 449 629 c 0
 503 629 552 640 599 657 c 0
 609 661 613 661 613 661 c 2
 623 661 628 652 628 647 c 0
 628 632 616 621 598 606 c 0
 505 522 418 512 375 512 c 0
 348 512 321 517 318 517 c 2
 318 517 315 516 312 504 c 2
 282 385 l 1
 328 410 366 415 397 415 c 0
 484 415 565 372 565 260 c 0
EndSplineSet
Substitution2: "'smcp' Lowercase to Small Capitals lookup 14 subtable" five.oldstyle
Substitution2: "'pnum' Proportional Numbers lookup 6 subtable" five.prop
Substitution2: "'onum' Oldstyle Figures lookup 4 subtable" five.oldstyle
AlternateSubs2: "'aalt' Access All Alternates lookup 1 subtable" five.oldstyle five.prop
EndChar

StartChar: six
Encoding: 54 54 23
Width: 591
GlyphClass: 2
Flags: MW
HStem: -17 43<275.5 335 275.5 388> 388 36<403.5 425> 622 39<484 523.5>
VStem: 132 105<113.5 114.5 83.5 192> 505 123<538 540.5>
LayerCount: 2
Fore
SplineSet
577 272 m 0
 577 141 478 -17 298 -17 c 0
 181 -17 132 58 132 169 c 0
 132 215 149 398 250 524 c 0
 337 632 444 661 514 661 c 0
 608 661 628 605 628 569 c 0
 628 507 590 480 555 480 c 0
 519 480 505 503 505 526 c 0
 505 555 526 588 566 596 c 1
 556 616 534 622 513 622 c 0
 455 622 398 582 369 543 c 0
 347 514 322 474 293 360 c 1
 344 424 394 424 413 424 c 0
 549 424 577 322 577 272 c 0
414 114 m 0
 425 143 464 286 464 331 c 0
 464 363 447 388 403 388 c 0
 271 388 237 132 237 97 c 0
 237 70 250 26 301 26 c 0
 369 26 399 75 414 114 c 0
EndSplineSet
Substitution2: "'smcp' Lowercase to Small Capitals lookup 14 subtable" six.oldstyle
Substitution2: "'pnum' Proportional Numbers lookup 6 subtable" six.prop
Substitution2: "'onum' Oldstyle Figures lookup 4 subtable" six.oldstyle
AlternateSubs2: "'aalt' Access All Alternates lookup 1 subtable" six.oldstyle six.prop
EndChar

StartChar: seven
Encoding: 55 55 24
Width: 591
GlyphClass: 2
Flags: MW
HStem: -17 21G<337 382.5> 526 36<513 530.5> 641 20G<266 284.5 408.5 439.5 668 685>
LayerCount: 2
Fore
SplineSet
706 647 m 0
 706 643 706 641 694 627 c 0
 667 591 606 511 550 391 c 0
 503 291 467 195 430 53 c 0
 425 36 412 -17 353 -17 c 0
 321 -17 301 5 301 32 c 0
 301 41 319 137 398 285 c 0
 452 388 530 494 557 531 c 1
 543 527 541 526 520 526 c 0
 496 526 480 533 457 543 c 0
 434 552 423 556 405 556 c 0
 341 556 248 523 203 448 c 0
 193 431 192 430 171 430 c 0
 157 430 143 430 143 444 c 0
 143 447 144 450 150 461 c 2
 245 645 l 2
 253 661 256 661 276 661 c 0
 293 661 304 661 304 647 c 0
 304 641 294 622 291 617 c 1
 342 651 393 661 424 661 c 0
 455 661 472 648 486 605 c 0
 498 572 504 562 522 562 c 0
 574 562 624 620 647 648 c 0
 657 660 658 661 678 661 c 0
 692 661 706 661 706 647 c 0
EndSplineSet
Substitution2: "'smcp' Lowercase to Small Capitals lookup 14 subtable" seven.oldstyle
Substitution2: "'pnum' Proportional Numbers lookup 6 subtable" seven.prop
Substitution2: "'onum' Oldstyle Figures lookup 4 subtable" seven.oldstyle
AlternateSubs2: "'aalt' Access All Alternates lookup 1 subtable" seven.oldstyle seven.prop
EndChar

StartChar: eight
Encoding: 56 56 25
Width: 591
GlyphClass: 2
Flags: MW
HStem: -17 43<265.5 354.5 265.5 384.5> 622 39<402 479>
VStem: 109 87<88 141 88 183> 221 91<409.5 538.5> 465 102<173.5 177.5>
LayerCount: 2
Fore
SplineSet
567 226 m 0
 567 121 475 -17 294 -17 c 0
 179 -17 109 34 109 118 c 0
 109 248 233 309 278 331 c 1
 263 340 221 375 221 444 c 0
 221 536 299 661 459 661 c 0
 545 661 618 626 618 544 c 0
 618 440 526 390 483 367 c 1
 522 340 567 307 567 226 c 0
543 546 m 0
 543 600 505 622 453 622 c 0
 351 622 312 558 312 519 c 0
 312 490 325 481 370 448 c 2
 445 395 l 1
 515 437 543 498 543 546 c 0
465 158 m 0
 465 197 448 209 403 241 c 0
 393 249 347 282 317 302 c 1
 226 251 196 166 196 116 c 0
 196 60 231 26 300 26 c 0
 409 26 465 99 465 158 c 0
EndSplineSet
Substitution2: "'smcp' Lowercase to Small Capitals lookup 14 subtable" eight.oldstyle
Substitution2: "'pnum' Proportional Numbers lookup 6 subtable" eight.prop
Substitution2: "'onum' Oldstyle Figures lookup 4 subtable" eight.oldstyle
AlternateSubs2: "'aalt' Access All Alternates lookup 1 subtable" eight.oldstyle eight.prop
EndChar

StartChar: nine
Encoding: 57 57 26
Width: 591
GlyphClass: 2
Flags: MW
HStem: -17 43<247.5 282.5 247.5 292> 221 36<323 359.5> 622 39<441.5 483>
VStem: 125 122<104.5 110.5> 517 104<461 563>
LayerCount: 2
Fore
SplineSet
621 479 m 0
 621 443 607 253 501 116 c 0
 429 24 333 -17 251 -17 c 0
 188 -17 125 6 125 78 c 0
 125 143 168 164 197 164 c 0
 233 164 247 141 247 118 c 0
 247 91 229 59 191 49 c 1
 208 27 242 26 253 26 c 0
 312 26 362 69 384 98 c 0
 398 118 426 155 460 286 c 1
 417 233 379 221 340 221 c 0
 198 221 175 331 175 373 c 0
 175 377 175 495 260 580 c 0
 340 659 424 661 459 661 c 0
 569 661 621 591 621 479 c 0
517 552 m 0
 517 574 508 622 458 622 c 0
 399 622 359 586 339 531 c 0
 322 486 288 352 288 314 c 0
 288 292 297 257 349 257 c 0
 486 257 517 531 517 552 c 0
EndSplineSet
Substitution2: "'smcp' Lowercase to Small Capitals lookup 14 subtable" nine.oldstyle
Substitution2: "'pnum' Proportional Numbers lookup 6 subtable" nine.prop
Substitution2: "'onum' Oldstyle Figures lookup 4 subtable" nine.oldstyle
AlternateSubs2: "'aalt' Access All Alternates lookup 1 subtable" nine.oldstyle nine.prop
EndChar

StartChar: colon
Encoding: 58 58 27
Width: 356
GlyphClass: 2
Flags: MW
HStem: 0 147<190.5 204.5> 297 147<263.5 278.5>
VStem: 122 150<64.5 84> 196 150<360.5 379.5>
LayerCount: 2
Fore
SplineSet
346 384 m 0xd0
 346 337 300 297 257 297 c 0
 221 297 196 321 196 356 c 0
 196 403 241 444 286 444 c 0
 312 444 346 429 346 384 c 0xd0
272 88 m 0
 272 41 227 0 182 0 c 0
 153 0 122 18 122 59 c 0xa0
 122 109 170 147 211 147 c 0
 247 147 272 123 272 88 c 0
EndSplineSet
EndChar

StartChar: semicolon
Encoding: 59 59 28
Width: 356
GlyphClass: 2
Flags: MW
HStem: 0 147<184 192.5> 297 147<263.5 278.5>
VStem: 121 147<46 78.5>
LayerCount: 2
Fore
SplineSet
346 384 m 0
 346 337 300 297 257 297 c 0
 221 297 196 321 196 356 c 0
 196 403 241 444 286 444 c 0
 312 444 346 429 346 384 c 0
268 74 m 0
 268 -62 128 -194 107 -194 c 0
 97 -194 89 -183 89 -174 c 0
 89 -167 92 -165 100 -158 c 0
 130 -134 190 -80 219 8 c 1
 219 8 203 0 182 0 c 0
 135 0 121 34 121 58 c 0
 121 99 158 147 210 147 c 0
 254 147 268 114 268 74 c 0
EndSplineSet
EndChar

StartChar: less
Encoding: 60 60 29
Width: 894
GlyphClass: 2
Flags: MW
HStem: -86 21G<745 754.5> 567 20G<909.5 922.5>
LayerCount: 2
Fore
SplineSet
783 -56 m 0
 780 -70 764 -86 745 -86 c 1
 745 -86 737 -86 724 -79 c 2
 176 219 l 2
 164 225 154 233 159 251 c 0
 163 269 179 277 192 282 c 2
 892 581 l 2
 900 585 906 587 913 587 c 0
 932 587 940 571 936 557 c 0
 932 540 919 532 903 525 c 2
 260 250 l 1
 766 -24 l 2
 778 -31 787 -39 783 -56 c 0
EndSplineSet
EndChar

StartChar: equal
Encoding: 61 61 30
Width: 886
GlyphClass: 2
Flags: MW
HStem: 108 61<165 171 171 784> 332 61<215 840 227 840 840 846>
LayerCount: 2
Fore
SplineSet
886 362 m 0
 886 332 858 332 846 332 c 2
 221 332 l 2
 209 332 181 332 181 362 c 0
 181 393 212 393 227 393 c 2
 840 393 l 2
 855 393 886 393 886 362 c 0
831 139 m 0
 831 108 799 108 784 108 c 2
 171 108 l 2
 156 108 125 108 125 139 c 0
 125 169 153 169 165 169 c 2
 790 169 l 2
 802 169 831 169 831 139 c 0
EndSplineSet
EndChar

StartChar: greater
Encoding: 62 62 31
Width: 894
GlyphClass: 2
Flags: MW
HStem: -86 21G<96.5 109.5> 567 20G<265 274.5>
LayerCount: 2
Fore
SplineSet
860 251 m 0
 855 233 842 225 827 219 c 2
 126 -80 l 2
 118 -84 113 -86 106 -86 c 0
 87 -86 79 -70 82 -56 c 0
 86 -41 96 -32 115 -24 c 2
 759 251 l 1
 252 525 l 2
 238 533 231 541 235 557 c 0
 239 573 257 587 273 587 c 0
 276 587 282 587 294 580 c 2
 843 282 l 2
 852 277 864 269 860 251 c 0
EndSplineSet
EndChar

StartChar: question
Encoding: 63 63 32
Width: 591
GlyphClass: 2
Flags: MW
HStem: 0 147<306.5 322> 219 36<351.5 364 351.5 395> 675 36<435 478>
VStem: 214 120<494.5 523> 556 58<592 624 553.5 639.5>
LayerCount: 2
Fore
SplineSet
614 587 m 0
 614 520 578 459 505 411 c 2
 382 332 l 2
 362 319 341 305 341 273 c 0
 341 263 346 255 357 255 c 0
 371 255 416 264 434 313 c 0
 439 327 442 327 462 327 c 0
 478 327 490 327 490 313 c 0
 490 280 435 219 355 219 c 0
 337 219 284 225 284 293 c 0
 284 321 293 375 349 411 c 2
 493 505 l 2
 544 538 556 578 556 606 c 0
 556 673 487 675 469 675 c 0
 401 675 337 628 296 561 c 1
 299 560 334 553 334 514 c 0
 334 475 300 444 264 444 c 0
 234 444 214 463 214 490 c 0
 214 556 315 711 470 711 c 0
 562 711 614 661 614 587 c 0
389 87 m 0
 389 39 343 0 301 0 c 0
 266 0 239 24 239 60 c 0
 239 109 286 147 327 147 c 0
 365 147 389 120 389 87 c 0
EndSplineSet
EndChar

StartChar: at
Encoding: 64 64 33
Width: 886
GlyphClass: 2
Flags: MW
HStem: -8 36<376.5 499.5 376.5 545> 91 36<767 779> 127 36<449 504.5 714.5 762.5> 531 36<527 592.5> 666 36<485.5 677>
VStem: 164 55<175 335 175 351.5> 309 102<249 308 249 346> 841 55<430.5 525.5>
LayerCount: 2
Fore
SplineSet
815 77 m 1xcd
 815 77 815 68 807 65 c 2
 807 65 641 -8 449 -8 c 0
 277 -8 164 78 164 247 c 0
 164 456 327 702 614 702 c 0
 779 702 896 617 896 448 c 0
 896 369 850 127 708 127 c 0
 696 127 634 127 608 170 c 1
 574 147 532 127 477 127 c 0
 386 127 309 176 309 285 c 0
 309 407 405 567 580 567 c 0
 632 567 692 547 715 482 c 1
 744 482 l 2
 760 482 772 482 772 468 c 0
 772 459 743 349 738 331 c 0
 736 322 704 202 704 184 c 0
 704 166 711 163 718 163 c 0xbf
 807 163 841 410 841 451 c 0
 841 600 741 666 613 666 c 0
 358 666 219 427 219 243 c 0
 219 107 302 28 451 28 c 0
 548 28 643 50 733 85 c 0
 749 91 751 91 767 91 c 2
 787 91 l 2
 803 91 815 91 815 77 c 1xcd
610 246 m 2
 665 469 l 1
 649 520 605 531 580 531 c 0
 474 531 411 355 411 261 c 0
 411 237 416 163 482 163 c 0
 537 163 601 210 610 246 c 2
EndSplineSet
EndChar

StartChar: A
Encoding: 65 65 34
Width: 866
GlyphClass: 2
Flags: MW
HStem: 0 47<97 104 97 107.5 307 309 499 517 760 773 773 780.5> 192 47<357 555 357 560 328 555> 691 20G<599 625>
VStem: 73 260<18 32.5>
LayerCount: 2
Fore
SplineSet
805 29 m 0
 805 0 787 0 777 0 c 0
 732 0 685 3 640 3 c 0
 591 3 541 0 493 0 c 0
 471 0 471 18 471 18 c 1
 471 47 488 47 510 47 c 0
 530 47 556 48 575 52 c 1
 560 192 l 1
 328 192 l 1
 247 57 l 1
 271 48 307 47 307 47 c 2
 315 47 333 47 333 29 c 0
 333 0 313 0 305 0 c 0
 268 0 228 3 190 3 c 0
 158 3 123 0 92 0 c 0
 73 0 73 18 73 18 c 1
 73 47 90 47 104 47 c 0
 176 48 187 66 198 84 c 2
 563 686 l 2
 578 711 588 711 610 711 c 0
 640 711 643 708 646 682 c 2
 712 66 l 2
 714 51 715 50 727 48 c 0
 735 47 751 47 760 47 c 2
 773 47 l 2
 788 47 805 47 805 29 c 0
555 239 m 1
 525 517 l 1
 357 239 l 1
 555 239 l 1
EndSplineSet
Position2: "'cpsp' Capital Spacing lookup 0 subtable" dx=7 dy=0 dh=14 dv=0
EndChar

StartChar: B
Encoding: 66 66 35
Width: 817
GlyphClass: 2
Flags: MW
HStem: 0 47<88.5 121 99 121 121 127 329 470 470 496> 339 36<387 526 526 552 378 526> 639 47<248.5 639 259 278 469.5 485 485 616>
VStem: 699 132<519 597.5 510.5 598>
LayerCount: 2
Fore
SplineSet
778 225 m 0
 778 131 686 0 496 0 c 2
 96 0 l 2
 81 0 64 0 64 18 c 0
 64 47 82 47 99 47 c 2
 121 47 l 2
 133 47 149 48 161 49 c 0
 179 50 180 51 184 65 c 2
 327 637 l 1
 315 638 289 639 278 639 c 2
 256 639 l 2
 241 639 224 639 224 657 c 0
 224 686 242 686 259 686 c 2
 639 686 l 2
 744 686 831 645 831 550 c 0
 831 471 765 384 628 358 c 1
 708 351 778 310 778 225 c 0
699 557 m 0
 699 639 636 639 616 639 c 2
 485 639 l 2
 454 639 453 638 449 623 c 2
 387 375 l 1
 526 375 l 2
 645 375 699 481 699 557 c 0
643 245 m 0
 643 339 575 339 552 339 c 2
 378 339 l 1
 306 48 l 1
 313 47 320 47 329 47 c 2
 470 47 l 2
 596 47 643 166 643 245 c 0
EndSplineSet
Position2: "'cpsp' Capital Spacing lookup 0 subtable" dx=7 dy=0 dh=14 dv=0
EndChar

StartChar: C
Encoding: 67 67 36
Width: 827
GlyphClass: 2
Flags: MW
HStem: -17 47<467 494.5> 656 47<610.5 642.5 483 693.5>
VStem: 163 135<191.5 224.5 191.5 351>
LayerCount: 2
Fore
SplineSet
849 446 m 2
 844 426 842 426 817 426 c 0
 797 426 786 426 786 441 c 0
 786 448 789 454 789 484 c 0
 789 578 743 656 644 656 c 0
 577 656 480 631 411 547 c 0
 323 439 298 247 298 202 c 0
 298 181 298 119 344 77 c 0
 388 36 451 30 483 30 c 0
 562 30 692 82 740 239 c 0
 743 248 752 248 767 248 c 0
 782 248 795 248 795 234 c 0
 795 225 773 136 688 68 c 0
 611 6 531 -17 458 -17 c 0
 310 -17 163 53 163 245 c 0
 163 457 336 703 630 703 c 0
 655 703 733 703 796 635 c 1
 882 703 l 1
 897 703 909 703 909 689 c 2
 909 689 909 685 905 670 c 2
 849 446 l 2
EndSplineSet
Position2: "'cpsp' Capital Spacing lookup 0 subtable" dx=7 dy=0 dh=14 dv=0
EndChar

StartChar: D
Encoding: 68 68 37
Width: 876
GlyphClass: 2
Flags: MW
HStem: 0 47<88.5 121 99 121 121 127 334 438 438 464> 639 47<248.5 635 259 278 474.5 490 490 585>
VStem: 757 128<456 534.5 345 549>
LayerCount: 2
Fore
SplineSet
885 446 m 0
 885 244 733 0 464 0 c 2
 96 0 l 2
 81 0 64 0 64 18 c 0
 64 47 82 47 99 47 c 2
 121 47 l 2
 133 47 149 48 161 49 c 0
 179 50 180 51 184 65 c 2
 327 637 l 1
 315 638 289 639 278 639 c 2
 256 639 l 2
 241 639 224 639 224 657 c 0
 224 686 242 686 259 686 c 2
 635 686 l 2
 759 686 885 623 885 446 c 0
757 483 m 0
 757 615 656 639 585 639 c 2
 490 639 l 2
 459 639 458 638 454 623 c 2
 311 48 l 1
 318 47 325 47 334 47 c 2
 438 47 l 2
 538 47 621 91 673 174 c 0
 719 249 757 429 757 483 c 0
EndSplineSet
Position2: "'cpsp' Capital Spacing lookup 0 subtable" dx=7 dy=0 dh=14 dv=0
EndChar

StartChar: E
Encoding: 69 69 38
Width: 757
GlyphClass: 2
Flags: MW
HStem: 0 47<88.5 121 99 121 121 127 340 440 440 521.5> 329 47<399 438 387 441> 633 47<247 773 257 276 530.5 605>
LayerCount: 2
Fore
SplineSet
761 256 m 0
 761 250 758 244 756 239 c 2
 661 17 l 2
 654 0 649 0 628 0 c 2
 96 0 l 2
 81 0 64 0 64 18 c 0
 64 47 82 47 99 47 c 2
 121 47 l 2
 133 47 149 48 161 49 c 0
 179 50 180 51 184 65 c 2
 325 631 l 1
 319 631 286 633 276 633 c 2
 254 633 l 2
 240 633 223 633 223 651 c 0
 223 680 240 680 257 680 c 2
 773 680 l 2
 787 680 803 680 805 663 c 2
 782 465 l 2
 780 446 779 439 753 439 c 0
 743 439 725 439 725 458 c 0
 725 462 727 475 728 479 c 0
 731 505 731 508 731 527 c 0
 731 633 666 633 544 633 c 0
 517 633 476 633 462 631 c 1
 399 376 l 1
 441 376 l 2
 520 376 538 401 556 471 c 0
 561 490 564 493 586 493 c 0
 596 493 614 493 614 475 c 0
 614 472 613 469 611 462 c 2
 555 236 l 2
 549 212 542 212 525 212 c 0
 515 212 497 212 497 230 c 2
 497 230 498 237 500 244 c 0
 504 262 507 282 507 289 c 0
 507 319 493 329 438 329 c 2
 387 329 l 1
 317 48 l 1
 324 47 331 47 340 47 c 2
 440 47 l 2
 603 47 646 124 699 247 c 0
 711 273 711 274 733 274 c 0
 743 274 761 274 761 256 c 0
EndSplineSet
Position2: "'cpsp' Capital Spacing lookup 0 subtable" dx=7 dy=0 dh=14 dv=0
EndChar

StartChar: F
Encoding: 70 70 39
Width: 727
GlyphClass: 2
Flags: MW
HStem: 0 47<99 111.5 387.5 415 415 422> 317 47<396 429 384 432> 633 47<247 758 257 276 526 595.5>
LayerCount: 2
Fore
SplineSet
767 465 m 2
 765 446 764 439 738 439 c 0
 728 439 710 439 710 458 c 2
 710 458 710 462 712 470 c 0
 714 488 716 512 716 529 c 0
 716 633 652 633 539 633 c 0
 513 633 476 633 462 631 c 1
 396 364 l 1
 432 364 l 2
 511 364 528 389 546 459 c 0
 551 478 554 481 576 481 c 0
 586 481 604 481 604 463 c 0
 604 460 603 457 601 450 c 2
 545 224 l 2
 539 200 532 200 515 200 c 0
 505 200 487 200 487 218 c 0
 487 221 489 229 489 232 c 0
 494 248 497 268 497 278 c 0
 497 305 487 317 429 317 c 2
 384 317 l 1
 317 50 l 1
 341 47 343 47 379 47 c 2
 415 47 l 2
 429 47 447 47 447 29 c 0
 447 0 428 0 416 0 c 0
 359 0 299 3 241 3 c 0
 190 3 137 0 86 0 c 0
 75 0 64 5 64 18 c 0
 64 47 82 47 99 47 c 2
 121 47 l 2
 133 47 149 48 161 49 c 0
 179 50 180 51 184 65 c 2
 325 631 l 1
 319 631 286 633 276 633 c 2
 254 633 l 2
 240 633 223 633 223 651 c 0
 223 680 240 680 257 680 c 2
 758 680 l 2
 772 680 788 680 790 663 c 2
 767 465 l 2
EndSplineSet
Position2: "'cpsp' Capital Spacing lookup 0 subtable" dx=7 dy=0 dh=14 dv=0
EndChar

StartChar: G
Encoding: 71 71 40
Width: 895
GlyphClass: 2
Flags: MW
HStem: -17 47<455.5 488.5> 229 47<554 561 561 587.5 554 595 833.5 846> 656 47<610.5 641.5 483.5 694.5>
VStem: 163 135<171 225.5 171 352>
LayerCount: 2
Fore
SplineSet
874 258 m 0
 874 229 858 229 834 229 c 0
 823 229 812 229 801 227 c 0
 794 226 792 226 789 212 c 2
 742 21 l 2
 739 9 737 0 725 0 c 0
 718 0 676 24 650 47 c 1
 595 -2 519 -17 458 -17 c 0
 305 -17 163 57 163 244 c 0
 163 460 338 703 629 703 c 0
 654 703 732 703 795 635 c 1
 881 703 l 1
 896 703 908 703 908 689 c 2
 908 689 908 685 904 670 c 2
 848 446 l 2
 843 426 841 426 816 426 c 0
 796 426 785 426 785 441 c 0
 785 449 788 453 788 485 c 0
 788 573 746 656 643 656 c 0
 578 656 477 631 406 541 c 0
 324 435 298 248 298 203 c 0
 298 139 318 102 347 75 c 0
 374 51 425 30 486 30 c 0
 548 30 612 63 629 119 c 0
 632 129 655 219 655 223 c 0
 655 229 607 229 595 229 c 2
 561 229 l 2
 547 229 529 229 529 247 c 0
 529 276 548 276 560 276 c 0
 615 276 672 273 727 273 c 0
 769 273 813 276 854 276 c 0
 870 276 874 264 874 258 c 0
EndSplineSet
Position2: "'cpsp' Capital Spacing lookup 0 subtable" dx=7 dy=0 dh=14 dv=0
EndChar

StartChar: H
Encoding: 72 72 41
Width: 896
GlyphClass: 2
Flags: MW
HStem: 0 47<99 110.5 366 388 388 395 523 534.5 790 812 812 819> 333 47<400 675 388 687> 639 47<248.5 256 256 278 545 553.5 672.5 680 680 702 969 977.5>
LayerCount: 2
Fore
SplineSet
1003 668 m 0
 1003 639 986 639 969 639 c 2
 907 638 l 2
 888 636 887 635 883 620 c 2
 741 49 l 1
 747 49 780 47 790 47 c 2
 812 47 l 2
 826 47 843 47 843 29 c 0
 843 0 824 0 815 0 c 0
 765 0 712 3 661 3 c 0
 611 3 559 0 510 0 c 0
 499 0 488 5 488 18 c 0
 488 47 506 47 523 47 c 2
 545 47 l 2
 557 47 573 48 585 49 c 0
 603 50 604 51 608 65 c 2
 675 333 l 1
 388 333 l 1
 317 49 l 1
 323 49 356 47 366 47 c 2
 388 47 l 2
 402 47 419 47 419 29 c 0
 419 0 400 0 391 0 c 0
 341 0 288 3 237 3 c 0
 187 3 135 0 86 0 c 0
 75 0 64 5 64 18 c 0
 64 47 82 47 99 47 c 2
 121 47 l 2
 133 47 149 48 161 49 c 0
 179 50 180 51 184 65 c 2
 327 637 l 1
 315 638 289 639 278 639 c 2
 256 639 l 2
 241 639 224 639 224 657 c 0
 224 686 243 686 253 686 c 0
 303 686 356 683 407 683 c 0
 457 683 508 686 557 686 c 0
 568 686 579 681 579 668 c 0
 579 639 562 639 545 639 c 2
 483 638 l 2
 464 636 463 635 459 620 c 2
 400 380 l 1
 687 380 l 1
 751 637 l 1
 739 638 713 639 702 639 c 2
 680 639 l 2
 665 639 648 639 648 657 c 0
 648 686 667 686 677 686 c 0
 727 686 780 683 831 683 c 0
 881 683 932 686 981 686 c 0
 992 686 1003 681 1003 668 c 0
EndSplineSet
Position2: "'cpsp' Capital Spacing lookup 0 subtable" dx=7 dy=0 dh=14 dv=0
EndChar

StartChar: I
Encoding: 73 73 42
Width: 472
GlyphClass: 2
Flags: MW
HStem: 0 47<94 106.5 369 393 393 400.5> 637 46 639 47<243.5 251 251 274 242.5 275 537.5 550>
LayerCount: 2
Fore
SplineSet
585 668 m 0x20
 585 639 567 639 550 639 c 2
 525 639 l 2x20
 513 639 496 638 484 637 c 0
 464 636 463 635 459 620 c 2
 317 49 l 1
 368 47 l 1
 393 47 l 2
 408 47 425 47 425 29 c 0
 425 0 406 0 395 0 c 0
 343 0 289 3 236 3 c 0
 185 3 132 0 81 0 c 0
 69 0 59 5 59 18 c 0
 59 47 76 47 94 47 c 2
 118 47 l 2
 129 47 148 47 159 48 c 0
 179 50 180 51 184 65 c 2
 326 637 l 1xc0
 315 637 280 639 275 639 c 2
 251 639 l 2
 236 639 219 639 219 657 c 0
 219 686 237 686 248 686 c 0
 300 686 354 683 407 683 c 0
 459 683 512 686 563 686 c 0
 584 686 585 671 585 668 c 0x20
EndSplineSet
Position2: "'cpsp' Capital Spacing lookup 0 subtable" dx=7 dy=0 dh=14 dv=0
EndChar

StartChar: J
Encoding: 74 74 43
Width: 611
GlyphClass: 2
Flags: MW
HStem: -17 36<223 253.5 223 305> 639 47<361 368 368 395 361 407 649.5 656>
VStem: 72 152<116.5 125.5>
LayerCount: 2
Fore
SplineSet
691 668 m 0
 691 639 674 639 656 639 c 2
 648 639 l 2
 638 639 626 639 615 638 c 0
 603 636 602 635 599 622 c 2
 479 140 l 2
 461 66 380 -17 230 -17 c 0
 139 -17 72 23 72 92 c 0
 72 159 125 188 161 188 c 0
 201 188 224 161 224 130 c 0
 224 103 206 57 155 43 c 1
 181 19 220 19 226 19 c 0
 281 19 330 70 350 149 c 2
 471 636 l 1
 448 639 446 639 407 639 c 2
 368 639 l 2
 354 639 337 639 337 657 c 0
 337 686 355 686 367 686 c 0
 423 686 482 683 539 683 c 0
 583 683 628 686 671 686 c 0
 686 686 691 675 691 668 c 0
EndSplineSet
Position2: "'cpsp' Capital Spacing lookup 0 subtable" dx=7 dy=0 dh=14 dv=0
EndChar

StartChar: K
Encoding: 75 75 44
Width: 895
GlyphClass: 2
Flags: MW
HStem: 0 47<99 110.5 366 388 388 395 540 550.5 780.5 803.5> 639 47<248.5 256 256 278 545 553.5 733 735 946 949.5>
VStem: 709 263<654 671.5>
LayerCount: 2
Fore
SplineSet
827 29 m 0
 827 0 809 0 800 0 c 0
 761 0 720 3 680 3 c 0
 632 3 583 0 536 0 c 0
 524 0 514 6 514 18 c 0
 514 47 531 47 549 47 c 0
 552 47 582 47 602 54 c 1
 477 337 l 1
 368 254 l 1
 317 49 l 1
 323 49 356 47 366 47 c 2
 388 47 l 2
 402 47 419 47 419 29 c 0
 419 0 400 0 391 0 c 0
 341 0 288 3 237 3 c 0
 187 3 135 0 86 0 c 0
 75 0 64 5 64 18 c 0
 64 47 82 47 99 47 c 2
 121 47 l 2
 158 47 180 51 180 51 c 1
 327 637 l 1
 315 638 289 639 278 639 c 2
 256 639 l 2
 241 639 224 639 224 657 c 0
 224 686 243 686 253 686 c 0
 303 686 356 683 407 683 c 0
 457 683 508 686 557 686 c 0
 568 686 579 681 579 668 c 0
 579 639 562 639 545 639 c 2
 483 638 l 2
 464 636 463 635 459 620 c 2
 387 331 l 1
 784 631 l 1
 764 638 735 639 735 639 c 2
 726 639 709 640 709 657 c 0
 709 686 728 686 738 686 c 0
 780 686 825 683 868 683 c 0
 896 683 927 686 954 686 c 0
 964 686 972 678 972 668 c 0
 972 640 953 639 946 639 c 0
 888 637 862 626 828 601 c 2
 586 419 l 1
 742 66 l 2
 749 51 750 47 797 47 c 0
 810 47 827 47 827 29 c 0
EndSplineSet
Position2: "'cpsp' Capital Spacing lookup 0 subtable" dx=7 dy=0 dh=14 dv=0
EndChar

StartChar: L
Encoding: 76 76 45
Width: 698
GlyphClass: 2
Flags: MW
HStem: 0 47<88.5 121 99 121 121 127 340 398 398 475> 639 47<248.5 256 256 278 554.5 572>
LayerCount: 2
Fore
SplineSet
687 256 m 0
 687 252 685 246 682 239 c 2
 602 21 l 2
 594 0 591 0 568 0 c 2
 96 0 l 2
 81 0 64 0 64 18 c 0
 64 47 82 47 99 47 c 2
 121 47 l 2
 133 47 149 48 161 49 c 0
 179 50 180 51 184 65 c 2
 327 637 l 1
 315 638 289 639 278 639 c 2
 256 639 l 2
 241 639 224 639 224 657 c 0
 224 686 243 686 253 686 c 0
 305 686 359 683 411 683 c 0
 468 683 526 686 583 686 c 0
 591 686 606 684 606 668 c 0
 606 639 590 639 572 639 c 2
 536 639 l 2
 524 639 500 638 490 637 c 0
 464 635 463 634 459 620 c 2
 317 48 l 1
 324 47 331 47 340 47 c 2
 398 47 l 2
 552 47 603 183 631 258 c 0
 636 274 644 274 659 274 c 0
 668 274 687 274 687 256 c 0
EndSplineSet
Position2: "'cpsp' Capital Spacing lookup 0 subtable" dx=7 dy=0 dh=14 dv=0
EndChar

StartChar: M
Encoding: 77 77 46
Width: 1073
GlyphClass: 2
Flags: MW
HStem: 0 47<90 102.5 309.5 321 717 727 968 989 989 996> 639 47<248.5 452 259 278 1146 1148 1148 1154.5>
VStem: 64 281<16 32.5>
LayerCount: 2
Fore
SplineSet
1180 668 m 0
 1180 639 1163 639 1146 639 c 2
 1084 638 l 2
 1065 636 1064 635 1060 620 c 2
 918 49 l 1
 924 49 957 47 967 47 c 2
 989 47 l 2
 1003 47 1020 47 1020 29 c 0
 1020 0 1001 0 992 0 c 0
 944 0 894 3 846 3 c 0
 799 3 750 0 704 0 c 0
 693 0 682 5 682 18 c 0
 682 47 700 47 717 47 c 2
 739 47 l 2
 751 47 767 48 779 49 c 0
 797 50 798 51 802 65 c 2
 940 621 l 1
 939 622 l 1
 546 25 l 2
 536 10 530 0 505 0 c 0
 483 0 478 8 475 29 c 2
 383 607 l 1
 382 607 l 1
 245 57 l 1
 269 47 305 47 314 47 c 0
 328 47 345 47 345 29 c 0
 345 0 326 0 318 0 c 0
 280 0 238 3 199 3 c 0
 161 3 121 0 84 0 c 0
 67 0 64 14 64 18 c 0
 64 47 82 47 98 47 c 0
 123 47 144 50 155 52 c 0
 182 58 183 62 187 77 c 2
 327 637 l 1
 315 638 289 639 278 639 c 2
 256 639 l 2
 241 639 224 639 224 657 c 0
 224 686 242 686 259 686 c 2
 452 686 l 2
 479 686 485 684 489 658 c 2
 572 139 l 1
 918 663 l 2
 932 685 940 686 964 686 c 2
 1148 686 l 2
 1163 686 1180 686 1180 668 c 0
EndSplineSet
Position2: "'cpsp' Capital Spacing lookup 0 subtable" dx=7 dy=0 dh=14 dv=0
EndChar

StartChar: N
Encoding: 78 78 47
Width: 896
GlyphClass: 2
Flags: MW
HStem: 0 47<90 102.5 309.5 321> 639 47<248.5 444 259 283 746 757.5 968 979>
VStem: 64 281<16 32.5> 722 281<653.5 671.5>
LayerCount: 2
Fore
SplineSet
1003 668 m 0
 1003 639 986 639 972 639 c 0
 964 639 938 639 915 634 c 0
 886 628 885 625 881 610 c 2
 735 24 l 2
 729 0 724 0 701 0 c 0
 679 0 678 1 670 16 c 2
 376 584 l 1
 245 57 l 1
 269 47 305 47 314 47 c 0
 328 47 345 47 345 29 c 0
 345 0 326 0 318 0 c 0
 280 0 238 3 199 3 c 0
 161 3 121 0 84 0 c 0
 67 0 64 14 64 18 c 0
 64 47 82 47 98 47 c 0
 123 47 144 50 155 52 c 0
 182 58 183 62 187 77 c 2
 323 623 l 2
 324 626 326 634 326 634 c 2
 326 637 326 639 283 639 c 2
 256 639 l 2
 241 639 224 639 224 657 c 0
 224 686 242 686 259 686 c 2
 444 686 l 2
 467 686 468 685 477 669 c 2
 717 206 l 1
 823 629 l 1
 798 639 762 639 753 639 c 0
 739 639 722 639 722 657 c 0
 722 686 742 686 750 686 c 0
 788 686 829 683 868 683 c 0
 906 683 946 686 983 686 c 0
 994 686 1003 679 1003 668 c 0
EndSplineSet
Position2: "'cpsp' Capital Spacing lookup 0 subtable" dx=7 dy=0 dh=14 dv=0
EndChar

StartChar: O
Encoding: 79 79 48
Width: 855
GlyphClass: 2
Flags: MW
HStem: -17 42<408 463 408 565.5> 663 40<566 654>
VStem: 160 137<178.5 229 178.5 329.5> 733 132<466 529>
LayerCount: 2
Fore
SplineSet
865 453 m 0
 865 242 707 -17 424 -17 c 0
 276 -17 160 59 160 229 c 0
 160 430 315 703 603 703 c 0
 741 703 865 633 865 453 c 0
733 501 m 0
 733 557 715 663 593 663 c 0
 539 663 453 637 388 530 c 0
 334 440 297 265 297 193 c 0
 297 164 300 111 330 72 c 0
 348 50 382 25 434 25 c 0
 492 25 565 54 629 148 c 0
 692 240 733 431 733 501 c 0
EndSplineSet
Position2: "'cpsp' Capital Spacing lookup 0 subtable" dx=7 dy=0 dh=14 dv=0
EndChar

StartChar: P
Encoding: 80 80 49
Width: 787
GlyphClass: 2
Flags: MW
HStem: 0 47<99 110.5 366 388 388 395> 302 41<384 499 499 535 380 499> 639 47<248.5 622 259 278 472.5 486 486 532>
VStem: 689 136<557 595.5 472.5 602.5>
LayerCount: 2
Fore
SplineSet
825 535 m 0
 825 410 700 302 535 302 c 2
 380 302 l 1
 317 49 l 1
 323 49 356 47 366 47 c 2
 388 47 l 2
 402 47 419 47 419 29 c 0
 419 0 400 0 391 0 c 0
 341 0 288 3 237 3 c 0
 187 3 135 0 86 0 c 0
 75 0 64 5 64 18 c 0
 64 47 82 47 99 47 c 2
 121 47 l 2
 133 47 149 48 161 49 c 0
 179 50 180 51 184 65 c 2
 327 637 l 1
 315 638 289 639 278 639 c 2
 256 639 l 2
 241 639 224 639 224 657 c 0
 224 686 242 686 259 686 c 2
 622 686 l 2
 710 686 825 656 825 535 c 0
689 566 m 0
 689 639 613 639 532 639 c 2
 486 639 l 2
 459 639 458 638 454 623 c 2
 384 343 l 1
 499 343 l 2
 593 343 629 381 639 397 c 0
 673 445 689 548 689 566 c 0
EndSplineSet
Position2: "'cpsp' Capital Spacing lookup 0 subtable" dx=7 dy=0 dh=14 dv=0
EndChar

StartChar: Q
Encoding: 81 81 50
Width: 855
GlyphClass: 2
Flags: MW
HStem: -194 144<629.5 642 629.5 661> -17 40<426 442> 119 36<446.5 482.5> 663 40<564.5 621>
VStem: 160 129<162 219 162 329.5> 352 36<46 72 39 89.5> 736 129<475 503.5>
LayerCount: 2
Fore
SplineSet
771 0 m 0
 771 -15 722 -194 600 -194 c 0
 511 -194 510 -109 510 -77 c 0
 510 -63 513 -21 514 -7 c 1
 494 -12 460 -17 424 -17 c 0
 276 -17 160 59 160 229 c 0
 160 430 315 703 603 703 c 0
 741 703 865 633 865 453 c 0
 865 328 797 96 575 11 c 1
 594 -50 620 -50 639 -50 c 0
 645 -50 715 -50 735 3 c 0
 737 9 741 18 753 18 c 0
 763 18 771 10 771 0 c 0
736 493 m 0
 736 514 736 572 701 616 c 0
 684 636 649 663 593 663 c 0
 536 663 451 633 387 532 c 0
 322 428 289 248 289 190 c 0
 289 134 304 77 352 46 c 1
 352 133 431 155 462 155 c 0
 520 155 543 114 560 66 c 1
 709 170 736 457 736 493 c 0
516 41 m 1
 516 96 502 119 463 119 c 0
 425 119 388 89 388 55 c 0
 388 23 418 23 434 23 c 0
 472 23 508 37 516 41 c 1
EndSplineSet
Position2: "'cpsp' Capital Spacing lookup 0 subtable" dx=7 dy=0 dh=14 dv=0
EndChar

StartChar: R
Encoding: 82 82 51
Width: 859
GlyphClass: 2
Flags: MW
HStem: 0 47<99 110 360.5 382 382 389> 325 36<389 486 380 488> 639 47<248.5 589 259 278 469 480 480 525>
VStem: 570 134<239 251 228 286>
CounterMasks: 1 e0
LayerCount: 2
Fore
SplineSet
850 99 m 0
 850 86 817 -17 716 -17 c 0
 683 -17 540 -14 540 95 c 0
 540 111 542 120 555 172 c 0
 562 197 570 231 570 247 c 0
 570 325 501 325 486 325 c 2
 380 325 l 1
 311 49 l 1
 317 49 350 47 360 47 c 2
 382 47 l 2
 396 47 413 47 413 29 c 0
 413 0 394 0 385 0 c 0
 336 0 284 3 234 3 c 0
 185 3 134 0 86 0 c 0
 75 0 64 5 64 18 c 0
 64 47 82 47 99 47 c 2
 121 47 l 2
 133 47 149 48 161 49 c 0
 179 50 180 51 184 65 c 2
 327 637 l 1
 315 638 289 639 278 639 c 2
 256 639 l 2
 241 639 224 639 224 657 c 0
 224 686 242 686 259 686 c 2
 589 686 l 2
 694 686 825 652 825 535 c 0
 825 444 740 368 623 339 c 1
 683 313 704 271 704 231 c 0
 704 225 704 221 697 181 c 0
 684 99 684 91 684 75 c 0
 684 49 686 19 722 19 c 0
 751 19 777 48 793 97 c 0
 799 117 803 117 822 117 c 0
 833 117 850 117 850 99 c 0
687 561 m 0
 687 639 603 639 525 639 c 2
 480 639 l 2
 458 639 458 638 454 623 c 2
 389 361 l 1
 488 361 l 2
 539 361 591 370 631 403 c 0
 672 439 687 540 687 561 c 0
EndSplineSet
Position2: "'cpsp' Capital Spacing lookup 0 subtable" dx=7 dy=0 dh=14 dv=0
EndChar

StartChar: S
Encoding: 83 83 52
Width: 650
GlyphClass: 2
Flags: MW
HStem: -17 47<321.5 411.5 321.5 439.5> 660 43<411.5 498 379.5 503.5>
VStem: 209 107<487.5 503> 510 106<196 223.5> 597 106
LayerCount: 2
Fore
SplineSet
616 251 m 0x68
 616 141 528 -17 351 -17 c 0
 272 -17 214 6 182 38 c 1
 120 -14 159 17 128 -8 c 0
 119 -16 118 -17 108 -17 c 0
 104 -17 90 -17 90 -3 c 2
 90 -3 91 4 92 9 c 2
 142 209 l 2
 147 228 149 228 172 228 c 0
 186 228 199 228 199 214 c 2
 199 214 199 208 198 205 c 0
 194 190 192 175 192 159 c 0
 192 54 288 30 355 30 c 0
 468 30 510 138 510 189 c 0x90
 510 258 463 270 424 279 c 0
 392 288 390 288 360 295 c 0
 311 307 271 317 240 359 c 0
 219 388 209 420 209 456 c 0
 209 550 291 703 468 703 c 0
 528 703 572 687 607 654 c 0
 611 651 612 650 612 650 c 1
 664 694 l 2
 674 702 674 703 684 703 c 0
 690 703 703 703 703 688 c 0
 703 685 702 683 699 670 c 2
 651 478 l 2
 646 458 644 458 621 458 c 0
 605 458 593 458 593 473 c 0
 593 476 597 500 597 521 c 0
 597 621 541 660 466 660 c 0
 357 660 316 565 316 519 c 0
 316 456 368 443 385 439 c 2
 453 422 l 2
 517 406 548 399 579 362 c 0
 616 317 616 272 616 251 c 0x68
EndSplineSet
Position2: "'cpsp' Capital Spacing lookup 0 subtable" dx=7 dy=0 dh=14 dv=0
EndChar

StartChar: T
Encoding: 84 84 53
Width: 796
GlyphClass: 2
Flags: MW
HStem: 0 47<203 261 595 601.5> 628 47<379.5 456 639 674 639 639>
LayerCount: 2
Fore
SplineSet
842 460 m 2
 838 434 830 434 812 434 c 0
 801 434 784 434 784 453 c 2
 784 453 784 457 786 467 c 0
 788 477 794 516 794 547 c 0
 794 610 771 628 674 628 c 2
 639 628 l 2
 624 627 623 627 619 612 c 2
 479 50 l 1
 499 48 529 47 550 47 c 2
 594 47 l 2
 609 47 626 47 626 29 c 0
 626 0 609 0 595 0 c 2
 398 3 l 1
 205 0 l 2
 201 0 181 0 181 18 c 0
 181 47 199 47 216 47 c 2
 261 47 l 2
 310 47 339 51 343 52 c 2
 486 627 l 1
 470 628 468 628 444 628 c 0
 315 628 287 591 240 455 c 0
 233 435 230 434 210 434 c 0
 200 434 182 434 182 452 c 0
 182 458 194 492 201 512 c 2
 251 656 l 2
 258 675 262 675 284 675 c 2
 840 675 l 2
 856 675 872 675 872 656 c 2
 872 656 872 652 870 641 c 2
 842 460 l 2
EndSplineSet
Position2: "'cpsp' Capital Spacing lookup 0 subtable" dx=7 dy=0 dh=14 dv=0
EndChar

StartChar: U
Encoding: 85 85 54
Width: 881
GlyphClass: 2
Flags: MW
HStem: -17 47<448 518 448 552> 639 47<248.5 256 256 278 545 553.5 732 743.5 953 964>
VStem: 218 128<120.5 150 120.5 186> 708 280<653.5 671.5>
LayerCount: 2
Fore
SplineSet
988 668 m 0
 988 639 971 639 957 639 c 0
 949 639 923 639 900 634 c 0
 871 628 870 625 866 610 c 2
 769 220 l 2
 744 119 646 -17 458 -17 c 0
 312 -17 218 52 218 173 c 0
 218 199 223 224 225 231 c 2
 327 637 l 1
 315 638 289 639 278 639 c 2
 256 639 l 2
 241 639 224 639 224 657 c 0
 224 686 243 686 253 686 c 0
 303 686 356 683 407 683 c 0
 457 683 508 686 557 686 c 0
 568 686 579 681 579 668 c 0
 579 639 562 639 545 639 c 2
 483 638 l 2
 464 636 463 635 459 620 c 2
 358 215 l 2
 351 185 346 167 346 133 c 0
 346 108 350 77 378 54 c 0
 400 37 433 30 463 30 c 0
 573 30 675 93 710 233 c 2
 809 629 l 1
 784 639 748 639 739 639 c 0
 725 639 708 639 708 657 c 0
 708 686 728 686 735 686 c 0
 774 686 815 683 854 683 c 0
 892 683 931 686 968 686 c 0
 979 686 988 679 988 668 c 0
EndSplineSet
Position2: "'cpsp' Capital Spacing lookup 0 subtable" dx=7 dy=0 dh=14 dv=0
EndChar

StartChar: V
Encoding: 86 86 55
Width: 866
GlyphClass: 2
Flags: MW
HStem: -17 21G<412.5 440> 639 47<243 250 250 261 503.5 521 747.5 751.5 945 954.5>
VStem: 218 330<653.5 671.5> 724 255<653.5 671.5>
LayerCount: 2
Fore
SplineSet
979 668 m 0
 979 639 961 639 948 639 c 0
 932 639 883 638 866 613 c 0
 864 611 863 610 857 601 c 2
 476 6 l 2
 461 -17 451 -17 429 -17 c 0
 396 -17 396 -12 392 14 c 2
 308 621 l 2
 306 636 305 636 292 638 c 0
 282 639 271 639 261 639 c 2
 250 639 l 2
 236 639 218 639 218 657 c 0
 218 686 238 686 246 686 c 0
 289 686 335 683 379 683 c 0
 428 683 478 686 526 686 c 0
 537 686 548 681 548 668 c 0
 548 639 531 639 511 639 c 0
 496 639 465 638 446 634 c 1
 511 163 l 1
 808 629 l 1
 784 638 753 639 750 639 c 0
 741 639 724 639 724 657 c 0
 724 686 744 686 751 686 c 0
 788 686 828 683 866 683 c 0
 897 683 930 686 960 686 c 0
 973 686 979 676 979 668 c 0
EndSplineSet
Position2: "'cpsp' Capital Spacing lookup 0 subtable" dx=7 dy=0 dh=14 dv=0
EndChar

StartChar: W
Encoding: 87 87 56
Width: 1160
GlyphClass: 2
Flags: MW
HStem: -17 21G<372.5 396 753.5 775> 639 47<241.5 249 249 256 494.5 512 619.5 627 627 634 872 889.5 1043 1045.5 1242 1249.5>
VStem: 217 323<653.5 671.5> 595 322<653.5 668 653.5 671.5> 1019 255<654 671.5 654 671.5>
LayerCount: 2
Fore
SplineSet
1274 668 m 0
 1274 640 1257 639 1242 639 c 0
 1185 637 1172 623 1160 602 c 2
 810 9 l 2
 795 -16 785 -17 765 -17 c 0
 742 -17 735 -16 732 12 c 2
 692 449 l 1
 431 7 l 2
 417 -17 405 -17 387 -17 c 0
 358 -17 357 -11 355 14 c 2
 298 637 l 1
 279 639 273 639 256 639 c 2
 249 639 l 2
 234 639 217 639 217 657 c 0
 217 686 237 686 245 686 c 0
 286 686 331 683 373 683 c 0
 421 683 471 686 518 686 c 0
 529 686 540 681 540 668 c 0
 540 639 523 639 501 639 c 0
 481 639 455 638 436 634 c 1
 477 185 l 1
 684 536 l 1
 675 637 l 1
 662 638 647 639 634 639 c 2
 627 639 l 2
 612 639 595 639 595 657 c 0
 595 686 614 686 623 686 c 0
 664 686 708 683 750 683 c 0
 798 683 848 686 896 686 c 0
 917 686 917 668 917 668 c 1
 917 639 901 639 878 639 c 0
 858 639 832 637 813 634 c 1
 854 185 l 1
 1116 627 l 1
 1116 628 l 1
 1088 638 1047 639 1044 639 c 0
 1037 639 1019 639 1019 657 c 0
 1019 686 1039 686 1047 686 c 0
 1086 686 1127 683 1167 683 c 0
 1196 683 1227 686 1255 686 c 0
 1268 686 1274 675 1274 668 c 0
EndSplineSet
Position2: "'cpsp' Capital Spacing lookup 0 subtable" dx=7 dy=0 dh=14 dv=0
EndChar

StartChar: X
Encoding: 88 88 57
Width: 866
GlyphClass: 2
Flags: MW
HStem: 0 47<92.5 102 92.5 104 330 333 501 507 768 780 780 787.5> 639 47<264.5 272 272 284 545 552 660.5 664.5 889 902>
VStem: 66 290<15.5 32.5> 637 290<653.5 671.5>
LayerCount: 2
Fore
SplineSet
812 29 m 0
 812 0 794 0 784 0 c 0
 740 0 694 3 649 3 c 0
 600 3 549 0 500 0 c 0
 480 0 478 13 478 18 c 0
 478 46 497 47 505 47 c 0
 509 47 537 48 568 54 c 1
 476 281 l 1
 271 58 l 1
 297 48 326 47 334 47 c 0
 338 47 356 46 356 29 c 0
 356 0 338 0 328 0 c 0
 285 0 240 3 197 3 c 0
 160 3 122 0 86 0 c 0
 69 0 66 13 66 18 c 0
 66 47 83 47 102 47 c 0
 170 48 199 61 222 85 c 2
 454 337 l 1
 338 623 l 2
 333 635 332 636 317 638 c 0
 308 639 293 639 284 639 c 2
 272 639 l 2
 257 639 240 639 240 657 c 0
 240 686 260 686 268 686 c 0
 312 686 358 683 403 683 c 0
 452 683 503 686 552 686 c 0
 564 686 574 681 574 668 c 0
 574 639 557 639 547 639 c 0
 543 639 518 639 484 632 c 1
 558 449 l 1
 723 628 l 1
 700 637 666 639 663 639 c 0
 654 639 637 640 637 657 c 0
 637 686 656 686 665 686 c 0
 708 686 753 683 796 683 c 0
 833 683 871 686 907 686 c 0
 919 686 927 679 927 668 c 0
 927 639 911 639 893 639 c 0
 829 639 795 627 771 601 c 2
 580 394 l 1
 714 63 l 2
 719 51 720 50 735 48 c 0
 744 47 759 47 768 47 c 2
 780 47 l 2
 795 47 812 47 812 29 c 0
EndSplineSet
Position2: "'cpsp' Capital Spacing lookup 0 subtable" dx=7 dy=0 dh=14 dv=0
EndChar

StartChar: Y
Encoding: 89 89 58
Width: 866
GlyphClass: 2
Flags: MW
HStem: 0 47<299 310 560.5 582 582 589.5> 639 47<237 244 244 256 508.5 526.5 751 761.5 955 961>
VStem: 727 258<653.5 671.5>
LayerCount: 2
Fore
SplineSet
985 668 m 0
 985 639 967 639 955 639 c 0
 882 638 866 620 848 599 c 2
 567 274 l 1
 511 49 l 1
 523 48 549 47 560 47 c 2
 582 47 l 2
 597 47 614 47 614 29 c 0
 614 0 595 0 585 0 c 0
 536 0 484 3 434 3 c 0
 385 3 334 0 286 0 c 0
 275 0 264 5 264 18 c 0
 264 47 282 47 299 47 c 2
 321 47 l 2
 332 47 350 47 361 48 c 0
 380 51 381 52 385 66 c 2
 437 274 l 1
 309 623 l 2
 304 635 303 636 289 638 c 0
 280 639 265 639 256 639 c 2
 244 639 l 2
 230 639 212 639 212 657 c 0
 212 686 232 686 240 686 c 0
 285 686 332 683 378 683 c 0
 428 683 480 686 529 686 c 0
 539 686 551 682 551 668 c 0
 551 639 533 639 520 639 c 0
 497 639 483 638 459 635 c 1
 562 351 l 1
 803 631 l 1
 787 637 770 639 753 639 c 0
 745 639 727 639 727 657 c 0
 727 686 747 686 755 686 c 0
 792 686 832 683 870 683 c 0
 902 683 935 686 966 686 c 0
 979 686 985 676 985 668 c 0
EndSplineSet
Position2: "'cpsp' Capital Spacing lookup 0 subtable" dx=7 dy=0 dh=14 dv=0
EndChar

StartChar: Z
Encoding: 90 90 59
Width: 709
GlyphClass: 2
Flags: MW
HStem: 0 51<259 377 377 466.5> 639 47<450.5 513 513 624 315 773>
LayerCount: 2
Fore
SplineSet
688 251 m 2
 615 21 l 2
 608 0 602 0 581 0 c 2
 122 0 l 2
 105 0 94 0 94 14 c 0
 94 32 103 42 110 50 c 2
 624 639 l 1
 513 639 l 2
 388 639 319 586 280 470 c 0
 272 447 271 445 249 445 c 0
 239 445 221 445 221 463 c 1
 221 463 225 479 226 481 c 2
 281 666 l 2
 287 686 295 686 315 686 c 2
 759 686 l 2
 774 686 786 686 786 672 c 0
 786 660 781 648 773 639 c 2
 259 51 l 1
 377 51 l 2
 556 51 598 155 632 259 c 0
 640 282 641 284 663 284 c 0
 673 284 691 284 691 266 c 0
 691 263 689 254 688 251 c 2
EndSplineSet
Position2: "'cpsp' Capital Spacing lookup 0 subtable" dx=7 dy=0 dh=14 dv=0
EndChar

StartChar: bracketleft
Encoding: 91 91 60
Width: 356
GlyphClass: 2
Flags: MW
HStem: -250 61<113.5 218 161 212> 689 61<381 447 381 381>
VStem: 89 161<-241 -198>
LayerCount: 2
Fore
SplineSet
242 -241 m 0
 237 -250 229 -250 212 -250 c 2
 121 -250 l 2
 106 -250 89 -250 89 -232 c 0
 89 -227 91 -221 92 -216 c 2
 328 727 l 2
 334 750 339 750 362 750 c 2
 453 750 l 2
 468 750 485 750 485 732 c 0
 485 727 478 702 476 699 c 0
 471 689 464 689 447 689 c 2
 381 689 l 1
 161 -189 l 1
 218 -189 l 2
 233 -189 250 -189 250 -207 c 0
 250 -213 244 -236 242 -241 c 0
EndSplineSet
EndChar

StartChar: backslash
Encoding: 92 92 61
Width: 575
GlyphClass: 2
Flags: MW
HStem: 730 20G<275 292.5>
LayerCount: 2
Fore
SplineSet
455 -219 m 0
 450 -239 432 -250 418 -250 c 0
 397 -250 394 -235 392 -220 c 2
 245 699 l 2
 243 712 242 713 244 719 c 0
 249 739 268 750 282 750 c 0
 303 750 304 737 307 720 c 2
 454 -199 l 2
 456 -212 457 -213 455 -219 c 0
EndSplineSet
EndChar

StartChar: bracketright
Encoding: 93 93 62
Width: 356
GlyphClass: 2
Flags: MW
HStem: -250 61<20.5 100 34 100 34 119> 689 61<255.5 360 269 320>
VStem: 231 161<698 741>
LayerCount: 2
Fore
SplineSet
389 716 m 2
 153 -227 l 2
 147 -250 142 -250 119 -250 c 2
 28 -250 l 2
 13 -250 -4 -250 -4 -232 c 0
 -4 -227 3 -202 5 -199 c 0
 10 -189 17 -189 34 -189 c 2
 100 -189 l 1
 320 689 l 1
 263 689 l 2
 248 689 231 689 231 707 c 0
 231 713 237 736 239 741 c 0
 244 750 252 750 269 750 c 2
 360 750 l 2
 375 750 392 750 392 732 c 0
 392 727 390 721 389 716 c 2
EndSplineSet
EndChar

StartChar: asciicircum
Encoding: 94 94 63
Width: 556
GlyphClass: 2
Flags: MW
HStem: 562 21G<147 147 690 690>
LayerCount: 2
Fore
SplineSet
707 584 m 1
 690 562 l 1
 448 685 l 1
 147 562 l 1
 141 584 l 1
 464 744 l 1
 707 584 l 1
EndSplineSet
EndChar

StartChar: underscore
Encoding: 95 95 64
Width: 866
GlyphClass: 2
Flags: MW
HStem: -153 56<-46 841 -24 827>
LayerCount: 2
Fore
SplineSet
862 -125 m 0
 858 -140 843 -153 827 -153 c 2
 -38 -153 l 2
 -54 -153 -63 -140 -59 -125 c 0
 -55 -110 -40 -97 -24 -97 c 2
 841 -97 l 2
 857 -97 866 -110 862 -125 c 0
EndSplineSet
EndChar

StartChar: grave
Encoding: 96 96 65
Width: 591
GlyphClass: 2
Flags: MW
HStem: 502 21G<451 462> 679 20G<379.5 403>
LayerCount: 2
Fore
SplineSet
499 535 m 0
 496 529 470 502 454 502 c 0
 448 502 445 505 441 508 c 2
 333 597 l 2
 323 605 305 620 321 651 c 0
 335 679 367 699 392 699 c 0
 414 699 421 687 431 668 c 2
 496 554 l 2
 500 549 502 542 499 535 c 0
EndSplineSet
EndChar

StartChar: a
Encoding: 97 97 66
Width: 591
GlyphClass: 2
Flags: MW
HStem: -8 36<248.5 275.5 248.5 286.5 489 512> 416 36<351 377 280 381.5>
VStem: 96 107<92.5 126 70.5 219>
LayerCount: 2
Fore
SplineSet
615 148 m 0
 615 144 602 88 576 46 c 0
 563 26 538 -8 491 -8 c 0
 452 -8 407 8 388 43 c 1
 364 24 317 -8 256 -8 c 0
 180 -8 96 33 96 152 c 0
 96 286 196 452 364 452 c 0
 390 452 429 447 461 414 c 1
 474 427 491 435 508 435 c 0
 536 435 553 416 553 393 c 0
 553 389 553 387 549 372 c 2
 482 102 l 2
 478 86 476 78 476 59 c 0
 476 36 483 28 495 28 c 0
 529 28 547 103 555 136 c 0
 562 161 563 162 587 162 c 0
 602 162 615 162 615 148 c 0
376 100 m 1
 377 108 377 111 379 118 c 2
 438 354 l 1
 427 394 399 416 364 416 c 0
 338 416 283 401 249 304 c 0
 238 276 203 153 203 99 c 0
 203 42 237 28 260 28 c 0
 291 28 333 43 376 100 c 1
EndSplineSet
Substitution2: "'cv02' Character Variants 02 lookup 16 subtable" a.end
EndChar

StartChar: b
Encoding: 98 98 67
Width: 532
GlyphClass: 2
Flags: MW
HStem: -8 36<239 279.5 239 353.5> 416 36<354.5 384.5> 639 51
VStem: 112 96<100 124 100 155> 430 107<318 351.5 226 373.5>
LayerCount: 2
Fore
SplineSet
537 292 m 0
 537 160 439 -8 268 -8 c 0
 196 -8 112 29 112 150 c 0
 112 160 112 186 121 222 c 2
 224 637 l 1
 212 638 194 639 182 639 c 0
 173 639 155 639 155 657 c 0
 155 686 175 686 186 687 c 2
 309 693 l 2
 323 694 341 695 341 676 c 0
 341 671 339 665 338 660 c 2
 279 424 l 1
 295 434 332 452 377 452 c 0
 453 452 537 411 537 292 c 0
384 140 m 0
 395 168 430 291 430 345 c 0
 430 402 396 416 373 416 c 0
 335 416 295 391 269 359 c 0
 259 348 259 346 252 320 c 0
 245 289 238 264 230 228 c 0
 214 167 208 141 208 107 c 0
 208 93 208 28 270 28 c 0
 289 28 348 37 384 140 c 0
EndSplineSet
EndChar

StartChar: c
Encoding: 99 99 68
Width: 532
GlyphClass: 2
Flags: MW
HStem: -8 36<274.5 309.5 274.5 314> 416 36<387 407.5>
VStem: 107 109<119 135.5 87.5 225> 408 122<320.5 384.5>
LayerCount: 2
Fore
SplineSet
536 86 m 0
 536 74 497 35 443 14 c 0
 389 -6 327 -8 301 -8 c 0
 154 -8 107 78 107 160 c 0
 107 290 213 452 403 452 c 0
 486 452 530 409 530 360 c 0
 530 317 500 282 458 282 c 0
 416 282 408 313 408 328 c 0
 408 331 409 377 459 395 c 1
 440 415 413 416 402 416 c 0
 372 416 310 401 271 329 c 0
 244 277 216 155 216 116 c 0
 216 59 247 28 302 28 c 0
 317 28 418 28 492 111 c 0
 499 118 503 118 506 118 c 0
 516 118 536 94 536 86 c 0
EndSplineSet
EndChar

StartChar: d
Encoding: 100 100 69
Width: 591
GlyphClass: 2
Flags: MW
HStem: -8 36<258.5 285.5 258.5 296.5 499 522> 416 36<361 385.5 290 391.5> 639 51
VStem: 106 107<92.5 126 70.5 219> 449 186<648 685.5>
LayerCount: 2
Fore
SplineSet
625 148 m 0
 625 144 612 88 586 46 c 0
 573 26 548 -8 501 -8 c 0
 462 -8 417 8 398 43 c 1
 374 24 327 -8 266 -8 c 0
 190 -8 106 33 106 152 c 0
 106 286 206 452 374 452 c 0
 397 452 433 448 465 420 c 1
 518 637 l 1
 506 638 488 639 476 639 c 0
 467 639 449 639 449 657 c 0
 449 686 469 686 480 687 c 2
 603 693 l 2
 617 694 635 695 635 676 c 0
 635 671 633 665 632 660 c 2
 492 102 l 2
 488 86 486 78 486 59 c 0
 486 36 493 28 505 28 c 0
 539 28 557 103 565 136 c 0
 572 161 573 162 597 162 c 0
 612 162 625 162 625 148 c 0
386 100 m 1
 387 108 387 111 389 118 c 2
 448 354 l 1
 437 394 409 416 374 416 c 0
 348 416 293 401 259 304 c 0
 248 276 213 153 213 99 c 0
 213 42 247 28 270 28 c 0
 301 28 343 43 386 100 c 1
EndSplineSet
EndChar

StartChar: e
Encoding: 101 101 70
Width: 532
GlyphClass: 2
Flags: MW
HStem: -8 36<275 310 275 317.5> 218 36<243 273.5 243 274 234 273.5> 416 36<385 423>
VStem: 110 108<113 132.5 90.5 244> 467 65<305.5 373>
LayerCount: 2
Fore
SplineSet
536 86 m 0
 536 74 497 35 443 14 c 0
 392 -5 333 -8 302 -8 c 0
 177 -8 110 59 110 167 c 0
 110 321 229 452 402 452 c 0
 476 452 532 416 532 356 c 0
 532 218 334 218 274 218 c 2
 234 218 l 1
 225 184 218 145 218 120 c 0
 218 61 247 28 303 28 c 0
 317 28 418 28 492 111 c 0
 499 118 503 118 506 118 c 0
 516 118 536 94 536 86 c 0
467 357 m 0
 467 389 444 416 402 416 c 0
 368 416 324 400 296 366 c 0
 267 334 257 304 243 254 c 1
 304 254 467 254 467 357 c 0
EndSplineSet
Substitution2: "'cv02' Character Variants 02 lookup 16 subtable" e.end
EndChar

StartChar: f
Encoding: 102 102 71
Width: 400
GlyphClass: 2
Flags: MW
HStem: -202 36<91 107.5 91 108.5> 397 47<142.5 245 153 236 352 453> 666 36<418 427>
VStem: -19 121<-102 -101> 417 121<600.5 608>
LayerCount: 2
Fore
SplineSet
538 623 m 0
 538 578 502 548 467 548 c 0
 437 548 417 567 417 594 c 0
 417 622 435 646 457 658 c 1
 443 665 429 666 425 666 c 0
 411 666 396 654 391 641 c 0
 384 627 360 491 352 444 c 1
 456 444 l 2
 470 444 488 444 488 426 c 0
 488 397 470 397 453 397 c 2
 343 397 l 1
 283 73 l 2
 275 29 270 10 257 -33 c 0
 210 -181 127 -202 90 -202 c 0
 31 -202 -19 -172 -19 -123 c 0
 -19 -79 16 -48 52 -48 c 0
 82 -48 102 -67 102 -94 c 0
 102 -110 94 -141 61 -158 c 1
 75 -166 91 -166 91 -166 c 1
 124 -166 138 -113 141 -98 c 0
 154 -48 156 -37 166 16 c 2
 236 397 l 1
 150 397 l 2
 135 397 118 397 118 415 c 0
 118 444 136 444 153 444 c 2
 245 444 l 1
 263 542 l 2
 272 593 301 702 425 702 c 0
 491 702 538 670 538 623 c 0
EndSplineSet
EndChar

StartChar: g
Encoding: 103 103 72
Width: 532
GlyphClass: 2
Flags: MW
HStem: -202 36<200.5 241 200.5 272.5> 0 36<246.5 285> 416 36<361 389>
VStem: 59 121<-110.5 -109.5>
LayerCount: 2
Fore
SplineSet
451 -64 m 2
 429 -151 333 -202 212 -202 c 0
 138 -202 59 -194 59 -132 c 0
 59 -87 95 -58 130 -58 c 0
 161 -58 180 -79 180 -104 c 0
 180 -117 173 -143 152 -160 c 1
 164 -163 187 -166 214 -166 c 0
 268 -166 325 -137 349 -44 c 2
 366 27 l 1
 332 8 301 0 269 0 c 0
 179 0 107 52 107 158 c 0
 107 287 204 452 374 452 c 0
 410 452 442 442 471 415 c 1
 480 424 491 435 518 435 c 0
 546 435 563 416 563 393 c 2
 563 393 563 385 559 369 c 2
 451 -64 l 2
389 117 m 2
 448 356 l 1
 436 400 404 416 374 416 c 0
 348 416 297 401 264 318 c 0
 250 283 215 162 215 107 c 0
 215 85 220 36 273 36 c 0
 321 36 380 82 389 117 c 2
EndSplineSet
EndChar

StartChar: h
Encoding: 104 104 73
Width: 591
GlyphClass: 2
Flags: MW
HStem: -8 36<474.5 505.5 474.5 524> 416 36<381.5 421.5> 639 51
VStem: 155 186<648 685.5> 367 96<53 56.5 37 88.5>
LayerCount: 2
Fore
SplineSet
625 148 m 0
 625 127 576 -8 472 -8 c 0
 418 -8 367 25 367 81 c 0
 367 96 370 106 379 131 c 0
 397 176 443 299 443 359 c 0
 443 378 443 416 400 416 c 0
 309 416 253 322 246 294 c 2
 184 45 l 2
 172 -3 134 -8 122 -8 c 0
 95 -8 76 10 76 35 c 0
 76 40 76 42 80 57 c 2
 224 637 l 1
 212 638 194 639 182 639 c 0
 173 639 155 639 155 657 c 0
 155 686 175 686 186 687 c 2
 309 693 l 2
 323 694 341 695 341 676 c 0
 341 671 339 665 338 660 c 2
 273 401 l 1
 316 436 356 452 407 452 c 0
 486 452 545 422 545 339 c 0
 545 282 500 164 486 127 c 0
 473 93 463 67 463 46 c 0
 463 28 472 28 477 28 c 0
 534 28 561 123 569 149 c 0
 573 162 578 162 597 162 c 0
 612 162 625 162 625 148 c 0
EndSplineSet
EndChar

StartChar: i
Encoding: 105 105 74
Width: 356
GlyphClass: 2
Flags: MW
HStem: -8 36<239.5 270.5 239.5 289> 416 36<196.5 227.5> 527 147<319 338.5>
VStem: 132 96<37 88.5> 239 96<355.5 407>
LayerCount: 2
Fore
SplineSet
390 148 m 0
 390 127 341 -8 237 -8 c 0
 183 -8 132 25 132 81 c 0
 132 96 135 104 141 120 c 2
 231 358 l 2
 232 360 239 385 239 398 c 0
 239 416 230 416 225 416 c 0
 168 416 141 321 133 295 c 0
 129 282 124 282 105 282 c 0
 90 282 77 282 77 296 c 0
 77 317 126 452 230 452 c 0
 284 452 335 419 335 363 c 0
 335 348 332 340 326 324 c 2
 236 86 l 2
 235 84 228 59 228 46 c 0
 228 28 237 28 242 28 c 0
 299 28 326 123 334 149 c 0
 338 162 343 162 362 162 c 0
 377 162 390 162 390 148 c 0
404 614 m 0
 404 571 362 527 315 527 c 0
 277 527 253 555 253 587 c 0
 253 631 296 674 342 674 c 0
 383 674 404 642 404 614 c 0
EndSplineSet
EndChar

StartChar: j
Encoding: 106 106 75
Width: 356
GlyphClass: 2
Flags: MW
HStem: -202 36<70 103 70 116.5> 416 36<240 257.5> 527 147<319 338.5>
VStem: -29 121<-114 -111> 274 101<375.5 386.5 352 400>
LayerCount: 2
Fore
SplineSet
277 -52 m 2
 255 -140 160 -202 73 -202 c 0
 15 -202 -29 -175 -29 -130 c 0
 -29 -92 3 -58 42 -58 c 0
 73 -58 92 -79 92 -104 c 0
 92 -124 79 -151 58 -164 c 1
 58 -164 67 -166 73 -166 c 0
 133 -166 163 -77 171 -47 c 2
 268 342 l 2
 272 358 274 366 274 385 c 0
 274 415 262 416 253 416 c 0
 227 416 178 398 136 299 c 0
 128 283 127 282 105 282 c 0
 90 282 77 282 77 296 c 0
 77 313 143 452 258 452 c 0
 318 452 375 418 375 355 c 0
 375 349 375 342 371 326 c 2
 277 -52 l 2
404 614 m 0
 404 571 362 527 315 527 c 0
 277 527 253 555 253 587 c 0
 253 631 296 674 342 674 c 0
 383 674 404 642 404 614 c 0
EndSplineSet
EndChar

StartChar: k
Encoding: 107 107 76
Width: 532
GlyphClass: 2
Flags: MW
HStem: -8 36<430.5 453 430.5 480.5> 416 36<469 489.5> 639 51
VStem: 318 107<139 166.5> 439 123<340 348.5>
LayerCount: 2
Fore
SplineSet
566 148 m 0
 566 140 531 -8 430 -8 c 0
 365 -8 312 34 312 94 c 0
 312 105 313 110 315 119 c 0
 318 130 318 135 318 140 c 0
 318 193 256 209 226 214 c 1
 181 33 l 2
 170 5 143 -8 122 -8 c 0
 95 -8 76 10 76 35 c 0
 76 40 76 42 80 57 c 2
 224 637 l 1
 212 638 194 639 182 639 c 0
 173 639 155 639 155 657 c 0
 155 686 175 686 186 687 c 2
 309 693 l 2
 323 694 341 695 341 676 c 0
 341 671 339 665 338 660 c 2
 241 274 l 1
 265 289 282 303 322 345 c 0
 386 413 435 452 491 452 c 0
 548 452 562 403 562 373 c 0
 562 307 518 286 489 286 c 0
 458 286 439 307 439 332 c 0
 439 365 465 399 506 404 c 1
 503 416 491 416 488 416 c 0
 450 416 407 391 339 315 c 0
 337 314 303 277 267 251 c 1
 339 243 425 220 425 144 c 0
 425 134 423 124 421 114 c 0
 413 82 413 62 413 62 c 1
 413 30 426 28 435 28 c 0
 471 28 491 76 506 135 c 0
 513 161 514 162 538 162 c 0
 553 162 566 162 566 148 c 0
EndSplineSet
Substitution2: "'cv01' Character Variants 01 lookup 18 subtable" k.alt
EndChar

StartChar: l
Encoding: 108 108 77
Width: 297
GlyphClass: 2
Flags: MW
HStem: -8 36<205 228 205 230.5> 639 51
VStem: 91 101<57 68.5 47.5 92>
LayerCount: 2
Fore
SplineSet
331 148 m 0
 331 144 318 88 292 46 c 0
 279 26 254 -8 207 -8 c 0
 151 -8 91 25 91 89 c 0
 91 95 91 102 95 118 c 2
 224 637 l 1
 212 638 194 639 182 639 c 0
 173 639 155 639 155 657 c 0
 155 686 175 686 186 687 c 2
 309 693 l 2
 323 694 341 695 341 676 c 0
 341 671 339 665 338 660 c 2
 198 102 l 2
 194 86 192 78 192 59 c 0
 192 36 199 28 211 28 c 0
 245 28 263 103 271 136 c 0
 278 161 279 162 303 162 c 0
 318 162 331 162 331 148 c 0
EndSplineSet
EndChar

StartChar: m
Encoding: 109 109 78
Width: 944
GlyphClass: 2
Flags: MW
HStem: -8 36<827.5 858.5 827.5 877> 416 36<180 203 455.5 476.5 720 774.5>
VStem: 720 96<53 56.5 37 88.5>
LayerCount: 2
Fore
SplineSet
978 148 m 0
 978 127 929 -8 825 -8 c 0
 771 -8 720 25 720 81 c 0
 720 96 723 106 732 131 c 0
 750 176 796 299 796 359 c 0
 796 378 796 416 753 416 c 0
 663 416 606 323 599 294 c 2
 538 48 l 2
 525 -3 486 -8 474 -8 c 0
 453 -8 429 4 429 35 c 0
 429 42 439 82 445 106 c 2
 487 274 l 2
 498 317 502 334 502 359 c 0
 502 378 502 416 459 416 c 0
 368 416 312 323 305 294 c 2
 243 46 l 2
 230 -6 187 -8 180 -8 c 0
 159 -8 135 4 135 35 c 0
 135 40 135 42 139 57 c 2
 210 342 l 2
 214 358 216 366 216 385 c 0
 216 408 209 416 197 416 c 0
 163 416 145 341 137 308 c 0
 130 283 129 282 105 282 c 0
 90 282 77 282 77 296 c 0
 77 300 90 356 116 398 c 0
 129 418 154 452 201 452 c 0
 233 452 293 440 313 383 c 1
 379 452 445 452 466 452 c 0
 487 452 578 452 600 376 c 1
 634 410 680 452 760 452 c 0
 839 452 898 422 898 339 c 0
 898 282 853 164 839 127 c 0
 826 93 816 67 816 46 c 0
 816 28 825 28 830 28 c 0
 887 28 914 123 922 149 c 0
 926 162 931 162 950 162 c 0
 965 162 978 162 978 148 c 0
EndSplineSet
Substitution2: "'cv02' Character Variants 02 lookup 16 subtable" m.end
EndChar

StartChar: n
Encoding: 110 110 79
Width: 650
GlyphClass: 2
Flags: MW
HStem: -8 36<533.5 564.5 533.5 583> 416 36<180 203 455.5 480.5>
VStem: 426 96<53 56.5 37 88.5>
LayerCount: 2
Fore
SplineSet
684 148 m 0
 684 127 635 -8 531 -8 c 0
 477 -8 426 25 426 81 c 0
 426 96 429 106 438 131 c 0
 456 176 502 299 502 359 c 0
 502 378 502 416 459 416 c 0
 368 416 312 323 305 294 c 2
 243 46 l 2
 230 -6 187 -8 180 -8 c 0
 159 -8 135 4 135 35 c 0
 135 40 135 42 139 57 c 2
 210 342 l 2
 214 358 216 366 216 385 c 0
 216 408 209 416 197 416 c 0
 163 416 145 341 137 308 c 0
 130 283 129 282 105 282 c 0
 90 282 77 282 77 296 c 0
 77 300 90 356 116 398 c 0
 129 418 154 452 201 452 c 0
 233 452 293 440 313 383 c 1
 379 452 445 452 466 452 c 0
 545 452 604 422 604 339 c 0
 604 282 559 164 545 127 c 0
 532 93 522 67 522 46 c 0
 522 28 531 28 536 28 c 0
 593 28 620 123 628 149 c 0
 632 162 637 162 656 162 c 0
 671 162 684 162 684 148 c 0
EndSplineSet
Substitution2: "'cv02' Character Variants 02 lookup 16 subtable" n.end
EndChar

StartChar: o
Encoding: 111 111 80
Width: 591
GlyphClass: 2
Flags: MW
HStem: -8 36<281.5 324.5 281.5 395.5> 416 36<377.5 420.5>
VStem: 107 109<108.5 135.5 80.5 222.5> 486 109<308.5 335.5 221 363.5>
LayerCount: 2
Fore
SplineSet
595 284 m 0
 595 158 494 -8 297 -8 c 0
 178 -8 107 57 107 160 c 0
 107 285 207 452 405 452 c 0
 524 452 595 387 595 284 c 0
435 124 m 0
 460 177 486 289 486 328 c 0
 486 399 438 416 403 416 c 0
 352 416 296 383 267 320 c 0
 242 267 216 155 216 116 c 0
 216 45 264 28 299 28 c 0
 350 28 406 61 435 124 c 0
EndSplineSet
EndChar

StartChar: p
Encoding: 112 112 81
Width: 591
GlyphClass: 2
Flags: MW
HStem: -194 47<49.5 58 231 241.5> -8 36<316.5 341 310.5 412> 416 36<180 203 416.5 443.5>
VStem: 489 107<318 351.5 225 373.5>
LayerCount: 2
Fore
SplineSet
596 292 m 0
 596 158 496 -8 328 -8 c 0
 305 -8 269 -4 237 24 c 1
 195 -146 l 1
 208 -147 224 -147 238 -147 c 0
 248 -147 265 -148 265 -165 c 0
 265 -194 245 -194 238 -194 c 0
 204 -194 168 -191 133 -191 c 0
 104 -191 72 -194 44 -194 c 0
 35 -194 25 -188 25 -176 c 0
 25 -147 42 -147 57 -147 c 0
 87 -147 88 -146 92 -131 c 2
 210 342 l 2
 214 358 216 366 216 385 c 0
 216 408 209 416 197 416 c 0
 163 416 145 341 137 308 c 0
 130 283 129 282 105 282 c 0
 90 282 77 282 77 296 c 0
 77 300 90 356 116 398 c 0
 129 418 154 452 201 452 c 0
 240 452 285 436 304 401 c 1
 328 420 375 452 436 452 c 0
 512 452 596 411 596 292 c 0
443 140 m 0
 454 168 489 291 489 345 c 0
 489 402 455 416 432 416 c 0
 401 416 359 401 316 344 c 1
 315 336 315 333 313 326 c 2
 254 90 l 1
 265 50 293 28 328 28 c 0
 354 28 409 43 443 140 c 0
EndSplineSet
EndChar

StartChar: q
Encoding: 113 113 82
Width: 532
GlyphClass: 2
Flags: MW
HStem: -194 47<268 277 268 278 466 476.5> -8 36<258.5 288.5> 416 36<361 387 290 391.5>
VStem: 106 107<92.5 126 70.5 219> 241 259<-178.5 -161.5>
LayerCount: 2
Fore
SplineSet
500 -165 m 0
 500 -194 480 -194 473 -194 c 0
 438 -194 401 -191 365 -191 c 0
 331 -191 295 -194 261 -194 c 0
 244 -194 241 -181 241 -176 c 0
 241 -147 259 -147 277 -147 c 2
 277 -147 298 -147 311 -146 c 0
 323 -145 324 -144 327 -130 c 2
 364 20 l 1
 348 10 311 -8 266 -8 c 0
 190 -8 106 33 106 152 c 0
 106 286 206 452 374 452 c 0
 400 452 439 447 471 414 c 1
 500 439 556 452 556 452 c 1
 571 452 574 438 574 434 c 0
 574 430 573 424 572 420 c 2
 430 -146 l 1
 443 -147 459 -147 473 -147 c 0
 483 -147 500 -148 500 -165 c 0
387 110 m 2
 448 354 l 1
 437 394 409 416 374 416 c 0
 348 416 293 401 259 304 c 0
 248 276 213 153 213 99 c 0
 213 42 247 28 270 28 c 0
 320 28 378 75 387 110 c 2
EndSplineSet
EndChar

StartChar: r
Encoding: 114 114 83
Width: 502
GlyphClass: 2
Flags: MW
HStem: -8 21G<169.5 183.5> 416 36<180 203 416 437.5>
VStem: 440 122<319.5 389.5>
LayerCount: 2
Fore
SplineSet
562 363 m 0
 562 318 528 286 490 286 c 0
 459 286 440 307 440 332 c 0
 440 336 441 378 487 399 c 1
 467 415 443 416 432 416 c 0
 362 416 317 341 311 318 c 2
 243 46 l 2
 230 -6 187 -8 180 -8 c 0
 159 -8 135 4 135 35 c 0
 135 40 135 42 139 57 c 2
 210 342 l 2
 214 358 216 366 216 385 c 0
 216 408 209 416 197 416 c 0
 163 416 145 341 137 308 c 0
 130 283 129 282 105 282 c 0
 90 282 77 282 77 296 c 0
 77 300 90 356 116 398 c 0
 129 418 154 452 201 452 c 0
 250 452 290 429 307 398 c 1
 350 441 397 452 435 452 c 0
 508 452 562 416 562 363 c 0
EndSplineSet
Substitution2: "'cv02' Character Variants 02 lookup 16 subtable" r.end
EndChar

StartChar: s
Encoding: 115 115 84
Width: 487
GlyphClass: 2
Flags: MW
HStem: -8 36<243.5 261> 416 36<312 354>
VStem: 85 121<100 115.5> 389 97
LayerCount: 2
Fore
SplineSet
465 164 m 0
 465 131 445 68 393 31 c 0
 339 -7 275 -8 247 -8 c 0
 150 -8 85 28 85 91 c 0
 85 140 120 169 157 169 c 0
 174 169 206 161 206 123 c 0
 206 77 164 58 157 55 c 1
 190 28 237 28 250 28 c 0
 389 28 389 124 389 124 c 1
 389 170 336 180 284 190 c 0
 253 196 167 213 167 298 c 0
 167 329 187 382 220 410 c 0
 238 425 273 452 351 452 c 0
 430 452 486 419 486 364 c 0
 486 315 449 295 424 295 c 0
 399 295 380 311 380 336 c 0
 380 339 380 375 418 392 c 1
 395 416 359 416 349 416 c 0
 243 416 243 338 243 338 c 1
 243 301 284 293 314 287 c 0
 367 277 392 272 421 249 c 0
 458 220 465 186 465 164 c 0
EndSplineSet
Substitution2: "'hist' Historical Forms lookup 19 subtable" longs
EndChar

StartChar: t
Encoding: 116 116 85
Width: 385
GlyphClass: 2
Flags: MW
HStem: -8 36<238.5 256 238.5 295.5> 397 47<115.5 207 126 195 314 382> 623 20G<299.5 320>
VStem: 91 131
LayerCount: 2
Fore
SplineSet
419 148 m 0
 419 131 353 -8 238 -8 c 0
 178 -8 121 26 121 89 c 0
 121 95 121 102 125 118 c 2
 195 397 l 1
 123 397 l 2
 108 397 91 397 91 415 c 0
 91 444 108 444 126 444 c 2
 207 444 l 1
 243 590 l 2
 255 637 293 643 306 643 c 0
 334 643 351 624 351 601 c 0
 351 593 340 549 333 523 c 2
 314 444 l 1
 385 444 l 2
 399 444 416 444 416 426 c 0
 416 397 399 397 382 397 c 2
 302 397 l 1
 228 102 l 2
 224 86 222 78 222 59 c 0
 222 29 234 28 243 28 c 0
 269 28 318 46 360 145 c 0
 368 161 369 162 391 162 c 0
 406 162 419 162 419 148 c 0
EndSplineSet
EndChar

StartChar: u
Encoding: 117 117 86
Width: 621
GlyphClass: 2
Flags: MW
HStem: -8 36<290 323 529 552> 416 36<196.5 227.5>
VStem: 239 96<387.5 391 354.5 407>
LayerCount: 2
Fore
SplineSet
655 148 m 0
 655 144 642 88 616 46 c 0
 603 26 578 -8 531 -8 c 0
 492 -8 447 8 428 43 c 1
 379 -3 337 -8 309 -8 c 0
 226 -8 161 27 161 118 c 0
 161 174 189 246 221 332 c 0
 227 346 239 377 239 398 c 0
 239 416 230 416 225 416 c 0
 168 416 141 321 133 295 c 0
 129 282 124 282 105 282 c 0
 90 282 77 282 77 296 c 0
 77 317 126 452 230 452 c 0
 284 452 335 419 335 363 c 0
 335 346 330 334 321 309 c 0
 297 246 263 157 263 97 c 0
 263 75 265 28 315 28 c 0
 345 28 370 44 384 57 c 0
 412 85 413 89 417 107 c 2
 486 388 l 2
 498 438 537 444 550 444 c 0
 571 444 595 432 595 401 c 0
 595 396 595 394 591 379 c 2
 522 102 l 2
 518 86 516 78 516 59 c 0
 516 36 523 28 535 28 c 0
 569 28 587 103 595 136 c 0
 602 161 603 162 627 162 c 0
 642 162 655 162 655 148 c 0
EndSplineSet
EndChar

StartChar: v
Encoding: 118 118 87
Width: 532
GlyphClass: 2
Flags: MW
HStem: -8 36<300 384 300 410> 416 36<196.5 227.5>
VStem: 239 96<387.5 391 354.5 407> 419 136<369 399>
LayerCount: 2
Fore
SplineSet
555 365 m 0
 555 313 499 -8 321 -8 c 0
 259 -8 162 9 162 122 c 0
 162 173 183 231 221 332 c 0
 227 346 239 377 239 398 c 0
 239 416 230 416 225 416 c 0
 168 416 141 321 133 295 c 0
 129 282 124 282 105 282 c 0
 90 282 77 282 77 296 c 0
 77 317 126 452 230 452 c 0
 284 452 335 419 335 363 c 0
 335 346 331 335 321 310 c 0
 296 244 264 159 264 103 c 0
 264 72 272 28 328 28 c 0
 440 28 482 270 482 274 c 0
 482 304 463 325 443 339 c 0
 433 347 419 357 419 381 c 0
 419 417 456 453 491 453 c 0
 510 453 555 439 555 365 c 0
EndSplineSet
EndChar

StartChar: w
Encoding: 119 119 88
Width: 768
GlyphClass: 2
Flags: MW
HStem: -8 36<300.5 352.5 300.5 354.5 551 599.5> 416 36<196.5 227.5>
VStem: 239 96<387.5 391 354.5 407> 412 102<117 120.5 87.5 136> 655 136<369 399>
LayerCount: 2
Fore
SplineSet
791 365 m 0
 791 315 759 191 729 122 c 0
 694 42 645 -8 572 -8 c 0
 530 -8 470 0 436 43 c 1
 414 15 379 -8 330 -8 c 0
 260 -8 162 13 162 124 c 0
 162 175 184 235 221 332 c 0
 227 346 239 377 239 398 c 0
 239 416 230 416 225 416 c 0
 168 416 141 321 133 295 c 0
 129 282 124 282 105 282 c 0
 90 282 77 282 77 296 c 0
 77 317 126 452 230 452 c 0
 284 452 335 419 335 363 c 0
 335 346 330 333 323 316 c 0
 292 232 265 162 265 106 c 0
 265 89 265 28 336 28 c 0
 369 28 395 55 414 98 c 1
 412 107 412 112 412 122 c 0
 412 150 426 204 436 244 c 2
 470 380 l 2
 474 399 486 444 535 444 c 0
 556 444 580 432 580 401 c 0
 580 391 574 367 565 334 c 0
 538 230 514 138 514 103 c 0
 514 72 522 28 578 28 c 0
 621 28 650 62 671 111 c 0
 694 164 718 259 718 274 c 0
 718 304 699 325 679 339 c 0
 669 347 655 357 655 381 c 0
 655 417 692 453 727 453 c 0
 746 453 791 439 791 365 c 0
EndSplineSet
EndChar

StartChar: x
Encoding: 120 120 89
Width: 561
GlyphClass: 2
Flags: MW
HStem: -8 36<177.5 199.5 177.5 202.5 383.5 430.5> 416 36<242 287.5 483.5 494.5>
VStem: 68 122<54 124.5> 482 122<319.5 390.5>
LayerCount: 2
Fore
SplineSet
595 148 m 0
 595 116 529 -8 404 -8 c 0
 349 -8 302 11 279 45 c 1
 263 26 228 -8 177 -8 c 0
 116 -8 68 28 68 80 c 0
 68 126 102 158 140 158 c 0
 171 158 190 137 190 112 c 0
 190 108 190 63 139 44 c 1
 154 28 176 28 179 28 c 0
 220 28 245 73 259 128 c 2
 291 258 l 2
 300 294 313 346 313 367 c 0
 313 378 313 416 262 416 c 0
 222 416 160 382 134 296 c 0
 129 282 125 282 105 282 c 0
 90 282 77 282 77 296 c 0
 77 328 143 452 267 452 c 0
 326 452 370 431 393 399 c 1
 433 446 472 452 495 452 c 0
 554 452 604 417 604 364 c 0
 604 317 569 286 532 286 c 0
 501 286 482 307 482 332 c 0
 482 336 482 381 533 400 c 1
 517 416 497 416 492 416 c 0
 452 416 424 365 415 327 c 2
 361 105 l 2
 358 93 358 83 358 77 c 0
 358 67 358 28 409 28 c 0
 452 28 512 64 538 148 c 0
 543 162 547 162 567 162 c 0
 582 162 595 162 595 148 c 0
EndSplineSet
EndChar

StartChar: y
Encoding: 121 121 90
Width: 562
GlyphClass: 2
Flags: MW
HStem: -202 36<230.5 273.5 230.5 297> -8 36<290 329> 416 36<196.5 227.5>
VStem: 107 121<-104 -93.5> 239 96<387.5 391 354.5 407>
LayerCount: 2
Fore
SplineSet
495 -7 m 2
 471 -104 360 -202 234 -202 c 0
 160 -202 107 -168 107 -115 c 0
 107 -72 139 -39 179 -39 c 0
 197 -39 228 -47 228 -85 c 0
 228 -123 198 -144 183 -151 c 1
 203 -165 226 -166 235 -166 c 0
 312 -166 374 -74 393 16 c 1
 378 6 349 -8 309 -8 c 0
 226 -8 161 27 161 118 c 0
 161 174 189 246 221 332 c 0
 227 346 239 377 239 398 c 0
 239 416 230 416 225 416 c 0
 168 416 141 321 133 295 c 0
 129 282 124 282 105 282 c 0
 90 282 77 282 77 296 c 0
 77 317 126 452 230 452 c 0
 284 452 335 419 335 363 c 0
 335 346 330 334 321 309 c 0
 297 246 263 157 263 97 c 0
 263 75 265 28 315 28 c 0
 346 28 370 45 378 52 c 0
 408 77 412 92 415 104 c 2
 487 390 l 2
 500 443 544 444 550 444 c 0
 571 444 595 432 595 401 c 0
 595 396 595 394 591 379 c 2
 495 -7 l 2
EndSplineSet
EndChar

StartChar: z
Encoding: 122 122 91
Width: 491
GlyphClass: 2
Flags: MW
HStem: -8 21G<84 102 327 401> 346 38 432 20G<243.5 300.5 502 520>
LayerCount: 2
Fore
SplineSet
526 151 m 0
 526 117 457 -8 345 -8 c 0
 309 -8 288 8 260 30 c 0
 240 45 222 60 197 60 c 0
 166 60 138 30 119 2 c 0
 113 -7 112 -8 92 -8 c 0
 76 -8 64 -8 64 6 c 0
 64 25 127 96 174 143 c 0
 201 169 251 210 291 242 c 0
 361 300 386 325 408 348 c 1
 387 348 l 2
 372 348 333 346 318 346 c 2
 247 346 l 2
 214 344 206 339 201 330 c 0
 195 318 193 318 173 318 c 0
 160 318 145 318 145 332 c 0
 145 362 200 452 287 452 c 0
 314 452 336 442 366 419 c 0
 387 402 408 384 433 384 c 0
 448 384 472 423 484 441 c 0
 491 451 492 452 512 452 c 0
 528 452 540 452 540 438 c 0
 540 422 487 357 430 301 c 0
 403 275 353 234 313 202 c 0
 243 144 218 119 196 96 c 1
 244 96 l 1
 312 98 l 2
 397 99 448 100 470 155 c 0
 475 166 481 166 498 166 c 0
 512 166 526 166 526 151 c 0
EndSplineSet
EndChar

StartChar: braceleft
Encoding: 123 123 92
Width: 575
GlyphClass: 2
Flags: W
LayerCount: 2
Fore
SplineSet
438 -232 m 0
 434 -250 425 -250 403 -250 c 0
 336 -250 172 -239 204 -111 c 2
 257 99 l 2
 266 136 267 138 267 146 c 0
 267 182 242 227 153 232 c 0
 141 233 137 237 141 250 c 0
 145 267 153 267 167 268 c 0
 209 270 247 284 275 305 c 0
 316 334 321 355 336 417 c 2
 388 623 l 2
 408 700 511 750 653 750 c 0
 675 750 684 750 679 732 c 0
 675 715 667 715 653 714 c 0
 600 711 566 693 554 686 c 0
 507 657 500 628 495 606 c 2
 442 396 l 2
 431 351 414 282 287 250 c 1
 367 227 386 176 377 134 c 2
 317 -103 l 2
 313 -120 311 -128 312 -138 c 0
 315 -174 343 -209 426 -214 c 0
 437 -215 441 -219 438 -232 c 0
EndSplineSet
EndChar

StartChar: bar
Encoding: 124 124 93
Width: 319
GlyphClass: 2
Flags: MW
HStem: 730 20G<332.5 363>
LayerCount: 2
Fore
SplineSet
139 -206 m 2
 135 -221 128 -250 97 -250 c 0
 67 -250 74 -220 78 -206 c 2
 306 706 l 2
 309 721 317 750 348 750 c 0
 378 750 370 720 367 706 c 2
 139 -206 l 2
EndSplineSet
EndChar

StartChar: braceright
Encoding: 125 125 94
Width: 575
GlyphClass: 2
Flags: W
LayerCount: 2
Fore
SplineSet
559 250 m 0
 554 233 546 233 532 232 c 0
 478 229 440 207 426 196 c 0
 384 165 380 148 364 83 c 2
 312 -123 l 2
 293 -196 197 -250 47 -250 c 0
 26 -250 16 -250 20 -232 c 0
 24 -215 32 -215 47 -214 c 0
 101 -211 137 -191 149 -184 c 0
 193 -155 200 -129 206 -106 c 2
 258 104 l 2
 270 150 287 218 414 250 c 1
 333 274 314 324 324 366 c 2
 383 603 l 2
 387 620 389 628 389 638 c 0
 386 677 354 710 274 714 c 0
 262 715 258 719 261 732 c 0
 266 750 276 750 297 750 c 0
 379 750 527 734 496 611 c 2
 443 401 l 2
 434 362 433 360 434 352 c 0
 437 297 483 271 546 268 c 0
 558 267 562 263 559 250 c 0
EndSplineSet
EndChar

StartChar: asciitilde
Encoding: 126 126 95
Width: 556
GlyphClass: 2
Flags: MW
HStem: 193 43<427 431.5> 264 43<248.5 253>
LayerCount: 2
Fore
SplineSet
627 290 m 1
 562 246 l 2
 542 232 519 221 497 211 c 0
 472 201 444 193 419 193 c 0
 379 193 352 210 328 227 c 0
 298 247 273 264 233 264 c 0
 182 264 121 234 62 193 c 1
 52 210 l 1
 117 254 l 2
 138 268 161 279 183 289 c 0
 208 299 236 307 261 307 c 0
 301 307 327 290 352 273 c 0
 382 253 407 236 447 236 c 0
 498 236 558 266 618 307 c 1
 627 290 l 1
EndSplineSet
EndChar

StartChar: exclamdown
Encoding: 161 161 97
Width: 386
GlyphClass: 3
Flags: MW
HStem: 353 147<292 307.5>
VStem: 225 150<415.5 437>
LayerCount: 2
Fore
SplineSet
375 440 m 0
 375 391 328 353 287 353 c 0
 249 353 225 380 225 413 c 0
 225 461 271 500 313 500 c 0
 348 500 375 476 375 440 c 0
233 -133 m 2
 223 -204 157 -211 145 -211 c 0
 101 -211 82 -180 82 -155 c 0
 82 -146 84 -142 89 -127 c 2
 230 263 l 2
 236 280 237 281 260 281 c 0
 280 281 291 281 287 253 c 2
 233 -133 l 2
EndSplineSet
Ligature2: "'liga' Standard Ligatures lookup 19 subtable" exclam quoteleft
Ligature2: "'liga' Standard Ligatures lookup 19 subtable" exclam grave
Ligature2: "'dlig' Discretionary Ligatures lookup 8 subtable" exclam quoteleft
Ligature2: "'dlig' Discretionary Ligatures lookup 8 subtable" exclam grave
EndChar

StartChar: cent
Encoding: 162 162 98
Width: 532
GlyphClass: 2
Flags: MW
HStem: -8 36
VStem: 107 109<122.5 135.5 92.5 222.5> 408 122<320.5 382>
LayerCount: 2
Fore
SplineSet
536 86 m 0
 536 74 497 35 443 14 c 0
 397 -3 345 -7 315 -8 c 1
 305 -48 l 2
 301 -61 288 -72 275 -72 c 0
 261 -72 253 -61 257 -48 c 2
 267 -6 l 1
 147 6 107 85 107 160 c 0
 107 285 205 440 382 451 c 1
 392 492 l 2
 395 506 409 516 422 516 c 0
 435 516 443 506 440 492 c 2
 429 450 l 1
 495 442 530 404 530 360 c 0
 530 317 500 282 458 282 c 0
 416 282 408 313 408 328 c 0
 408 331 409 377 459 395 c 1
 447 407 433 412 420 415 c 1
 324 29 l 1
 361 32 435 47 492 111 c 0
 499 118 503 118 506 118 c 0
 516 118 536 94 536 86 c 0
372 412 m 1
 340 404 299 382 271 329 c 0
 244 277 216 155 216 116 c 0
 216 69 237 39 276 31 c 1
 372 412 l 1
EndSplineSet
Substitution2: "'onum' Oldstyle Figures lookup 4 subtable" cent.oldstyle
Substitution2: "'aalt' Access All Alternates lookup 0 subtable" cent.oldstyle
EndChar

StartChar: sterling
Encoding: 163 163 99
Width: 869
GlyphClass: 2
Flags: MW
HStem: -8 36<180 188 180 205.5> -8 67<523.5 556.5 523.5 593> 72 67<205 230> 324 47<299.5 364 311 353 471 542> 670 36<596 669.5>
VStem: 101 65<36 49.5 36 61.5> 278 297<331 363.5>
LayerCount: 2
Fore
SplineSet
741 139 m 0x7e
 741 99 665 -8 521 -8 c 0
 466 -8 434 5 338 43 c 1
 289 5 229 -8 182 -8 c 0
 121 -8 101 15 101 40 c 0
 101 83 155 139 251 139 c 1
 251 139 277 139 304 134 c 1
 353 324 l 1
 307 324 l 2
 292 324 278 324 278 338 c 0
 278 341 282 359 286 364 c 0
 290 371 296 371 311 371 c 2
 364 371 l 1
 403 527 l 2
 425 615 509 706 643 706 c 0
 741 706 785 633 785 564 c 0
 785 505 760 462 710 462 c 0
 679 462 660 483 660 508 c 0
 660 529 675 574 729 579 c 1
 725 632 696 670 643 670 c 0
 549 670 522 570 513 537 c 0
 506 510 518 555 471 371 c 1
 547 371 l 2
 564 371 575 371 575 356 c 0
 575 353 571 335 568 330 c 0
 564 324 559 324 542 324 c 2
 460 324 l 1
 419 163 l 2
 418 157 412 135 393 105 c 1
 437 85 495 59 552 59 c 0
 561 59 655 59 685 143 c 0
 689 153 696 153 713 153 c 0
 727 153 741 153 741 139 c 0x7e
267 66 m 1
 243 72 240 72 220 72 c 0
 190 72 166 58 166 41 c 0
 166 31 175 28 185 28 c 0xa4
 191 28 232 29 267 66 c 1
EndSplineSet
EndChar

StartChar: currency
Encoding: 164 164 100
Width: 886
GlyphClass: 2
Flags: MW
HStem: -5 20G<255 255> 13 60<419 473> 427 60<538 592 538 598.5> 486 21G<374 374 757 757>
LayerCount: 2
Fore
SplineSet
700 7 m 0x10
 685 -5 662 -7 649 2 c 0
 647 3 644 6 641 12 c 2
 603 62 l 1
 555 31 500 13 446 13 c 0x60
 392 13 346 31 314 62 c 1
 255 15 l 2
 242 5 217 -15 194 1 c 0
 171 17 197 38 209 48 c 2
 281 105 l 1
 260 145 255 196 268 250 c 0
 282 304 313 355 353 395 c 1
 308 456 l 2
 303 462 292 478 313 495 c 0
 324 504 347 511 363 500 c 0
 366 497 367 496 374 486 c 2x90
 409 439 l 1
 457 469 511 487 565 487 c 0x20
 619 487 665 469 697 438 c 1
 757 486 l 2
 768 494 795 516 818 500 c 0
 841 484 813 461 803 454 c 2
 729 395 l 1
 750 355 756 304 742 250 c 0
 729 196 699 147 658 107 c 1
 705 45 l 2
 709 39 721 24 700 7 c 0x10
682 250 m 0
 707 348 647 427 550 427 c 0
 452 427 353 348 328 250 c 0
 304 152 363 73 461 73 c 0
 559 73 658 152 682 250 c 0
EndSplineSet
EndChar

StartChar: yen
Encoding: 165 165 101
Width: 866
GlyphClass: 2
Flags: MW
HStem: 0 47<299 310 560.5 582 582 589.5> 639 47<237 244 244 256 508.5 526.5 751 761.5 955 961>
VStem: 727 258<653.5 671.5>
LayerCount: 2
Fore
SplineSet
985 668 m 0
 985 639 967 639 955 639 c 0
 882 638 866 620 848 599 c 2
 639 357 l 1
 781 357 l 2
 797 357 806 344 802 329 c 0
 798 313 783 301 767 301 c 2
 590 301 l 1
 567 274 l 1
 548 199 l 1
 742 199 l 2
 758 199 767 187 763 171 c 0
 759 156 744 143 728 143 c 2
 534 143 l 1
 511 49 l 1
 523 48 549 47 560 47 c 2
 582 47 l 2
 597 47 614 47 614 29 c 0
 614 0 595 0 585 0 c 0
 536 0 484 3 434 3 c 0
 385 3 334 0 286 0 c 0
 275 0 264 5 264 18 c 0
 264 47 282 47 299 47 c 2
 321 47 l 2
 332 47 350 47 361 48 c 0
 380 51 381 52 385 66 c 2
 404 143 l 1
 209 143 l 2
 194 143 184 156 188 171 c 0
 192 187 208 199 223 199 c 2
 418 199 l 1
 437 274 l 1
 427 301 l 1
 248 301 l 2
 233 301 223 313 227 329 c 0
 231 344 247 357 262 357 c 2
 407 357 l 1
 309 623 l 2
 304 635 303 636 289 638 c 0
 280 639 265 639 256 639 c 2
 244 639 l 2
 230 639 212 639 212 657 c 0
 212 686 232 686 240 686 c 0
 285 686 332 683 378 683 c 0
 428 683 480 686 529 686 c 0
 539 686 551 682 551 668 c 0
 551 639 533 639 520 639 c 0
 497 639 483 638 459 635 c 1
 560 357 l 1
 567 357 l 1
 803 631 l 1
 787 637 770 639 753 639 c 0
 745 639 727 639 727 657 c 0
 727 686 747 686 755 686 c 0
 792 686 832 683 870 683 c 0
 902 683 935 686 966 686 c 0
 979 686 985 676 985 668 c 0
EndSplineSet
EndChar

StartChar: brokenbar
Encoding: 166 166 102
Width: 319
GlyphClass: 2
Flags: MW
HStem: 730 20G<332.5 363>
LayerCount: 2
Fore
SplineSet
367 706 m 2
 275 341 l 2
 272 327 255 317 239 317 c 0
 223 317 211 327 214 341 c 2
 306 706 l 2
 309 721 317 750 348 750 c 0
 378 750 370 720 367 706 c 2
139 -206 m 2
 135 -221 128 -250 97 -250 c 0
 67 -250 74 -220 78 -206 c 2
 169 159 l 2
 172 173 189 183 205 183 c 0
 221 183 233 173 230 159 c 2
 139 -206 l 2
EndSplineSet
EndChar

StartChar: section
Encoding: 167 167 103
Width: 685
GlyphClass: 2
Flags: MW
HStem: -214 78<284 343 284 347.5> 636 78<468 527>
LayerCount: 2
Fore
SplineSet
686 200 m 0
 670 137 616 88 552 65 c 1
 565 37 568 5 559 -31 c 0
 532 -140 406 -214 289 -214 c 0
 181 -214 103 -140 129 -37 c 0
 137 -5 169 21 201 21 c 0
 233 21 253 -5 245 -37 c 0
 238 -62 217 -84 193 -92 c 1
 213 -121 259 -136 309 -136 c 0
 377 -136 449 -94 465 -31 c 0
 479 23 424 46 373 62 c 2
 259 99 l 2
 167 128 100 201 125 300 c 0
 141 362 195 412 259 434 c 1
 246 462 243 495 252 531 c 0
 279 640 405 714 522 714 c 0
 630 714 708 640 682 537 c 0
 674 505 642 479 610 479 c 0
 578 479 558 505 566 537 c 0
 573 562 594 584 618 592 c 1
 598 621 552 636 502 636 c 0
 434 636 362 594 346 531 c 0
 332 477 387 454 438 438 c 2
 552 401 l 2
 644 372 711 299 686 200 c 0
582 200 m 0
 596 254 548 283 497 299 c 2
 382 336 l 2
 347 347 316 365 292 388 c 1
 262 372 238 337 229 300 c 0
 215 246 263 217 314 201 c 2
 429 164 l 2
 464 152 495 135 519 112 c 1
 549 128 573 163 582 200 c 0
EndSplineSet
EndChar

StartChar: dieresis
Encoding: 168 168 104
Width: 591
GlyphClass: 2
Flags: MW
HStem: 535 132<315.5 333 560.5 578>
LayerCount: 2
Fore
SplineSet
391 613 m 0
 391 574 354 535 312 535 c 0
 277 535 256 560 255 589 c 0
 255 628 295 667 336 667 c 0
 373 667 391 638 391 613 c 0
636 613 m 0
 636 574 599 535 557 535 c 0
 522 535 501 560 500 589 c 0
 500 628 540 667 581 667 c 0
 618 667 636 638 636 613 c 0
EndSplineSet
EndChar

StartChar: copyright
Encoding: 169 169 105
Width: 686
GlyphClass: 2
Flags: MW
HStem: 0 60<265 421 265 438> 626 60<265 421>
LayerCount: 2
Fore
SplineSet
686 343 m 0
 686 154 533 0 343 0 c 0
 154 0 0 154 0 343 c 0
 0 533 154 686 343 686 c 0
 533 686 686 533 686 343 c 0
626 343 m 0
 626 499 499 626 343 626 c 0
 187 626 60 499 60 343 c 0
 60 187 187 60 343 60 c 0
 499 60 626 187 626 343 c 0
490 391 m 2
 488 382 487 382 475 382 c 0
 466 382 461 382 461 389 c 0
 461 392 462 395 462 409 c 0
 462 453 440 490 394 490 c 0
 362 490 317 478 285 439 c 0
 243 388 232 298 232 277 c 0
 232 267 232 238 253 218 c 0
 274 199 303 196 318 196 c 0
 355 196 416 221 439 294 c 0
 440 298 445 298 452 298 c 0
 459 298 465 298 465 292 c 0
 465 288 454 246 415 214 c 0
 378 185 341 174 307 174 c 0
 237 174 168 207 168 297 c 0
 168 397 249 512 387 512 c 0
 399 512 436 512 465 480 c 1
 506 512 l 1
 513 512 518 512 518 505 c 2
 518 505 518 503 516 496 c 2
 490 391 l 2
EndSplineSet
EndChar

StartChar: ordfeminine
Encoding: 170 170 106
Width: 544
GlyphClass: 2
Flags: W
LayerCount: 2
Fore
SplineSet
616 490 m 0
 617 488 608 448 587 419 c 0
 577 405 557 381 518 381 c 0
 485 381 447 392 429 417 c 1
 410 404 372 381 320 381 c 0
 257 381 185 410 180 493 c 0
 176 587 254 703 395 703 c 0
 417 703 450 700 478 677 c 1
 488 686 502 691 517 691 c 0
 540 691 555 678 556 662 c 0
 556 659 556 658 553 647 c 2
 506 458 l 2
 504 447 502 441 503 428 c 0
 504 412 510 406 520 406 c 0
 548 406 561 459 567 482 c 0
 572 499 572 500 592 500 c 0
 605 500 616 500 616 490 c 0
554 334 m 0
 552 325 539 318 526 318 c 2
 177 318 l 2
 164 318 155 325 157 334 c 0
 159 344 172 351 185 351 c 2
 534 351 l 2
 547 351 556 344 554 334 c 0
417 457 m 0
 418 462 418 464 419 469 c 2
 461 635 l 1
 450 663 426 678 396 678 c 0
 374 678 329 667 304 600 c 0
 295 580 270 494 272 456 c 0
 274 416 303 406 322 406 c 0
 349 406 383 417 417 457 c 0
EndSplineSet
EndChar

StartChar: guillemotleft
Encoding: 171 171 107
Width: 650
GlyphClass: 2
Flags: MW
HStem: 0 21G<299.5 303 303 311 479.5 483 483 491> 452 20G<415 423 423 426.5 595 603 603 606.5>
LayerCount: 2
Fore
SplineSet
435 453 m 0
 403 377 361 303 311 233 c 1
 326 163 331 89 325 13 c 0
 325 6 319 0 311 0 c 2
 303 0 l 2
 296 0 290 6 290 13 c 0
 281 94 253 167 207 228 c 0
 205 230 204 233 204 236 c 0
 204 241 206 245 209 247 c 0
 287 308 353 383 403 465 c 0
 405 470 410 472 415 472 c 2
 423 472 l 2
 430 472 437 466 437 458 c 0
 437 456 436 454 435 453 c 0
615 453 m 0
 583 377 541 303 491 233 c 1
 506 163 511 89 505 13 c 0
 505 6 499 0 491 0 c 2
 483 0 l 2
 476 0 470 6 470 13 c 0
 461 94 433 167 387 228 c 0
 385 230 384 233 384 236 c 0
 384 241 386 245 389 247 c 0
 467 308 533 383 583 465 c 0
 585 470 590 472 595 472 c 2
 603 472 l 2
 610 472 617 466 617 458 c 0
 617 456 616 454 615 453 c 0
EndSplineSet
Substitution2: "'cv04' Character Variants 04 in Greek lookup 24-1" guillemotleft.gr
Substitution2: "'cv03' Character Variants 03 in Cyrillic lookup 23-1" guillemotleft.cyr
EndChar

StartChar: logicalnot
Encoding: 172 172 108
Width: 886
GlyphClass: 2
Flags: MW
HStem: 333 60<194.5 865 218 820>
LayerCount: 2
Fore
SplineSet
888 363 m 2
 831 138 l 2
 827 121 810 108 794 108 c 0
 777 108 767 121 771 138 c 2
 820 333 l 1
 203 333 l 2
 186 333 176 346 180 363 c 0
 184 380 201 393 218 393 c 2
 865 393 l 2
 882 393 892 380 888 363 c 2
EndSplineSet
EndChar

StartChar: uni00AD
Encoding: 173 173 109
Width: 414
GlyphClass: 2
Flags: MW
HStem: 175 94<117.5 355 138 338>
VStem: 92 295<184.5 260>
LayerCount: 2
Fore
SplineSet
375 202 m 0
 369 178 368 175 338 175 c 2
 125 175 l 2
 110 175 92 175 92 194 c 0
 92 197 102 237 103 244 c 0
 109 267 110 269 138 269 c 2
 355 269 l 2
 369 269 387 269 387 251 c 0
 387 248 379 218 375 202 c 0
EndSplineSet
EndChar

StartChar: registered
Encoding: 174 174 110
Width: 686
GlyphClass: 2
Flags: MW
HStem: 0 60<265 421 265 438> 626 60<265 421>
LayerCount: 2
Fore
SplineSet
686 343 m 0
 686 154 533 0 343 0 c 0
 154 0 0 154 0 343 c 0
 0 533 154 686 343 686 c 0
 533 686 686 533 686 343 c 0
626 343 m 0
 626 499 499 626 343 626 c 0
 187 626 60 499 60 343 c 0
 60 187 187 60 343 60 c 0
 499 60 626 187 626 343 c 0
547 233 m 0
 547 226 531 178 484 178 c 0
 468 178 401 180 401 231 c 0
 401 238 402 242 408 267 c 0
 412 279 415 295 415 302 c 0
 415 339 383 339 376 339 c 2
 326 339 l 1
 294 209 l 2
 297 209 312 208 317 208 c 2
 327 208 l 2
 334 208 342 208 342 200 c 0
 342 186 333 186 329 186 c 0
 306 186 281 188 258 188 c 0
 235 188 211 186 188 186 c 0
 183 186 178 188 178 195 c 0
 178 208 186 208 194 208 c 2
 205 208 l 2
 210 208 218 209 224 209 c 0
 232 210 232 210 234 217 c 2
 301 485 l 1
 296 485 284 486 278 486 c 2
 268 486 l 2
 261 486 253 486 253 494 c 0
 253 508 262 508 270 508 c 2
 424 508 l 2
 474 508 535 492 535 437 c 0
 535 394 495 359 440 345 c 1
 468 333 478 313 478 295 c 0
 478 292 478 290 475 271 c 0
 469 233 469 229 469 221 c 0
 469 209 470 195 487 195 c 0
 500 195 513 209 520 232 c 0
 523 241 525 241 534 241 c 0
 539 241 547 241 547 233 c 0
470 449 m 0
 470 486 431 486 394 486 c 2
 373 486 l 2
 363 486 363 485 361 478 c 2
 330 355 l 1
 377 355 l 2
 401 355 425 360 444 375 c 0
 463 392 470 439 470 449 c 0
EndSplineSet
EndChar

StartChar: macron
Encoding: 175 175 111
Width: 591
GlyphClass: 2
Flags: MW
HStem: 576 50<278.5 606 289 603>
LayerCount: 2
Fore
SplineSet
638 608 m 0
 638 576 621 576 603 576 c 2
 286 576 l 2
 271 576 254 576 254 594 c 0
 254 626 271 626 289 626 c 2
 606 626 l 2
 621 626 638 626 638 608 c 0
EndSplineSet
EndChar

StartChar: degree
Encoding: 176 176 112
Width: 443
GlyphClass: 2
Flags: MW
HStem: 392 60<310.5 359 310.5 360.5> 626 60<354 402>
LayerCount: 2
Fore
SplineSet
504 539 m 0
 483 458 401 392 320 392 c 0
 238 392 189 458 209 539 c 0
 229 620 312 686 393 686 c 0
 475 686 524 620 504 539 c 0
444 539 m 0
 456 587 426 626 378 626 c 0
 330 626 281 587 269 539 c 0
 257 491 286 452 335 452 c 0
 383 452 432 491 444 539 c 0
EndSplineSet
EndChar

StartChar: plusminus
Encoding: 177 177 113
Width: 886
GlyphClass: 2
Flags: MW
HStem: 0 61<133.5 427 141 427 490 761> 316 61<212.5 506 220 491 220 554 569 840> 673 20G<598 616.5>
LayerCount: 2
Fore
SplineSet
804 30 m 0
 804 0 772 0 761 0 c 2
 141 0 l 2
 126 0 98 0 98 31 c 0
 98 61 127 61 141 61 c 2
 427 61 l 1
 491 316 l 1
 220 316 l 2
 205 316 177 316 177 347 c 0
 177 377 206 377 220 377 c 2
 506 377 l 1
 578 662 l 2
 580 671 586 693 610 693 c 0
 623 693 640 683 640 662 c 0
 640 658 640 656 636 642 c 2
 569 377 l 1
 840 377 l 2
 852 377 883 377 883 346 c 0
 883 316 851 316 840 316 c 2
 554 316 l 1
 490 61 l 1
 761 61 l 2
 773 61 804 61 804 30 c 0
EndSplineSet
EndChar

StartChar: two.superior
Encoding: 178 178 114
Width: 447
GlyphClass: 2
Flags: W
LayerCount: 2
Fore
SplineSet
504 407 m 0
 505 391 464 296 373 296 c 0
 341 296 316 310 292 322 c 0
 268 334 245 346 220 346 c 0
 204 346 192 337 183 305 c 0
 180 296 177 296 162 296 c 0
 152 296 143 296 142 305 c 0
 142 314 165 403 289 458 c 0
 321 472 365 493 397 530 c 0
 426 567 427 628 427 630 c 0
 425 671 391 682 364 682 c 0
 281 682 223 597 226 553 c 0
 226 536 235 536 240 536 c 0
 281 536 309 588 308 605 c 0
 308 612 304 619 299 625 c 0
 298 626 295 629 295 631 c 0
 295 634 297 637 300 639 c 0
 303 641 306 643 310 643 c 0
 320 643 333 622 334 607 c 0
 335 579 300 514 238 514 c 0
 208 514 188 533 186 559 c 0
 184 607 253 703 366 703 c 0
 441 703 503 671 507 604 c 0
 510 536 467 499 324 436 c 0
 302 427 255 407 220 368 c 1
 245 368 272 367 303 364 c 0
 311 363 356 359 379 359 c 0
 426 359 454 382 463 407 c 0
 466 416 467 416 484 416 c 0
 495 416 504 416 504 407 c 0
EndSplineSet
EndChar

StartChar: three.superior
Encoding: 179 179 115
Width: 415
GlyphClass: 2
Flags: W
LayerCount: 2
Fore
SplineSet
513 623 m 0
 515 587 490 527 409 503 c 1
 442 490 463 466 464 430 c 0
 468 358 392 296 271 296 c 0
 200 296 153 330 151 376 c 0
 148 425 190 430 201 430 c 0
 225 430 237 416 238 403 c 0
 239 391 230 365 194 361 c 1
 204 331 237 318 269 318 c 0
 313 318 346 337 359 361 c 0
 376 390 385 444 384 457 c 0
 383 493 346 493 332 493 c 2
 309 493 l 2
 296 493 286 493 286 502 c 2
 286 502 288 515 291 518 c 0
 293 521 293 521 309 521 c 2
 329 521 l 2
 350 521 391 521 415 554 c 0
 432 575 441 627 441 642 c 0
 439 674 411 682 385 682 c 0
 315 682 253 635 255 592 c 0
 256 584 259 575 270 575 c 0
 287 575 309 589 308 607 c 0
 308 613 304 619 300 624 c 0
 298 625 295 628 295 631 c 0
 295 634 297 637 300 639 c 0
 303 641 306 643 310 643 c 0
 320 643 334 621 334 608 c 0
 336 580 305 554 269 554 c 0
 240 554 217 570 215 596 c 0
 213 644 284 703 387 703 c 0
 459 703 510 676 513 623 c 0
EndSplineSet
EndChar

StartChar: acute
Encoding: 180 180 116
Width: 591
GlyphClass: 2
Flags: MW
HStem: 502 21G<380 391> 679 20G<538 561.5>
LayerCount: 2
Fore
SplineSet
596 651 m 0
 596 620 571 605 557 597 c 2
 404 508 l 2
 399 505 394 502 388 502 c 0
 372 502 360 529 360 535 c 0
 360 542 366 549 372 554 c 2
 494 668 l 2
 514 687 527 699 549 699 c 0
 574 699 596 679 596 651 c 0
EndSplineSet
EndChar

StartChar: uni00B5
Encoding: 181 181 117
Width: 591
GlyphClass: 2
Flags: MW
HStem: -216 21G<58 93.5> -11 36<237.5 287.5 500.5 521> 435 20G<219.5 242>
LayerCount: 2
Fore
SplineSet
625 148 m 0
 625 142 609 82 585 43 c 0
 570 20 545 -11 500 -11 c 0
 483 -11 422 -6 395 46 c 1
 351 6 312 -11 263 -11 c 0
 212 -11 173 4 173 4 c 1
 137 -141 l 2
 129 -173 118 -216 69 -216 c 0
 47 -216 24 -203 24 -173 c 1
 24 -173 24 -165 28 -149 c 2
 165 400 l 2
 176 444 210 455 229 455 c 0
 255 455 274 437 274 413 c 0
 274 406 265 369 259 347 c 2
 217 179 l 2
 211 155 205 130 205 101 c 0
 205 80 205 25 270 25 c 0
 342 25 385 102 386 105 c 2
 450 361 l 2
 454 379 460 402 466 414 c 0
 475 429 497 444 520 444 c 0
 542 444 565 431 565 401 c 0
 565 395 560 376 557 363 c 2
 520 213 l 1
 496 118 l 2
 492 101 485 74 485 55 c 0
 485 25 497 25 504 25 c 0
 538 25 557 101 563 128 c 0
 570 152 570 154 572 157 c 0
 577 161 578 162 597 162 c 0
 611 162 625 162 625 148 c 0
EndSplineSet
EndChar

StartChar: paragraph
Encoding: 182 182 118
Width: 703
GlyphClass: 2
Flags: MW
HStem: 633 61<591 671 591 591 732 783 732 732>
LayerCount: 2
Fore
SplineSet
836 663 m 0
 828 633 798 633 783 633 c 2
 732 633 l 1
 537 -150 l 2
 533 -165 526 -194 495 -194 c 0
 465 -194 472 -164 476 -150 c 2
 671 633 l 1
 591 633 l 1
 396 -150 l 2
 392 -165 385 -194 354 -194 c 0
 324 -194 331 -164 335 -150 c 2
 427 220 l 1
 247 231 145 323 178 457 c 0
 213 596 373 694 525 694 c 2
 799 694 l 2
 815 694 844 694 836 663 c 0
EndSplineSet
EndChar

StartChar: periodcentered
Encoding: 183 183 119
Width: 886
GlyphClass: 2
Flags: MW
HStem: 270 147<522.5 536.5>
LayerCount: 2
Fore
SplineSet
604 358 m 0
 604 311 559 270 514 270 c 0
 485 270 454 288 454 329 c 0
 454 379 502 417 543 417 c 0
 579 417 604 393 604 358 c 0
EndSplineSet
EndChar

StartChar: cedilla
Encoding: 184 184 120
Width: 532
GlyphClass: 2
Flags: MW
HStem: -200 56<118.5 156.5 118.5 171> -107 56 -51 56<309 323 211 335.5>
LayerCount: 2
Fore
SplineSet
395 -125 m 0x20
 376 -200 230 -200 112 -200 c 0
 97 -200 88 -187 91 -172 c 0
 95 -157 111 -144 126 -144 c 0
 187 -144 270 -144 275 -125 c 0
 279 -107 225 -107 183 -107 c 1xc0
 211 5 l 1
 323 5 l 1
 309 -51 l 1
 362 -51 407 -78 395 -125 c 0x20
EndSplineSet
EndChar

StartChar: one.superior
Encoding: 185 185 121
Width: 428
GlyphClass: 2
Flags: W
LayerCount: 2
Fore
SplineSet
431 324 m 0
 432 307 419 307 411 307 c 2
 294 308 l 1
 182 307 l 2
 167 307 166 314 165 317 c 0
 164 335 177 335 190 335 c 2
 212 335 l 2
 223 335 234 335 244 336 c 0
 259 337 260 338 263 347 c 2
 330 615 l 1
 299 603 265 598 246 598 c 0
 231 598 229 605 229 609 c 0
 228 625 241 625 246 626 c 0
 295 629 348 643 401 697 c 0
 405 700 407 703 415 703 c 0
 428 703 430 694 430 692 c 2
 430 692 430 688 429 685 c 2
 342 337 l 1
 361 335 362 335 384 335 c 2
 408 335 l 2
 418 335 431 335 431 324 c 0
EndSplineSet
EndChar

StartChar: ordmasculine
Encoding: 186 186 122
Width: 496
GlyphClass: 2
Flags: W
LayerCount: 2
Fore
SplineSet
587 586 m 0
 591 497 512 381 346 381 c 0
 246 381 185 427 181 499 c 0
 177 586 255 703 421 703 c 0
 521 703 583 658 587 586 c 0
506 334 m 0
 504 325 491 318 478 318 c 2
 177 318 l 2
 164 318 155 325 157 334 c 0
 160 344 172 351 185 351 c 2
 487 351 l 2
 500 351 509 344 506 334 c 0
458 474 m 0
 477 511 495 589 493 616 c 0
 491 666 450 678 421 678 c 0
 378 678 332 655 310 611 c 0
 291 574 273 495 274 468 c 0
 277 418 317 406 347 406 c 0
 390 406 436 429 458 474 c 0
EndSplineSet
EndChar

StartChar: guillemotright
Encoding: 187 187 123
Width: 650
GlyphClass: 2
Flags: MW
HStem: 0 21G<162.5 166 166 174 342.5 346 346 354> 452 20G<277 285 285 289 457 465 465 469>
LayerCount: 2
Fore
SplineSet
565 236 m 0
 565 232 563 228 560 225 c 0
 482 164 416 89 366 7 c 0
 364 3 359 0 354 0 c 2
 346 0 l 2
 339 0 332 6 332 14 c 0
 332 16 333 18 334 19 c 0
 366 95 408 169 458 239 c 1
 443 309 438 383 443 459 c 0
 444 467 450 472 457 472 c 2
 465 472 l 2
 473 472 479 467 479 460 c 0
 488 379 516 305 562 245 c 0
 564 242 565 239 565 236 c 0
385 236 m 0
 385 232 383 228 380 225 c 0
 302 164 236 89 186 7 c 0
 184 3 179 0 174 0 c 2
 166 0 l 2
 159 0 152 6 152 14 c 0
 152 16 153 18 154 19 c 0
 186 95 228 169 278 239 c 1
 263 309 258 383 263 459 c 0
 264 467 270 472 277 472 c 2
 285 472 l 2
 293 472 299 467 299 460 c 0
 308 379 336 305 382 245 c 0
 384 242 385 239 385 236 c 0
EndSplineSet
Substitution2: "'cv04' Character Variants 04 in Greek lookup 24-1" guillemotright.gr
Substitution2: "'cv03' Character Variants 03 in Cyrillic lookup 23-1" guillemotright.cyr
EndChar

StartChar: onequarter
Encoding: 188 188 124
Width: 966
GlyphClass: 3
Flags: W
LayerCount: 2
Fore
SplineSet
431 324 m 0
 433 307 419 307 411 307 c 2
 294 308 l 1
 182 307 l 2
 168 307 166 314 165 317 c 0
 165 335 177 335 190 335 c 2
 212 335 l 2
 223 335 234 335 244 336 c 0
 259 337 261 338 263 347 c 2
 330 615 l 1
 300 603 266 598 247 598 c 0
 232 598 229 605 229 609 c 0
 228 625 240 625 247 626 c 0
 294 629 348 643 400 697 c 0
 405 700 408 703 415 703 c 0
 429 703 431 694 430 692 c 0
 431 691 430 688 428 685 c 2
 341 337 l 1
 361 335 362 335 384 335 c 2
 408 335 l 2
 418 335 431 335 431 324 c 0
891 6 m 0
 891 -7 834 -14 809 -14 c 1
 806 -29 797 -61 792 -80 c 0
 790 -90 783 -116 747 -116 c 0
 727 -116 714 -104 713 -91 c 0
 713 -87 721 -60 724 -44 c 2
 735 -1 l 1
 684 14 671 17 635 17 c 0
 586 17 578 13 569 7 c 0
 558 1 556 0 553 0 c 0
 544 0 535 13 535 16 c 0
 534 27 556 35 561 37 c 0
 567 40 631 76 692 158 c 0
 725 205 760 272 783 359 c 0
 786 370 792 397 828 397 c 0
 835 397 860 394 862 371 c 0
 862 367 836 194 629 45 c 1
 643 45 l 2
 677 45 699 39 743 27 c 1
 753 72 754 74 761 98 c 0
 765 116 772 142 807 142 c 0
 824 142 839 133 840 116 c 0
 840 113 840 112 838 103 c 2
 817 14 l 1
 826 14 845 15 864 20 c 0
 870 22 870 22 873 22 c 0
 883 22 891 9 891 6 c 0
964 666 m 0
 962 659 959 653 954 648 c 2
 319 2 l 2
 312 -5 302 -10 292 -10 c 0
 276 -10 265 3 270 20 c 0
 271 27 275 33 280 38 c 2
 914 684 l 2
 922 691 932 696 941 696 c 0
 958 696 968 683 964 666 c 0
EndSplineSet
Ligature2: "'frac' Diagonal Fractions lookup 3 subtable" one fraction four
Ligature2: "'frac' Diagonal Fractions lookup 3 subtable" one slash four
EndChar

StartChar: onehalf
Encoding: 189 189 125
Width: 966
GlyphClass: 3
Flags: W
LayerCount: 2
Fore
SplineSet
431 324 m 0
 433 307 419 307 411 307 c 2
 294 308 l 1
 182 307 l 2
 168 307 166 314 165 317 c 0
 165 335 177 335 190 335 c 2
 212 335 l 2
 223 335 234 335 244 336 c 0
 259 337 261 338 263 347 c 2
 330 615 l 1
 300 603 266 598 247 598 c 0
 232 598 229 605 229 609 c 0
 228 625 240 625 247 626 c 0
 294 629 348 643 400 697 c 0
 405 700 408 703 415 703 c 0
 429 703 431 694 430 692 c 0
 431 691 430 688 428 685 c 2
 341 337 l 1
 361 335 362 335 384 335 c 2
 408 335 l 2
 418 335 431 335 431 324 c 0
914 101 m 0
 915 85 874 -10 783 -10 c 0
 752 -10 726 3 702 15 c 0
 678 28 655 40 630 40 c 0
 614 40 603 31 593 -2 c 0
 590 -10 588 -10 572 -10 c 0
 562 -10 553 -10 553 -2 c 0
 552 7 575 96 699 151 c 0
 731 165 775 186 807 224 c 0
 836 260 837 323 837 323 c 1
 835 364 801 375 774 375 c 0
 691 375 634 290 636 246 c 0
 637 230 645 229 650 229 c 0
 691 229 718 281 718 299 c 0
 717 305 714 312 709 318 c 0
 707 320 706 322 705 325 c 0
 705 328 707 331 710 332 c 0
 713 335 716 337 719 337 c 0
 730 337 743 316 744 300 c 0
 745 272 709 208 648 208 c 0
 618 208 598 226 596 253 c 0
 594 300 663 397 776 397 c 0
 851 397 913 365 917 298 c 0
 920 230 877 192 734 130 c 0
 712 121 665 100 629 61 c 1
 654 61 681 60 713 57 c 0
 721 56 766 53 789 53 c 0
 836 53 864 76 873 100 c 0
 876 109 878 110 894 110 c 0
 905 110 914 110 914 101 c 0
877 666 m 0
 875 659 872 653 867 648 c 2
 232 2 l 2
 225 -5 215 -10 205 -10 c 0
 189 -10 179 3 183 20 c 0
 184 27 188 33 193 38 c 2
 827 684 l 2
 835 691 845 696 855 696 c 0
 871 696 881 683 877 666 c 0
EndSplineSet
Ligature2: "'frac' Diagonal Fractions lookup 3 subtable" one fraction two
Ligature2: "'frac' Diagonal Fractions lookup 3 subtable" one slash two
EndChar

StartChar: threequarters
Encoding: 190 190 126
Width: 966
GlyphClass: 3
Flags: W
LayerCount: 2
Fore
SplineSet
567 623 m 0
 569 587 544 527 463 503 c 1
 496 490 517 466 518 430 c 0
 522 358 446 296 324 296 c 0
 254 296 207 330 205 376 c 0
 202 425 244 430 255 430 c 0
 279 430 291 416 292 403 c 0
 293 391 283 365 248 361 c 1
 258 331 292 318 323 318 c 0
 367 318 399 337 413 361 c 0
 430 390 439 444 438 457 c 0
 436 493 399 493 386 493 c 2
 363 493 l 2
 349 493 340 493 340 502 c 2
 340 502 342 515 345 518 c 0
 346 521 347 521 363 521 c 2
 383 521 l 2
 404 521 444 521 469 554 c 0
 486 575 495 627 495 642 c 0
 493 674 465 682 439 682 c 0
 369 682 307 635 309 592 c 0
 309 584 313 575 324 575 c 0
 341 575 362 589 362 607 c 0
 361 613 358 619 353 624 c 0
 352 625 349 628 349 631 c 0
 349 634 350 637 354 639 c 0
 356 641 360 643 364 643 c 0
 374 643 387 621 388 608 c 0
 389 580 359 554 323 554 c 0
 294 554 271 570 269 596 c 0
 267 644 337 703 440 703 c 0
 513 703 564 676 567 623 c 0
891 6 m 0
 891 -7 834 -14 809 -14 c 1
 806 -29 797 -61 792 -80 c 0
 790 -90 783 -116 747 -116 c 0
 727 -116 714 -104 713 -91 c 0
 713 -87 721 -60 724 -44 c 2
 735 -1 l 1
 684 14 671 17 635 17 c 0
 586 17 578 13 569 7 c 0
 558 1 556 0 553 0 c 0
 544 0 535 13 535 16 c 0
 534 27 556 35 561 37 c 0
 567 40 631 76 692 158 c 0
 725 205 760 272 783 359 c 0
 786 370 792 397 828 397 c 0
 835 397 860 394 862 371 c 0
 862 367 836 194 629 45 c 1
 643 45 l 2
 677 45 699 39 743 27 c 1
 753 72 754 74 761 98 c 0
 765 116 772 142 807 142 c 0
 824 142 839 133 840 116 c 0
 840 113 840 112 838 103 c 2
 817 14 l 1
 826 14 845 15 864 20 c 0
 870 22 870 22 873 22 c 0
 883 22 891 9 891 6 c 0
964 666 m 0
 962 659 959 653 954 648 c 2
 319 2 l 2
 312 -5 302 -10 292 -10 c 0
 276 -10 265 3 270 20 c 0
 271 27 275 33 280 38 c 2
 914 684 l 2
 922 691 932 696 941 696 c 0
 958 696 968 683 964 666 c 0
EndSplineSet
Ligature2: "'frac' Diagonal Fractions lookup 3 subtable" three fraction four
Ligature2: "'frac' Diagonal Fractions lookup 3 subtable" three slash four
EndChar

StartChar: questiondown
Encoding: 191 191 127
Width: 591
GlyphClass: 3
Flags: MW
HStem: -211 36<238 281 238 323.5> 245 36<352 364.5> 353 147<394 409.5>
VStem: 102 58<-124 -75.5 -139.5 -53.5> 382 120<-23 5.5>
LayerCount: 2
Fore
SplineSet
477 440 m 0
 477 391 430 353 389 353 c 0
 351 353 327 380 327 413 c 0
 327 461 373 500 415 500 c 0
 450 500 477 476 477 440 c 0
502 10 m 0
 502 -56 401 -211 246 -211 c 0
 154 -211 102 -161 102 -87 c 0
 102 -20 138 41 211 89 c 2
 334 168 l 2
 354 181 375 195 375 227 c 0
 375 237 370 245 359 245 c 0
 345 245 300 236 282 187 c 0
 277 173 274 173 254 173 c 0
 237 173 226 173 226 188 c 0
 226 218 279 281 361 281 c 0
 379 281 432 275 432 207 c 0
 432 168 418 131 389 105 c 0
 374 93 357 82 256 17 c 0
 206 -16 160 -45 160 -106 c 0
 160 -173 229 -175 247 -175 c 0
 315 -175 379 -128 420 -61 c 1
 417 -60 382 -53 382 -14 c 0
 382 25 416 56 452 56 c 0
 482 56 502 37 502 10 c 0
EndSplineSet
Ligature2: "'liga' Standard Ligatures lookup 19 subtable" question quoteleft
Ligature2: "'liga' Standard Ligatures lookup 19 subtable" question grave
Ligature2: "'dlig' Discretionary Ligatures lookup 8 subtable" question quoteleft
Ligature2: "'dlig' Discretionary Ligatures lookup 8 subtable" question grave
EndChar

StartChar: Agrave
Encoding: 192 192 128
Width: 866
GlyphClass: 2
Flags: MW
HStem: 0 47<97 104 97 107.5 307 309 499 517 760 773 773 780.5> 192 47<357 555 357 560 328 555> 691 20G<599 625> 751 21G<664.5 668> 898 20G<551.5 576.5>
VStem: 73 260<18 32.5>
LayerCount: 2
Fore
SplineSet
805 29 m 0
 805 0 787 0 777 0 c 0
 732 0 685 3 640 3 c 0
 591 3 541 0 493 0 c 0
 471 0 471 18 471 18 c 1
 471 47 488 47 510 47 c 0
 530 47 556 48 575 52 c 1
 560 192 l 1
 328 192 l 1
 247 57 l 1
 271 48 307 47 307 47 c 2
 315 47 333 47 333 29 c 0
 333 0 313 0 305 0 c 0
 268 0 228 3 190 3 c 0
 158 3 123 0 92 0 c 0
 73 0 73 18 73 18 c 1
 73 47 90 47 104 47 c 0
 176 48 187 66 198 84 c 2
 563 686 l 2
 578 711 588 711 610 711 c 0
 640 711 643 708 646 682 c 2
 712 66 l 2
 714 51 715 50 727 48 c 0
 735 47 751 47 760 47 c 2
 773 47 l 2
 788 47 805 47 805 29 c 0
555 239 m 1
 525 517 l 1
 357 239 l 1
 555 239 l 1
708 788 m 0
 706 782 685 753 668 751 c 0
 661 751 657 752 652 754 c 2
 517 815 l 2
 504 820 483 831 492 861 c 0
 502 893 535 918 568 918 c 0
 585 918 594 909 607 896 c 2
 702 805 l 2
 706 801 711 795 708 788 c 0
EndSplineSet
Position2: "'cpsp' Capital Spacing lookup 0 subtable" dx=7 dy=0 dh=14 dv=0
EndChar

StartChar: Aacute
Encoding: 193 193 129
Width: 866
GlyphClass: 2
Flags: MW
HStem: 0 47<97 104 97 107.5 307 309 499 517 760 773 773 780.5> 192 47<357 555 357 560 328 555> 691 20G<599 625> 751 21G<574 577> 898 20G<749 774>
VStem: 73 260<18 32.5>
LayerCount: 2
Fore
SplineSet
805 29 m 0
 805 0 787 0 777 0 c 0
 732 0 685 3 640 3 c 0
 591 3 541 0 493 0 c 0
 471 0 471 18 471 18 c 1
 471 47 488 47 510 47 c 0
 530 47 556 48 575 52 c 1
 560 192 l 1
 328 192 l 1
 247 57 l 1
 271 48 307 47 307 47 c 2
 315 47 333 47 333 29 c 0
 333 0 313 0 305 0 c 0
 268 0 228 3 190 3 c 0
 158 3 123 0 92 0 c 0
 73 0 73 18 73 18 c 1
 73 47 90 47 104 47 c 0
 176 48 187 66 198 84 c 2
 563 686 l 2
 578 711 588 711 610 711 c 0
 640 711 643 708 646 682 c 2
 712 66 l 2
 714 51 715 50 727 48 c 0
 735 47 751 47 760 47 c 2
 773 47 l 2
 788 47 805 47 805 29 c 0
555 239 m 1
 525 517 l 1
 357 239 l 1
 555 239 l 1
805 861 m 0
 799 831 772 820 757 815 c 2
 591 754 l 2
 585 752 580 751 574 751 c 0
 558 753 551 782 552 788 c 0
 553 795 561 801 567 805 c 2
 707 896 l 2
 727 909 740 918 758 918 c 0
 790 918 810 893 805 861 c 0
EndSplineSet
Position2: "'cpsp' Capital Spacing lookup 0 subtable" dx=7 dy=0 dh=14 dv=0
EndChar

StartChar: Acircumflex
Encoding: 194 194 130
Width: 866
GlyphClass: 2
Flags: MW
HStem: 0 47<97 104 97 107.5 307 309 499 517 760 773 773 780.5> 192 47<357 555 357 560 328 555> 691 20G<599 625> 741 21G<460 460 780 780> 885 20G<648 648>
VStem: 73 260<18 32.5>
LayerCount: 2
Fore
SplineSet
805 29 m 0
 805 0 787 0 777 0 c 0
 732 0 685 3 640 3 c 0
 591 3 541 0 493 0 c 0
 471 0 471 18 471 18 c 1
 471 47 488 47 510 47 c 0
 530 47 556 48 575 52 c 1
 560 192 l 1
 328 192 l 1
 247 57 l 1
 271 48 307 47 307 47 c 2
 315 47 333 47 333 29 c 0
 333 0 313 0 305 0 c 0
 268 0 228 3 190 3 c 0
 158 3 123 0 92 0 c 0
 73 0 73 18 73 18 c 1
 73 47 90 47 104 47 c 0
 176 48 187 66 198 84 c 2
 563 686 l 2
 578 711 588 711 610 711 c 0
 640 711 643 708 646 682 c 2
 712 66 l 2
 714 51 715 50 727 48 c 0
 735 47 751 47 760 47 c 2
 773 47 l 2
 788 47 805 47 805 29 c 0
555 239 m 1
 525 517 l 1
 357 239 l 1
 555 239 l 1
799 766 m 1
 780 741 l 1
 629 797 l 1
 460 741 l 1
 450 766 l 1
 648 905 l 1
 799 766 l 1
EndSplineSet
Position2: "'cpsp' Capital Spacing lookup 0 subtable" dx=7 dy=0 dh=14 dv=0
EndChar

StartChar: Atilde
Encoding: 195 195 131
Width: 866
GlyphClass: 2
Flags: MW
HStem: 0 47<97 104 97 107.5 307 309 499 517 760 773 773 780.5> 192 47<357 555 357 560 328 555> 691 20G<599 625> 741 58<664 710.5> 802 58<576 577>
VStem: 73 260<18 32.5>
LayerCount: 2
Fore
SplineSet
805 29 m 0
 805 0 787 0 777 0 c 0
 732 0 685 3 640 3 c 0
 591 3 541 0 493 0 c 0
 471 0 471 18 471 18 c 1
 471 47 488 47 510 47 c 0
 530 47 556 48 575 52 c 1
 560 192 l 1
 328 192 l 1
 247 57 l 1
 271 48 307 47 307 47 c 2
 315 47 333 47 333 29 c 0
 333 0 313 0 305 0 c 0
 268 0 228 3 190 3 c 0
 158 3 123 0 92 0 c 0
 73 0 73 18 73 18 c 1
 73 47 90 47 104 47 c 0
 176 48 187 66 198 84 c 2
 563 686 l 2
 578 711 588 711 610 711 c 0
 640 711 643 708 646 682 c 2
 712 66 l 2
 714 51 715 50 727 48 c 0
 735 47 751 47 760 47 c 2
 773 47 l 2
 788 47 805 47 805 29 c 0
555 239 m 1
 525 517 l 1
 357 239 l 1
 555 239 l 1
820 842 m 0
 820 828 775 793 759 780 c 0
 734 760 702 741 673 741 c 0
 655 741 636 746 605 780 c 0
 594 794 584 802 570 802 c 0
 543 802 504 770 482 751 c 0
 476 745 471 741 464 741 c 0
 451 741 446 753 446 759 c 0
 446 772 487 805 503 817 c 0
 521 831 559 860 593 860 c 0
 613 860 633 852 654 828 c 0
 673 806 683 799 696 799 c 0
 725 799 768 836 781 847 c 0
 790 856 794 860 802 860 c 0
 812 860 820 852 820 842 c 0
EndSplineSet
Position2: "'cpsp' Capital Spacing lookup 0 subtable" dx=7 dy=0 dh=14 dv=0
EndChar

StartChar: Adieresis
Encoding: 196 196 132
Width: 866
GlyphClass: 2
Flags: MW
HStem: 0 47<97 104 97 107.5 307 309 499 517 760 773 773 780.5> 192 47<357 555 357 560 328 555> 691 20G<599 625> 741 132<480.5 498 771.5 789>
VStem: 73 260<18 32.5>
LayerCount: 2
Fore
SplineSet
805 29 m 0
 805 0 787 0 777 0 c 0
 732 0 685 3 640 3 c 0
 591 3 541 0 493 0 c 0
 471 0 471 18 471 18 c 1
 471 47 488 47 510 47 c 0
 530 47 556 48 575 52 c 1
 560 192 l 1
 328 192 l 1
 247 57 l 1
 271 48 307 47 307 47 c 2
 315 47 333 47 333 29 c 0
 333 0 313 0 305 0 c 0
 268 0 228 3 190 3 c 0
 158 3 123 0 92 0 c 0
 73 0 73 18 73 18 c 1
 73 47 90 47 104 47 c 0
 176 48 187 66 198 84 c 2
 563 686 l 2
 578 711 588 711 610 711 c 0
 640 711 643 708 646 682 c 2
 712 66 l 2
 714 51 715 50 727 48 c 0
 735 47 751 47 760 47 c 2
 773 47 l 2
 788 47 805 47 805 29 c 0
555 239 m 1
 525 517 l 1
 357 239 l 1
 555 239 l 1
557 819 m 0
 557 780 519 741 477 741 c 0
 442 741 422 766 421 795 c 0
 421 834 460 873 501 873 c 0
 538 873 557 844 557 819 c 0
848 819 m 0
 848 780 810 741 768 741 c 0
 733 741 713 766 712 795 c 0
 712 834 751 873 792 873 c 0
 829 873 848 844 848 819 c 0
EndSplineSet
Position2: "'cpsp' Capital Spacing lookup 0 subtable" dx=7 dy=0 dh=14 dv=0
EndChar

StartChar: Aring
Encoding: 197 197 133
Width: 866
GlyphClass: 2
Flags: MW
HStem: 0 47<97 104 97 107.5 307 309 499 517 760 773 773 780.5> 192 47<357 555 357 560 328 555> 711 41<611 629 611 658.5 611 625> 838 41<633.5 654>
VStem: 73 260<18 32.5> 513 62<764.5 778.5> 689 62<811 825>
LayerCount: 2
Fore
SplineSet
805 29 m 0
 805 0 787 0 777 0 c 0
 732 0 685 3 640 3 c 0
 591 3 541 0 493 0 c 0
 471 0 471 18 471 18 c 1
 471 47 488 47 510 47 c 0
 530 47 556 48 575 52 c 1
 560 192 l 1
 328 192 l 1
 247 57 l 1
 271 48 307 47 307 47 c 2
 315 47 333 47 333 29 c 0
 333 0 313 0 305 0 c 0
 268 0 228 3 190 3 c 0
 158 3 123 0 92 0 c 0
 73 0 73 18 73 18 c 1
 73 47 90 47 104 47 c 0
 176 48 187 66 198 84 c 2
 563 686 l 2
 578 711 588 711 610 711 c 0
 640 711 643 708 646 682 c 2
 712 66 l 2
 714 51 715 50 727 48 c 0
 735 47 751 47 760 47 c 2
 773 47 l 2
 788 47 805 47 805 29 c 0
555 239 m 1
 525 517 l 1
 357 239 l 1
 555 239 l 1
689 814 m 0
 689 836 666 838 642 838 c 0
 625 838 603 837 590 823 c 0
 579 810 575 781 575 776 c 0
 575 753 600 752 622 752 c 0
 636 752 662 753 674 767 c 0
 685 781 689 808 689 814 c 0
751 813 m 0
 751 767 706 711 611 711 c 0
 550 711 513 734 513 777 c 0
 513 825 560 879 653 879 c 0
 717 879 751 853 751 813 c 0
EndSplineSet
Position2: "'cpsp' Capital Spacing lookup 0 subtable" dx=7 dy=0 dh=14 dv=0
EndChar

StartChar: AE
Encoding: 198 198 134
Width: 1023
GlyphClass: 2
Flags: MW
HStem: 0 47<96.5 101 96.5 108 302.5 310.5 435 443 443 454 641 721 721 798> 306 47<432 553 403 565 694 741> 639 47<498.5 1040 509 546 778 790 790 835>
VStem: 73 260<14.5 32.5>
LayerCount: 2
Fore
SplineSet
1027 256 m 0
 1027 250 1024 244 1022 239 c 2
 927 17 l 2
 920 0 915 0 894 0 c 2
 432 0 l 2
 418 0 400 0 400 18 c 0
 400 47 418 47 435 47 c 2
 443 47 l 2
 465 47 467 47 475 48 c 0
 489 50 490 50 493 64 c 2
 553 306 l 1
 403 306 l 1
 248 57 l 1
 269 49 298 47 307 47 c 0
 316 47 333 47 333 29 c 0
 333 0 315 0 306 0 c 0
 268 0 228 3 190 3 c 0
 158 3 124 0 92 0 c 0
 79 0 73 10 73 18 c 0
 73 47 92 47 101 47 c 0
 177 48 187 65 200 85 c 2
 546 639 l 1
 506 639 l 2
 491 639 474 639 474 657 c 0
 474 686 492 686 509 686 c 2
 1040 686 l 2
 1062 686 1075 686 1071 654 c 2
 1050 472 l 2
 1047 449 1044 445 1021 445 c 0
 1008 445 993 445 993 466 c 0
 993 471 995 485 996 490 c 0
 998 509 999 514 999 538 c 0
 999 637 943 639 835 639 c 2
 790 639 l 2
 766 639 765 638 761 623 c 2
 694 353 l 1
 744 353 l 2
 820 353 841 375 860 447 c 0
 866 467 868 470 890 470 c 0
 900 470 918 470 918 452 c 0
 918 447 916 441 915 436 c 2
 859 212 l 2
 853 189 846 189 829 189 c 0
 819 189 801 189 801 207 c 0
 801 210 801 211 803 220 c 0
 805 227 811 251 811 266 c 0
 811 296 796 306 741 306 c 2
 682 306 l 1
 618 48 l 1
 625 47 632 47 641 47 c 2
 721 47 l 2
 875 47 915 130 965 247 c 0
 977 273 977 274 999 274 c 0
 1009 274 1027 274 1027 256 c 0
565 353 m 1
 635 636 l 1
 628 637 617 637 609 637 c 1
 432 353 l 1
 565 353 l 1
EndSplineSet
Position2: "'cpsp' Capital Spacing lookup 0 subtable" dx=7 dy=0 dh=14 dv=0
EndChar

StartChar: Ccedilla
Encoding: 199 199 135
Width: 827
GlyphClass: 2
Flags: MW
HStem: -17 47 656 47<610.5 642.5 483 693.5>
VStem: 163 135<191.5 224.5 191.5 351>
LayerCount: 2
Fore
SplineSet
849 446 m 2
 844 426 842 426 817 426 c 0
 797 426 786 426 786 441 c 0
 786 448 789 454 789 484 c 0
 789 578 743 656 644 656 c 0
 577 656 480 631 411 547 c 0
 323 439 298 247 298 202 c 0
 298 181 298 119 344 77 c 0
 388 36 451 30 483 30 c 0
 562 30 692 82 740 239 c 0
 743 248 752 248 767 248 c 0
 782 248 795 248 795 234 c 0
 795 225 773 136 688 68 c 0
 628 20 566 -5 507 -13 c 1
 498 -51 l 1
 551 -51 595 -78 583 -125 c 0
 565 -200 419 -200 301 -200 c 0
 286 -200 276 -187 280 -172 c 0
 284 -157 300 -144 315 -144 c 0
 375 -144 459 -144 463 -125 c 0
 468 -107 413 -107 372 -107 c 1
 396 -13 l 1
 271 5 163 80 163 245 c 0
 163 457 336 703 630 703 c 0
 655 703 733 703 796 635 c 1
 882 703 l 1
 897 703 909 703 909 689 c 2
 909 689 909 685 905 670 c 2
 849 446 l 2
EndSplineSet
Position2: "'cpsp' Capital Spacing lookup 0 subtable" dx=7 dy=0 dh=14 dv=0
EndChar

StartChar: Egrave
Encoding: 200 200 136
Width: 757
GlyphClass: 2
Flags: MW
HStem: 0 47<88.5 121 99 121 121 127 340 440 440 521.5> 329 47<399 438 387 441> 633 47<247 773 257 276 530.5 605> 751 21G<609.5 613> 898 20G<496.5 521.5>
LayerCount: 2
Fore
SplineSet
761 256 m 0
 761 250 758 244 756 239 c 2
 661 17 l 2
 654 0 649 0 628 0 c 2
 96 0 l 2
 81 0 64 0 64 18 c 0
 64 47 82 47 99 47 c 2
 121 47 l 2
 133 47 149 48 161 49 c 0
 179 50 180 51 184 65 c 2
 325 631 l 1
 319 631 286 633 276 633 c 2
 254 633 l 2
 240 633 223 633 223 651 c 0
 223 680 240 680 257 680 c 2
 773 680 l 2
 787 680 803 680 805 663 c 2
 782 465 l 2
 780 446 779 439 753 439 c 0
 743 439 725 439 725 458 c 0
 725 462 727 475 728 479 c 0
 731 505 731 508 731 527 c 0
 731 633 666 633 544 633 c 0
 517 633 476 633 462 631 c 1
 399 376 l 1
 441 376 l 2
 520 376 538 401 556 471 c 0
 561 490 564 493 586 493 c 0
 596 493 614 493 614 475 c 0
 614 472 613 469 611 462 c 2
 555 236 l 2
 549 212 542 212 525 212 c 0
 515 212 497 212 497 230 c 2
 497 230 498 237 500 244 c 0
 504 262 507 282 507 289 c 0
 507 319 493 329 438 329 c 2
 387 329 l 1
 317 48 l 1
 324 47 331 47 340 47 c 2
 440 47 l 2
 603 47 646 124 699 247 c 0
 711 273 711 274 733 274 c 0
 743 274 761 274 761 256 c 0
653 788 m 0
 651 782 630 753 613 751 c 0
 606 751 602 752 597 754 c 2
 462 815 l 2
 449 820 428 831 437 861 c 0
 447 893 480 918 513 918 c 0
 530 918 539 909 552 896 c 2
 647 805 l 2
 651 801 656 795 653 788 c 0
EndSplineSet
Position2: "'cpsp' Capital Spacing lookup 0 subtable" dx=7 dy=0 dh=14 dv=0
EndChar

StartChar: Eacute
Encoding: 201 201 137
Width: 757
GlyphClass: 2
Flags: MW
HStem: 0 47<88.5 121 99 121 121 127 340 440 440 521.5> 329 47<399 438 387 441> 633 47<247 773 257 276 530.5 605> 751 21G<519 522> 898 20G<694 719>
LayerCount: 2
Fore
SplineSet
761 256 m 0
 761 250 758 244 756 239 c 2
 661 17 l 2
 654 0 649 0 628 0 c 2
 96 0 l 2
 81 0 64 0 64 18 c 0
 64 47 82 47 99 47 c 2
 121 47 l 2
 133 47 149 48 161 49 c 0
 179 50 180 51 184 65 c 2
 325 631 l 1
 319 631 286 633 276 633 c 2
 254 633 l 2
 240 633 223 633 223 651 c 0
 223 680 240 680 257 680 c 2
 773 680 l 2
 787 680 803 680 805 663 c 2
 782 465 l 2
 780 446 779 439 753 439 c 0
 743 439 725 439 725 458 c 0
 725 462 727 475 728 479 c 0
 731 505 731 508 731 527 c 0
 731 633 666 633 544 633 c 0
 517 633 476 633 462 631 c 1
 399 376 l 1
 441 376 l 2
 520 376 538 401 556 471 c 0
 561 490 564 493 586 493 c 0
 596 493 614 493 614 475 c 0
 614 472 613 469 611 462 c 2
 555 236 l 2
 549 212 542 212 525 212 c 0
 515 212 497 212 497 230 c 2
 497 230 498 237 500 244 c 0
 504 262 507 282 507 289 c 0
 507 319 493 329 438 329 c 2
 387 329 l 1
 317 48 l 1
 324 47 331 47 340 47 c 2
 440 47 l 2
 603 47 646 124 699 247 c 0
 711 273 711 274 733 274 c 0
 743 274 761 274 761 256 c 0
750 861 m 0
 744 831 717 820 702 815 c 2
 536 754 l 2
 530 752 525 751 519 751 c 0
 503 753 496 782 497 788 c 0
 498 795 506 801 512 805 c 2
 652 896 l 2
 672 909 685 918 703 918 c 0
 735 918 755 893 750 861 c 0
EndSplineSet
Position2: "'cpsp' Capital Spacing lookup 0 subtable" dx=7 dy=0 dh=14 dv=0
EndChar

StartChar: Ecircumflex
Encoding: 202 202 138
Width: 757
GlyphClass: 2
Flags: MW
HStem: 0 47<88.5 121 99 121 121 127 340 440 440 521.5> 329 47<399 438 387 441> 633 47<247 773 257 276 530.5 605> 741 21G<405 405 725 725> 885 20G<593 593>
LayerCount: 2
Fore
SplineSet
761 256 m 0
 761 250 758 244 756 239 c 2
 661 17 l 2
 654 0 649 0 628 0 c 2
 96 0 l 2
 81 0 64 0 64 18 c 0
 64 47 82 47 99 47 c 2
 121 47 l 2
 133 47 149 48 161 49 c 0
 179 50 180 51 184 65 c 2
 325 631 l 1
 319 631 286 633 276 633 c 2
 254 633 l 2
 240 633 223 633 223 651 c 0
 223 680 240 680 257 680 c 2
 773 680 l 2
 787 680 803 680 805 663 c 2
 782 465 l 2
 780 446 779 439 753 439 c 0
 743 439 725 439 725 458 c 0
 725 462 727 475 728 479 c 0
 731 505 731 508 731 527 c 0
 731 633 666 633 544 633 c 0
 517 633 476 633 462 631 c 1
 399 376 l 1
 441 376 l 2
 520 376 538 401 556 471 c 0
 561 490 564 493 586 493 c 0
 596 493 614 493 614 475 c 0
 614 472 613 469 611 462 c 2
 555 236 l 2
 549 212 542 212 525 212 c 0
 515 212 497 212 497 230 c 2
 497 230 498 237 500 244 c 0
 504 262 507 282 507 289 c 0
 507 319 493 329 438 329 c 2
 387 329 l 1
 317 48 l 1
 324 47 331 47 340 47 c 2
 440 47 l 2
 603 47 646 124 699 247 c 0
 711 273 711 274 733 274 c 0
 743 274 761 274 761 256 c 0
744 766 m 1
 725 741 l 1
 574 797 l 1
 405 741 l 1
 395 766 l 1
 593 905 l 1
 744 766 l 1
EndSplineSet
Position2: "'cpsp' Capital Spacing lookup 0 subtable" dx=7 dy=0 dh=14 dv=0
EndChar

StartChar: Edieresis
Encoding: 203 203 139
Width: 757
GlyphClass: 2
Flags: MW
HStem: 0 47<88.5 121 99 121 121 127 340 440 440 521.5> 329 47<399 438 387 441> 633 47<247 773 257 276 530.5 605> 741 132<425.5 443 716.5 734>
LayerCount: 2
Fore
SplineSet
761 256 m 0
 761 250 758 244 756 239 c 2
 661 17 l 2
 654 0 649 0 628 0 c 2
 96 0 l 2
 81 0 64 0 64 18 c 0
 64 47 82 47 99 47 c 2
 121 47 l 2
 133 47 149 48 161 49 c 0
 179 50 180 51 184 65 c 2
 325 631 l 1
 319 631 286 633 276 633 c 2
 254 633 l 2
 240 633 223 633 223 651 c 0
 223 680 240 680 257 680 c 2
 773 680 l 2
 787 680 803 680 805 663 c 2
 782 465 l 2
 780 446 779 439 753 439 c 0
 743 439 725 439 725 458 c 0
 725 462 727 475 728 479 c 0
 731 505 731 508 731 527 c 0
 731 633 666 633 544 633 c 0
 517 633 476 633 462 631 c 1
 399 376 l 1
 441 376 l 2
 520 376 538 401 556 471 c 0
 561 490 564 493 586 493 c 0
 596 493 614 493 614 475 c 0
 614 472 613 469 611 462 c 2
 555 236 l 2
 549 212 542 212 525 212 c 0
 515 212 497 212 497 230 c 2
 497 230 498 237 500 244 c 0
 504 262 507 282 507 289 c 0
 507 319 493 329 438 329 c 2
 387 329 l 1
 317 48 l 1
 324 47 331 47 340 47 c 2
 440 47 l 2
 603 47 646 124 699 247 c 0
 711 273 711 274 733 274 c 0
 743 274 761 274 761 256 c 0
502 819 m 0
 502 780 464 741 422 741 c 0
 387 741 367 766 366 795 c 0
 366 834 405 873 446 873 c 0
 483 873 502 844 502 819 c 0
793 819 m 0
 793 780 755 741 713 741 c 0
 678 741 658 766 657 795 c 0
 657 834 696 873 737 873 c 0
 774 873 793 844 793 819 c 0
EndSplineSet
Position2: "'cpsp' Capital Spacing lookup 0 subtable" dx=7 dy=0 dh=14 dv=0
EndChar

StartChar: Igrave
Encoding: 204 204 140
Width: 472
GlyphClass: 2
Flags: MW
HStem: 0 47<94 106.5 369 393 393 400.5> 637 46 639 47<243.5 251 251 274 242.5 275 537.5 550> 751 21G<467.5 471> 898 20G<354.5 379.5>
LayerCount: 2
Fore
SplineSet
585 668 m 0x20
 585 639 567 639 550 639 c 2
 525 639 l 2x20
 513 639 496 638 484 637 c 0
 464 636 463 635 459 620 c 2
 317 49 l 1
 368 47 l 1
 393 47 l 2
 408 47 425 47 425 29 c 0
 425 0 406 0 395 0 c 0
 343 0 289 3 236 3 c 0
 185 3 132 0 81 0 c 0
 69 0 59 5 59 18 c 0
 59 47 76 47 94 47 c 2
 118 47 l 2
 129 47 148 47 159 48 c 0
 179 50 180 51 184 65 c 2
 326 637 l 1xc0
 315 637 280 639 275 639 c 2
 251 639 l 2
 236 639 219 639 219 657 c 0
 219 686 237 686 248 686 c 0
 300 686 354 683 407 683 c 0
 459 683 512 686 563 686 c 0
 584 686 585 671 585 668 c 0x20
511 788 m 0x18
 509 782 488 753 471 751 c 0
 464 751 460 752 455 754 c 2
 320 815 l 2
 307 820 286 831 295 861 c 0
 305 893 338 918 371 918 c 0
 388 918 397 909 410 896 c 2
 505 805 l 2
 509 801 514 795 511 788 c 0x18
EndSplineSet
Position2: "'cpsp' Capital Spacing lookup 0 subtable" dx=7 dy=0 dh=14 dv=0
EndChar

StartChar: Iacute
Encoding: 205 205 141
Width: 472
GlyphClass: 2
Flags: MW
HStem: 0 47<94 106.5 369 393 393 400.5> 637 46 639 47<243.5 251 251 274 242.5 275 537.5 550> 751 21G<377 380> 898 20G<552 577>
LayerCount: 2
Fore
SplineSet
585 668 m 0x20
 585 639 567 639 550 639 c 2
 525 639 l 2x20
 513 639 496 638 484 637 c 0
 464 636 463 635 459 620 c 2
 317 49 l 1
 368 47 l 1
 393 47 l 2
 408 47 425 47 425 29 c 0
 425 0 406 0 395 0 c 0
 343 0 289 3 236 3 c 0
 185 3 132 0 81 0 c 0
 69 0 59 5 59 18 c 0
 59 47 76 47 94 47 c 2
 118 47 l 2
 129 47 148 47 159 48 c 0
 179 50 180 51 184 65 c 2
 326 637 l 1xc0
 315 637 280 639 275 639 c 2
 251 639 l 2
 236 639 219 639 219 657 c 0
 219 686 237 686 248 686 c 0
 300 686 354 683 407 683 c 0
 459 683 512 686 563 686 c 0
 584 686 585 671 585 668 c 0x20
608 861 m 0x18
 602 831 575 820 560 815 c 2
 394 754 l 2
 388 752 383 751 377 751 c 0
 361 753 354 782 355 788 c 0
 356 795 364 801 370 805 c 2
 510 896 l 2
 530 909 543 918 561 918 c 0
 593 918 613 893 608 861 c 0x18
EndSplineSet
Position2: "'cpsp' Capital Spacing lookup 0 subtable" dx=7 dy=0 dh=14 dv=0
EndChar

StartChar: Icircumflex
Encoding: 206 206 142
Width: 472
GlyphClass: 2
Flags: MW
HStem: 0 47<94 106.5 369 393 393 400.5> 637 46 639 47<243.5 251 251 274 242.5 275 537.5 550> 741 21G<263 263 583 583> 885 20G<451 451>
LayerCount: 2
Fore
SplineSet
585 668 m 0x20
 585 639 567 639 550 639 c 2
 525 639 l 2x20
 513 639 496 638 484 637 c 0
 464 636 463 635 459 620 c 2
 317 49 l 1
 368 47 l 1
 393 47 l 2
 408 47 425 47 425 29 c 0
 425 0 406 0 395 0 c 0
 343 0 289 3 236 3 c 0
 185 3 132 0 81 0 c 0
 69 0 59 5 59 18 c 0
 59 47 76 47 94 47 c 2
 118 47 l 2
 129 47 148 47 159 48 c 0
 179 50 180 51 184 65 c 2
 326 637 l 1xc0
 315 637 280 639 275 639 c 2
 251 639 l 2
 236 639 219 639 219 657 c 0
 219 686 237 686 248 686 c 0
 300 686 354 683 407 683 c 0
 459 683 512 686 563 686 c 0
 584 686 585 671 585 668 c 0x20
602 766 m 1x18
 583 741 l 1
 432 797 l 1
 263 741 l 1
 253 766 l 1
 451 905 l 1
 602 766 l 1x18
EndSplineSet
Position2: "'cpsp' Capital Spacing lookup 0 subtable" dx=7 dy=0 dh=14 dv=0
EndChar

StartChar: Idieresis
Encoding: 207 207 143
Width: 472
GlyphClass: 2
Flags: MW
HStem: 0 47<94 106.5 369 393 393 400.5> 637 46 639 47<243.5 251 251 274 242.5 275 537.5 550> 741 132<283.5 301 574.5 592>
LayerCount: 2
Fore
SplineSet
585 668 m 0x20
 585 639 567 639 550 639 c 2
 525 639 l 2x20
 513 639 496 638 484 637 c 0
 464 636 463 635 459 620 c 2
 317 49 l 1
 368 47 l 1
 393 47 l 2
 408 47 425 47 425 29 c 0
 425 0 406 0 395 0 c 0
 343 0 289 3 236 3 c 0
 185 3 132 0 81 0 c 0
 69 0 59 5 59 18 c 0
 59 47 76 47 94 47 c 2
 118 47 l 2
 129 47 148 47 159 48 c 0
 179 50 180 51 184 65 c 2
 326 637 l 1xc0
 315 637 280 639 275 639 c 2
 251 639 l 2
 236 639 219 639 219 657 c 0
 219 686 237 686 248 686 c 0
 300 686 354 683 407 683 c 0
 459 683 512 686 563 686 c 0
 584 686 585 671 585 668 c 0x20
360 819 m 0x10
 360 780 322 741 280 741 c 0
 245 741 225 766 224 795 c 0
 224 834 263 873 304 873 c 0
 341 873 360 844 360 819 c 0x10
651 819 m 0
 651 780 613 741 571 741 c 0
 536 741 516 766 515 795 c 0
 515 834 554 873 595 873 c 0
 632 873 651 844 651 819 c 0
EndSplineSet
Position2: "'cpsp' Capital Spacing lookup 0 subtable" dx=7 dy=0 dh=14 dv=0
EndChar

StartChar: Eth
Encoding: 208 208 144
Width: 876
GlyphClass: 2
Flags: MW
HStem: 0 47<88.5 121 99 121 121 127 334 438 438 464> 319 48<131.5 260 150 247 390 518> 639 47<248.5 635 259 278 474.5 490 490 585>
VStem: 757 128<456 534.5 345 549>
CounterMasks: 1 e0
LayerCount: 2
Fore
SplineSet
885 446 m 0
 885 244 733 0 464 0 c 2
 96 0 l 2
 81 0 64 0 64 18 c 0
 64 47 82 47 99 47 c 2
 121 47 l 2
 133 47 149 48 161 49 c 0
 179 50 180 51 184 65 c 2
 247 319 l 1
 138 319 l 2
 125 319 117 330 120 343 c 0
 123 356 137 367 150 367 c 2
 260 367 l 1
 327 637 l 1
 315 638 289 639 278 639 c 2
 256 639 l 2
 241 639 224 639 224 657 c 0
 224 686 242 686 259 686 c 2
 635 686 l 2
 759 686 885 623 885 446 c 0
757 483 m 0
 757 615 656 639 585 639 c 2
 490 639 l 2
 459 639 458 638 454 623 c 2
 390 367 l 1
 530 367 l 2
 543 367 551 356 548 343 c 0
 544 330 531 319 518 319 c 2
 378 319 l 1
 311 48 l 1
 318 47 325 47 334 47 c 2
 438 47 l 2
 538 47 621 91 673 174 c 0
 719 249 757 429 757 483 c 0
EndSplineSet
Position2: "'cpsp' Capital Spacing lookup 0 subtable" dx=7 dy=0 dh=14 dv=0
EndChar

StartChar: Ntilde
Encoding: 209 209 145
Width: 896
GlyphClass: 2
Flags: MW
HStem: 0 47<90 102.5 309.5 321> 639 47<248.5 444 259 283 746 757.5 968 979> 741 58<679 725.5> 802 58<591 592>
VStem: 64 281<16 32.5> 722 281<653.5 671.5>
LayerCount: 2
Fore
SplineSet
1003 668 m 0
 1003 639 986 639 972 639 c 0
 964 639 938 639 915 634 c 0
 886 628 885 625 881 610 c 2
 735 24 l 2
 729 0 724 0 701 0 c 0
 679 0 678 1 670 16 c 2
 376 584 l 1
 245 57 l 1
 269 47 305 47 314 47 c 0
 328 47 345 47 345 29 c 0
 345 0 326 0 318 0 c 0
 280 0 238 3 199 3 c 0
 161 3 121 0 84 0 c 0
 67 0 64 14 64 18 c 0
 64 47 82 47 98 47 c 0
 123 47 144 50 155 52 c 0
 182 58 183 62 187 77 c 2
 323 623 l 2
 324 626 326 634 326 634 c 2
 326 637 326 639 283 639 c 2
 256 639 l 2
 241 639 224 639 224 657 c 0
 224 686 242 686 259 686 c 2
 444 686 l 2
 467 686 468 685 477 669 c 2
 717 206 l 1
 823 629 l 1
 798 639 762 639 753 639 c 0
 739 639 722 639 722 657 c 0
 722 686 742 686 750 686 c 0
 788 686 829 683 868 683 c 0
 906 683 946 686 983 686 c 0
 994 686 1003 679 1003 668 c 0
835 842 m 0
 835 828 790 793 774 780 c 0
 749 760 717 741 688 741 c 0
 670 741 651 746 620 780 c 0
 609 794 599 802 585 802 c 0
 558 802 519 770 497 751 c 0
 491 745 486 741 479 741 c 0
 466 741 461 753 461 759 c 0
 461 772 502 805 518 817 c 0
 536 831 574 860 608 860 c 0
 628 860 648 852 669 828 c 0
 688 806 698 799 711 799 c 0
 740 799 783 836 796 847 c 0
 805 856 809 860 817 860 c 0
 827 860 835 852 835 842 c 0
EndSplineSet
Position2: "'cpsp' Capital Spacing lookup 0 subtable" dx=7 dy=0 dh=14 dv=0
EndChar

StartChar: Ograve
Encoding: 210 210 146
Width: 855
GlyphClass: 2
Flags: MW
HStem: -17 42<408 463 408 565.5> 663 40<566 654> 751 21G<658.5 662> 898 20G<545.5 570.5>
VStem: 160 137<178.5 229 178.5 329.5> 733 132<466 529>
LayerCount: 2
Fore
SplineSet
865 453 m 0
 865 242 707 -17 424 -17 c 0
 276 -17 160 59 160 229 c 0
 160 430 315 703 603 703 c 0
 741 703 865 633 865 453 c 0
733 501 m 0
 733 557 715 663 593 663 c 0
 539 663 453 637 388 530 c 0
 334 440 297 265 297 193 c 0
 297 164 300 111 330 72 c 0
 348 50 382 25 434 25 c 0
 492 25 565 54 629 148 c 0
 692 240 733 431 733 501 c 0
702 788 m 0
 700 782 679 753 662 751 c 0
 655 751 651 752 646 754 c 2
 511 815 l 2
 498 820 477 831 486 861 c 0
 496 893 529 918 562 918 c 0
 579 918 588 909 601 896 c 2
 696 805 l 2
 700 801 705 795 702 788 c 0
EndSplineSet
Position2: "'cpsp' Capital Spacing lookup 0 subtable" dx=7 dy=0 dh=14 dv=0
EndChar

StartChar: Oacute
Encoding: 211 211 147
Width: 855
GlyphClass: 2
Flags: MW
HStem: -17 42<408 463 408 565.5> 663 40<566 654> 751 21G<568 571> 898 20G<743 768>
VStem: 160 137<178.5 229 178.5 329.5> 733 132<466 529>
LayerCount: 2
Fore
SplineSet
865 453 m 0
 865 242 707 -17 424 -17 c 0
 276 -17 160 59 160 229 c 0
 160 430 315 703 603 703 c 0
 741 703 865 633 865 453 c 0
733 501 m 0
 733 557 715 663 593 663 c 0
 539 663 453 637 388 530 c 0
 334 440 297 265 297 193 c 0
 297 164 300 111 330 72 c 0
 348 50 382 25 434 25 c 0
 492 25 565 54 629 148 c 0
 692 240 733 431 733 501 c 0
799 861 m 0
 793 831 766 820 751 815 c 2
 585 754 l 2
 579 752 574 751 568 751 c 0
 552 753 545 782 546 788 c 0
 547 795 555 801 561 805 c 2
 701 896 l 2
 721 909 734 918 752 918 c 0
 784 918 804 893 799 861 c 0
EndSplineSet
Position2: "'cpsp' Capital Spacing lookup 0 subtable" dx=7 dy=0 dh=14 dv=0
EndChar

StartChar: Ocircumflex
Encoding: 212 212 148
Width: 855
GlyphClass: 2
Flags: MW
HStem: -17 42<408 463 408 565.5> 663 40<566 654> 741 21G<454 454 774 774> 885 20G<642 642>
VStem: 160 137<178.5 229 178.5 329.5> 733 132<466 529>
LayerCount: 2
Fore
SplineSet
865 453 m 0
 865 242 707 -17 424 -17 c 0
 276 -17 160 59 160 229 c 0
 160 430 315 703 603 703 c 0
 741 703 865 633 865 453 c 0
733 501 m 0
 733 557 715 663 593 663 c 0
 539 663 453 637 388 530 c 0
 334 440 297 265 297 193 c 0
 297 164 300 111 330 72 c 0
 348 50 382 25 434 25 c 0
 492 25 565 54 629 148 c 0
 692 240 733 431 733 501 c 0
793 766 m 1
 774 741 l 1
 623 797 l 1
 454 741 l 1
 444 766 l 1
 642 905 l 1
 793 766 l 1
EndSplineSet
Position2: "'cpsp' Capital Spacing lookup 0 subtable" dx=7 dy=0 dh=14 dv=0
EndChar

StartChar: Otilde
Encoding: 213 213 149
Width: 855
GlyphClass: 2
Flags: MW
HStem: -17 42<408 463 408 565.5> 663 40<566 654> 741 58<658 704.5> 802 58<570 571>
VStem: 160 137<178.5 229 178.5 329.5> 733 132<466 529>
LayerCount: 2
Fore
SplineSet
865 453 m 0
 865 242 707 -17 424 -17 c 0
 276 -17 160 59 160 229 c 0
 160 430 315 703 603 703 c 0
 741 703 865 633 865 453 c 0
733 501 m 0
 733 557 715 663 593 663 c 0
 539 663 453 637 388 530 c 0
 334 440 297 265 297 193 c 0
 297 164 300 111 330 72 c 0
 348 50 382 25 434 25 c 0
 492 25 565 54 629 148 c 0
 692 240 733 431 733 501 c 0
814 842 m 0
 814 828 769 793 753 780 c 0
 728 760 696 741 667 741 c 0
 649 741 630 746 599 780 c 0
 588 794 578 802 564 802 c 0
 537 802 498 770 476 751 c 0
 470 745 465 741 458 741 c 0
 445 741 440 753 440 759 c 0
 440 772 481 805 497 817 c 0
 515 831 553 860 587 860 c 0
 607 860 627 852 648 828 c 0
 667 806 677 799 690 799 c 0
 719 799 762 836 775 847 c 0
 784 856 788 860 796 860 c 0
 806 860 814 852 814 842 c 0
EndSplineSet
Position2: "'cpsp' Capital Spacing lookup 0 subtable" dx=7 dy=0 dh=14 dv=0
EndChar

StartChar: Odieresis
Encoding: 214 214 150
Width: 855
GlyphClass: 2
Flags: MW
HStem: -17 42<408 463 408 565.5> 663 40<566 654> 741 132<474.5 492 765.5 783>
VStem: 160 137<178.5 229 178.5 329.5> 733 132<466 529>
LayerCount: 2
Fore
SplineSet
865 453 m 0
 865 242 707 -17 424 -17 c 0
 276 -17 160 59 160 229 c 0
 160 430 315 703 603 703 c 0
 741 703 865 633 865 453 c 0
733 501 m 0
 733 557 715 663 593 663 c 0
 539 663 453 637 388 530 c 0
 334 440 297 265 297 193 c 0
 297 164 300 111 330 72 c 0
 348 50 382 25 434 25 c 0
 492 25 565 54 629 148 c 0
 692 240 733 431 733 501 c 0
551 819 m 0
 551 780 513 741 471 741 c 0
 436 741 416 766 415 795 c 0
 415 834 454 873 495 873 c 0
 532 873 551 844 551 819 c 0
842 819 m 0
 842 780 804 741 762 741 c 0
 727 741 707 766 706 795 c 0
 706 834 745 873 786 873 c 0
 823 873 842 844 842 819 c 0
EndSplineSet
Position2: "'cpsp' Capital Spacing lookup 0 subtable" dx=7 dy=0 dh=14 dv=0
EndChar

StartChar: multiply
Encoding: 215 215 151
Width: 886
GlyphClass: 2
Flags: MW
HStem: -5 20G<255 255> 486 21G<374 374 757 757>
LayerCount: 2
Fore
SplineSet
700 7 m 0
 685 -5 662 -7 649 2 c 0
 647 3 644 6 641 12 c 2
 494 207 l 1
 255 15 l 2
 242 5 217 -15 194 1 c 0
 171 17 197 38 209 48 c 2
 462 250 l 1
 308 456 l 2
 303 462 292 478 313 495 c 0
 324 504 347 511 363 500 c 0
 366 497 367 496 374 486 c 2
 518 294 l 1
 757 486 l 2
 768 494 795 516 818 500 c 0
 841 484 813 461 803 454 c 2
 550 251 l 1
 705 45 l 2
 709 39 721 24 700 7 c 0
EndSplineSet
EndChar

StartChar: Oslash
Encoding: 216 216 152
Width: 886
GlyphClass: 2
Flags: MW
HStem: -68 21G<177.5 186> -17 36<417 476.5 417 585.5> 667 36<581.5 645.5> 734 20G<872.5 878>
VStem: 161 123<177 203.5 177 334> 772 123<465.5 507>
LayerCount: 2
Fore
SplineSet
895 449 m 0
 895 235 732 -17 439 -17 c 0
 363 -17 311 1 272 22 c 1
 231 -22 218 -39 205 -53 c 0
 190 -67 189 -68 183 -68 c 0
 172 -68 162 -57 162 -48 c 0
 162 -41 167 -36 180 -21 c 2
 239 46 l 1
 216 67 161 115 161 234 c 0
 161 434 319 703 619 703 c 0
 695 703 752 682 786 663 c 1
 853 740 l 2
 865 754 871 754 874 754 c 0
 882 754 895 746 895 734 c 0
 895 728 895 726 877 707 c 0
 858 684 838 662 818 640 c 1
 830 630 895 575 895 449 c 0
740 612 m 1
 722 635 682 667 609 667 c 0
 554 667 466 645 400 560 c 0
 319 453 284 225 284 182 c 0
 284 172 284 142 296 111 c 1
 740 612 l 1
772 501 m 0
 772 513 772 545 761 575 c 1
 317 73 l 1
 340 43 386 19 448 19 c 0
 505 19 603 38 676 151 c 0
 727 230 772 430 772 501 c 0
EndSplineSet
Position2: "'cpsp' Capital Spacing lookup 0 subtable" dx=7 dy=0 dh=14 dv=0
EndChar

StartChar: Ugrave
Encoding: 217 217 153
Width: 881
GlyphClass: 2
Flags: MW
HStem: -17 47<448 518 448 552> 639 47<248.5 256 256 278 545 553.5 732 743.5 953 964> 751 21G<698.5 702> 898 20G<585.5 610.5>
VStem: 218 128<120.5 150 120.5 186> 708 280<653.5 671.5>
LayerCount: 2
Fore
SplineSet
988 668 m 0
 988 639 971 639 957 639 c 0
 949 639 923 639 900 634 c 0
 871 628 870 625 866 610 c 2
 769 220 l 2
 744 119 646 -17 458 -17 c 0
 312 -17 218 52 218 173 c 0
 218 199 223 224 225 231 c 2
 327 637 l 1
 315 638 289 639 278 639 c 2
 256 639 l 2
 241 639 224 639 224 657 c 0
 224 686 243 686 253 686 c 0
 303 686 356 683 407 683 c 0
 457 683 508 686 557 686 c 0
 568 686 579 681 579 668 c 0
 579 639 562 639 545 639 c 2
 483 638 l 2
 464 636 463 635 459 620 c 2
 358 215 l 2
 351 185 346 167 346 133 c 0
 346 108 350 77 378 54 c 0
 400 37 433 30 463 30 c 0
 573 30 675 93 710 233 c 2
 809 629 l 1
 784 639 748 639 739 639 c 0
 725 639 708 639 708 657 c 0
 708 686 728 686 735 686 c 0
 774 686 815 683 854 683 c 0
 892 683 931 686 968 686 c 0
 979 686 988 679 988 668 c 0
742 788 m 0
 740 782 719 753 702 751 c 0
 695 751 691 752 686 754 c 2
 551 815 l 2
 538 820 517 831 526 861 c 0
 536 893 569 918 602 918 c 0
 619 918 628 909 641 896 c 2
 736 805 l 2
 740 801 745 795 742 788 c 0
EndSplineSet
Position2: "'cpsp' Capital Spacing lookup 0 subtable" dx=7 dy=0 dh=14 dv=0
EndChar

StartChar: Uacute
Encoding: 218 218 154
Width: 881
GlyphClass: 2
Flags: MW
HStem: -17 47<448 518 448 552> 639 47<248.5 256 256 278 545 553.5 732 743.5 953 964> 751 21G<608 611> 898 20G<783 808>
VStem: 218 128<120.5 150 120.5 186> 708 280<653.5 671.5>
LayerCount: 2
Fore
SplineSet
988 668 m 0
 988 639 971 639 957 639 c 0
 949 639 923 639 900 634 c 0
 871 628 870 625 866 610 c 2
 769 220 l 2
 744 119 646 -17 458 -17 c 0
 312 -17 218 52 218 173 c 0
 218 199 223 224 225 231 c 2
 327 637 l 1
 315 638 289 639 278 639 c 2
 256 639 l 2
 241 639 224 639 224 657 c 0
 224 686 243 686 253 686 c 0
 303 686 356 683 407 683 c 0
 457 683 508 686 557 686 c 0
 568 686 579 681 579 668 c 0
 579 639 562 639 545 639 c 2
 483 638 l 2
 464 636 463 635 459 620 c 2
 358 215 l 2
 351 185 346 167 346 133 c 0
 346 108 350 77 378 54 c 0
 400 37 433 30 463 30 c 0
 573 30 675 93 710 233 c 2
 809 629 l 1
 784 639 748 639 739 639 c 0
 725 639 708 639 708 657 c 0
 708 686 728 686 735 686 c 0
 774 686 815 683 854 683 c 0
 892 683 931 686 968 686 c 0
 979 686 988 679 988 668 c 0
839 861 m 0
 833 831 806 820 791 815 c 2
 625 754 l 2
 619 752 614 751 608 751 c 0
 592 753 585 782 586 788 c 0
 587 795 595 801 601 805 c 2
 741 896 l 2
 761 909 774 918 792 918 c 0
 824 918 844 893 839 861 c 0
EndSplineSet
Position2: "'cpsp' Capital Spacing lookup 0 subtable" dx=7 dy=0 dh=14 dv=0
EndChar

StartChar: Ucircumflex
Encoding: 219 219 155
Width: 881
GlyphClass: 2
Flags: MW
HStem: -17 47<448 518 448 552> 639 47<248.5 256 256 278 545 553.5 732 743.5 953 964> 741 21G<494 494 814 814> 885 20G<682 682>
VStem: 218 128<120.5 150 120.5 186> 708 280<653.5 671.5>
LayerCount: 2
Fore
SplineSet
988 668 m 0
 988 639 971 639 957 639 c 0
 949 639 923 639 900 634 c 0
 871 628 870 625 866 610 c 2
 769 220 l 2
 744 119 646 -17 458 -17 c 0
 312 -17 218 52 218 173 c 0
 218 199 223 224 225 231 c 2
 327 637 l 1
 315 638 289 639 278 639 c 2
 256 639 l 2
 241 639 224 639 224 657 c 0
 224 686 243 686 253 686 c 0
 303 686 356 683 407 683 c 0
 457 683 508 686 557 686 c 0
 568 686 579 681 579 668 c 0
 579 639 562 639 545 639 c 2
 483 638 l 2
 464 636 463 635 459 620 c 2
 358 215 l 2
 351 185 346 167 346 133 c 0
 346 108 350 77 378 54 c 0
 400 37 433 30 463 30 c 0
 573 30 675 93 710 233 c 2
 809 629 l 1
 784 639 748 639 739 639 c 0
 725 639 708 639 708 657 c 0
 708 686 728 686 735 686 c 0
 774 686 815 683 854 683 c 0
 892 683 931 686 968 686 c 0
 979 686 988 679 988 668 c 0
833 766 m 1
 814 741 l 1
 663 797 l 1
 494 741 l 1
 484 766 l 1
 682 905 l 1
 833 766 l 1
EndSplineSet
Position2: "'cpsp' Capital Spacing lookup 0 subtable" dx=7 dy=0 dh=14 dv=0
EndChar

StartChar: Udieresis
Encoding: 220 220 156
Width: 881
GlyphClass: 2
Flags: MW
HStem: -17 47<448 518 448 552> 639 47<248.5 256 256 278 545 553.5 732 743.5 953 964> 741 132<514.5 532 805.5 823>
VStem: 218 128<120.5 150 120.5 186> 708 280<653.5 671.5>
LayerCount: 2
Fore
SplineSet
988 668 m 0
 988 639 971 639 957 639 c 0
 949 639 923 639 900 634 c 0
 871 628 870 625 866 610 c 2
 769 220 l 2
 744 119 646 -17 458 -17 c 0
 312 -17 218 52 218 173 c 0
 218 199 223 224 225 231 c 2
 327 637 l 1
 315 638 289 639 278 639 c 2
 256 639 l 2
 241 639 224 639 224 657 c 0
 224 686 243 686 253 686 c 0
 303 686 356 683 407 683 c 0
 457 683 508 686 557 686 c 0
 568 686 579 681 579 668 c 0
 579 639 562 639 545 639 c 2
 483 638 l 2
 464 636 463 635 459 620 c 2
 358 215 l 2
 351 185 346 167 346 133 c 0
 346 108 350 77 378 54 c 0
 400 37 433 30 463 30 c 0
 573 30 675 93 710 233 c 2
 809 629 l 1
 784 639 748 639 739 639 c 0
 725 639 708 639 708 657 c 0
 708 686 728 686 735 686 c 0
 774 686 815 683 854 683 c 0
 892 683 931 686 968 686 c 0
 979 686 988 679 988 668 c 0
591 819 m 0
 591 780 553 741 511 741 c 0
 476 741 456 766 455 795 c 0
 455 834 494 873 535 873 c 0
 572 873 591 844 591 819 c 0
882 819 m 0
 882 780 844 741 802 741 c 0
 767 741 747 766 746 795 c 0
 746 834 785 873 826 873 c 0
 863 873 882 844 882 819 c 0
EndSplineSet
Position2: "'cpsp' Capital Spacing lookup 0 subtable" dx=7 dy=0 dh=14 dv=0
EndChar

StartChar: Yacute
Encoding: 221 221 157
Width: 866
GlyphClass: 2
Flags: MW
HStem: 0 47<299 310 560.5 582 582 589.5> 639 47<237 244 244 256 508.5 526.5 751 761.5 955 961> 751 21G<574 577> 898 20G<749 774>
VStem: 727 258<653.5 671.5>
LayerCount: 2
Fore
SplineSet
985 668 m 0
 985 639 967 639 955 639 c 0
 882 638 866 620 848 599 c 2
 567 274 l 1
 511 49 l 1
 523 48 549 47 560 47 c 2
 582 47 l 2
 597 47 614 47 614 29 c 0
 614 0 595 0 585 0 c 0
 536 0 484 3 434 3 c 0
 385 3 334 0 286 0 c 0
 275 0 264 5 264 18 c 0
 264 47 282 47 299 47 c 2
 321 47 l 2
 332 47 350 47 361 48 c 0
 380 51 381 52 385 66 c 2
 437 274 l 1
 309 623 l 2
 304 635 303 636 289 638 c 0
 280 639 265 639 256 639 c 2
 244 639 l 2
 230 639 212 639 212 657 c 0
 212 686 232 686 240 686 c 0
 285 686 332 683 378 683 c 0
 428 683 480 686 529 686 c 0
 539 686 551 682 551 668 c 0
 551 639 533 639 520 639 c 0
 497 639 483 638 459 635 c 1
 562 351 l 1
 803 631 l 1
 787 637 770 639 753 639 c 0
 745 639 727 639 727 657 c 0
 727 686 747 686 755 686 c 0
 792 686 832 683 870 683 c 0
 902 683 935 686 966 686 c 0
 979 686 985 676 985 668 c 0
805 861 m 0
 799 831 772 820 757 815 c 2
 591 754 l 2
 585 752 580 751 574 751 c 0
 558 753 551 782 552 788 c 0
 553 795 561 801 567 805 c 2
 707 896 l 2
 727 909 740 918 758 918 c 0
 790 918 810 893 805 861 c 0
EndSplineSet
Position2: "'cpsp' Capital Spacing lookup 0 subtable" dx=7 dy=0 dh=14 dv=0
EndChar

StartChar: Thorn
Encoding: 222 222 158
Width: 728
GlyphClass: 2
Flags: MW
HStem: 0 47<75 99 380 384> 178 47<350 434 434 456 338 434> 517 47<435 525 423 562> 639 47<249 253 248.5 272>
VStem: 600 137<413.5 474.5>
LayerCount: 2
Fore
SplineSet
737 421 m 0
 737 328 662 178 456 178 c 2
 338 178 l 1
 306 49 l 1
 317 48 342 47 376 47 c 0
 392 47 408 47 408 28 c 0
 408 0 389 0 380 0 c 2
 231 3 l 1
 86 0 l 2
 64 0 64 18 64 18 c 1
 64 47 83 47 99 47 c 2
 99 47 151 47 162 48 c 0
 179 50 180 51 184 65 c 2
 327 637 l 1
 321 637 288 639 256 639 c 0
 242 639 224 639 224 657 c 0
 224 686 244 686 253 686 c 2
 402 683 l 1
 546 686 l 2
 558 686 568 680 568 668 c 0
 568 639 550 639 533 639 c 2
 511 639 l 2
 474 639 452 635 452 635 c 1
 435 564 l 1
 562 564 l 2
 648 564 737 529 737 421 c 0
600 432 m 0
 600 517 544 517 525 517 c 2
 423 517 l 1
 350 225 l 1
 434 225 l 2
 577 225 600 395 600 432 c 0
EndSplineSet
Position2: "'cpsp' Capital Spacing lookup 0 subtable" dx=7 dy=0 dh=14 dv=0
EndChar

StartChar: germandbls
Encoding: 223 223 159
Width: 665
GlyphClass: 2
Flags: MW
HStem: -202 36<79 89.5> -8 36<433.5 471 433.5 492.5> 397 47<142.5 245 153 236> 666 36<464 540>
VStem: -13 121<-108 -100.5> 324 97<52 112.5> 523 120<153.5 169>
LayerCount: 2
Fore
SplineSet
643 165 m 0
 643 76 545 -8 440 -8 c 0
 372 -8 324 27 324 77 c 0
 324 114 349 141 381 141 c 0
 409 141 421 121 421 104 c 1
 421 104 421 78 400 61 c 2
 388 52 l 1
 402 33 427 28 440 28 c 0
 502 28 523 151 523 156 c 0
 523 182 507 200 494 214 c 0
 467 243 463 277 463 301 c 0
 463 362 484 388 525 432 c 0
 540 449 550 459 566 510 c 0
 567 515 586 575 586 595 c 0
 586 612 579 666 501 666 c 0
 401 666 386 629 370 542 c 2
 281 64 l 2
 274 29 265 -6 253 -40 c 0
 203 -191 101 -202 78 -202 c 0
 26 -202 -13 -170 -13 -124 c 0
 -13 -77 24 -48 58 -48 c 0
 88 -48 108 -67 108 -94 c 0
 108 -122 89 -150 61 -161 c 1
 70 -166 79 -166 79 -166 c 1
 132 -166 152 -61 168 27 c 2
 236 397 l 1
 150 397 l 2
 135 397 118 397 118 415 c 0
 118 444 136 444 153 444 c 2
 245 444 l 1
 259 521 l 2
 292 702 429 702 499 702 c 0
 639 702 691 652 691 592 c 0
 691 575 691 555 638 484 c 2
 566 387 l 2
 558 376 543 352 543 341 c 0
 543 322 580 285 590 274 c 0
 626 237 643 203 643 165 c 0
EndSplineSet
EndChar

StartChar: agrave
Encoding: 224 224 160
Width: 591
GlyphClass: 2
Flags: MW
HStem: -8 36<248.5 275.5 248.5 286.5 489 512> 416 36<351 377 280 381.5> 502 21G<451 462> 679 20G<379.5 403>
VStem: 96 107<92.5 126 70.5 219>
LayerCount: 2
Fore
SplineSet
615 148 m 0
 615 144 602 88 576 46 c 0
 563 26 538 -8 491 -8 c 0
 452 -8 407 8 388 43 c 1
 364 24 317 -8 256 -8 c 0
 180 -8 96 33 96 152 c 0
 96 286 196 452 364 452 c 0
 390 452 429 447 461 414 c 1
 474 427 491 435 508 435 c 0
 536 435 553 416 553 393 c 0
 553 389 553 387 549 372 c 2
 482 102 l 2
 478 86 476 78 476 59 c 0
 476 36 483 28 495 28 c 0
 529 28 547 103 555 136 c 0
 562 161 563 162 587 162 c 0
 602 162 615 162 615 148 c 0
376 100 m 1
 377 108 377 111 379 118 c 2
 438 354 l 1
 427 394 399 416 364 416 c 0
 338 416 283 401 249 304 c 0
 238 276 203 153 203 99 c 0
 203 42 237 28 260 28 c 0
 291 28 333 43 376 100 c 1
499 535 m 0
 496 529 470 502 454 502 c 0
 448 502 445 505 441 508 c 2
 333 597 l 2
 323 605 305 620 321 651 c 0
 335 679 367 699 392 699 c 0
 414 699 421 687 431 668 c 2
 496 554 l 2
 500 549 502 542 499 535 c 0
EndSplineSet
EndChar

StartChar: aacute
Encoding: 225 225 161
Width: 591
GlyphClass: 2
Flags: MW
HStem: -8 36<248.5 275.5 248.5 286.5 489 512> 416 36<351 377 280 381.5> 502 21G<380 391> 679 20G<538 561.5>
VStem: 96 107<92.5 126 70.5 219>
LayerCount: 2
Fore
SplineSet
615 148 m 0
 615 144 602 88 576 46 c 0
 563 26 538 -8 491 -8 c 0
 452 -8 407 8 388 43 c 1
 364 24 317 -8 256 -8 c 0
 180 -8 96 33 96 152 c 0
 96 286 196 452 364 452 c 0
 390 452 429 447 461 414 c 1
 474 427 491 435 508 435 c 0
 536 435 553 416 553 393 c 0
 553 389 553 387 549 372 c 2
 482 102 l 2
 478 86 476 78 476 59 c 0
 476 36 483 28 495 28 c 0
 529 28 547 103 555 136 c 0
 562 161 563 162 587 162 c 0
 602 162 615 162 615 148 c 0
376 100 m 1
 377 108 377 111 379 118 c 2
 438 354 l 1
 427 394 399 416 364 416 c 0
 338 416 283 401 249 304 c 0
 238 276 203 153 203 99 c 0
 203 42 237 28 260 28 c 0
 291 28 333 43 376 100 c 1
596 651 m 0
 596 620 571 605 557 597 c 2
 404 508 l 2
 399 505 394 502 388 502 c 0
 372 502 360 529 360 535 c 0
 360 542 366 549 372 554 c 2
 494 668 l 2
 514 687 527 699 549 699 c 0
 574 699 596 679 596 651 c 0
EndSplineSet
EndChar

StartChar: acircumflex
Encoding: 226 226 162
Width: 591
GlyphClass: 2
Flags: MW
HStem: -8 36<248.5 275.5 248.5 286.5 489 512> 416 36<351 377 280 381.5> 497 21G<265 265 580 580> 684 20G<457 457>
VStem: 96 107<92.5 126 70.5 219>
LayerCount: 2
Fore
SplineSet
615 148 m 0
 615 144 602 88 576 46 c 0
 563 26 538 -8 491 -8 c 0
 452 -8 407 8 388 43 c 1
 364 24 317 -8 256 -8 c 0
 180 -8 96 33 96 152 c 0
 96 286 196 452 364 452 c 0
 390 452 429 447 461 414 c 1
 474 427 491 435 508 435 c 0
 536 435 553 416 553 393 c 0
 553 389 553 387 549 372 c 2
 482 102 l 2
 478 86 476 78 476 59 c 0
 476 36 483 28 495 28 c 0
 529 28 547 103 555 136 c 0
 562 161 563 162 587 162 c 0
 602 162 615 162 615 148 c 0
376 100 m 1
 377 108 377 111 379 118 c 2
 438 354 l 1
 427 394 399 416 364 416 c 0
 338 416 283 401 249 304 c 0
 238 276 203 153 203 99 c 0
 203 42 237 28 260 28 c 0
 291 28 333 43 376 100 c 1
603 519 m 1
 580 497 l 1
 439 596 l 1
 265 497 l 1
 250 519 l 1
 457 704 l 1
 603 519 l 1
EndSplineSet
EndChar

StartChar: atilde
Encoding: 227 227 163
Width: 591
GlyphClass: 2
Flags: MW
HStem: -8 36<248.5 275.5 248.5 286.5 489 512> 416 36<351 377 280 381.5> 541 58<477 523.5> 602 58<389 390>
VStem: 96 107<92.5 126 70.5 219>
LayerCount: 2
Fore
SplineSet
615 148 m 0
 615 144 602 88 576 46 c 0
 563 26 538 -8 491 -8 c 0
 452 -8 407 8 388 43 c 1
 364 24 317 -8 256 -8 c 0
 180 -8 96 33 96 152 c 0
 96 286 196 452 364 452 c 0
 390 452 429 447 461 414 c 1
 474 427 491 435 508 435 c 0
 536 435 553 416 553 393 c 0
 553 389 553 387 549 372 c 2
 482 102 l 2
 478 86 476 78 476 59 c 0
 476 36 483 28 495 28 c 0
 529 28 547 103 555 136 c 0
 562 161 563 162 587 162 c 0
 602 162 615 162 615 148 c 0
376 100 m 1
 377 108 377 111 379 118 c 2
 438 354 l 1
 427 394 399 416 364 416 c 0
 338 416 283 401 249 304 c 0
 238 276 203 153 203 99 c 0
 203 42 237 28 260 28 c 0
 291 28 333 43 376 100 c 1
633 642 m 0
 633 628 588 593 572 580 c 0
 547 560 515 541 486 541 c 0
 468 541 449 546 418 580 c 0
 407 594 397 602 383 602 c 0
 356 602 317 570 295 551 c 0
 289 545 284 541 277 541 c 0
 264 541 259 553 259 559 c 0
 259 572 300 605 316 617 c 0
 334 631 372 660 406 660 c 0
 426 660 446 652 467 628 c 0
 486 606 496 599 509 599 c 0
 538 599 581 636 594 647 c 0
 603 656 607 660 615 660 c 0
 625 660 633 652 633 642 c 0
EndSplineSet
EndChar

StartChar: adieresis
Encoding: 228 228 164
Width: 591
GlyphClass: 2
Flags: MW
HStem: -8 36<248.5 275.5 248.5 286.5 489 512> 416 36<351 377 280 381.5> 535 132<315.5 333 560.5 578>
VStem: 96 107<92.5 126 70.5 219>
LayerCount: 2
Fore
SplineSet
615 148 m 0
 615 144 602 88 576 46 c 0
 563 26 538 -8 491 -8 c 0
 452 -8 407 8 388 43 c 1
 364 24 317 -8 256 -8 c 0
 180 -8 96 33 96 152 c 0
 96 286 196 452 364 452 c 0
 390 452 429 447 461 414 c 1
 474 427 491 435 508 435 c 0
 536 435 553 416 553 393 c 0
 553 389 553 387 549 372 c 2
 482 102 l 2
 478 86 476 78 476 59 c 0
 476 36 483 28 495 28 c 0
 529 28 547 103 555 136 c 0
 562 161 563 162 587 162 c 0
 602 162 615 162 615 148 c 0
376 100 m 1
 377 108 377 111 379 118 c 2
 438 354 l 1
 427 394 399 416 364 416 c 0
 338 416 283 401 249 304 c 0
 238 276 203 153 203 99 c 0
 203 42 237 28 260 28 c 0
 291 28 333 43 376 100 c 1
391 613 m 0
 391 574 354 535 312 535 c 0
 277 535 256 560 255 589 c 0
 255 628 295 667 336 667 c 0
 373 667 391 638 391 613 c 0
636 613 m 0
 636 574 599 535 557 535 c 0
 522 535 501 560 500 589 c 0
 500 628 540 667 581 667 c 0
 618 667 636 638 636 613 c 0
EndSplineSet
EndChar

StartChar: aring
Encoding: 229 229 165
Width: 591
GlyphClass: 2
Flags: MW
HStem: -8 36<248.5 275.5 248.5 286.5 489 512> 416 36<351 377 280 381.5> 534 41<429 447 429 476.5> 661 41<451.5 472>
VStem: 96 107<92.5 126 70.5 219> 331 62<587.5 601.5 587.5 624> 507 62<634 648>
LayerCount: 2
Fore
SplineSet
615 148 m 0
 615 144 602 88 576 46 c 0
 563 26 538 -8 491 -8 c 0
 452 -8 407 8 388 43 c 1
 364 24 317 -8 256 -8 c 0
 180 -8 96 33 96 152 c 0
 96 286 196 452 364 452 c 0
 390 452 429 447 461 414 c 1
 474 427 491 435 508 435 c 0
 536 435 553 416 553 393 c 0
 553 389 553 387 549 372 c 2
 482 102 l 2
 478 86 476 78 476 59 c 0
 476 36 483 28 495 28 c 0
 529 28 547 103 555 136 c 0
 562 161 563 162 587 162 c 0
 602 162 615 162 615 148 c 0
376 100 m 1
 377 108 377 111 379 118 c 2
 438 354 l 1
 427 394 399 416 364 416 c 0
 338 416 283 401 249 304 c 0
 238 276 203 153 203 99 c 0
 203 42 237 28 260 28 c 0
 291 28 333 43 376 100 c 1
507 637 m 0
 507 659 484 661 460 661 c 0
 443 661 421 660 408 646 c 0
 397 633 393 604 393 599 c 0
 393 576 418 575 440 575 c 0
 454 575 480 576 492 590 c 0
 503 604 507 631 507 637 c 0
569 636 m 0
 569 590 524 534 429 534 c 0
 368 534 331 557 331 600 c 0
 331 648 378 702 471 702 c 0
 535 702 569 676 569 636 c 0
EndSplineSet
EndChar

StartChar: ae
Encoding: 230 230 166
Width: 827
GlyphClass: 2
Flags: MW
HStem: -8 36<261 270.5 571.5 607> 218 36<525 546 546 561 516 546> 416 36<683.5 719.5>
VStem: 89 113<71 78 52.5 115> 762 65<305.5 371>
LayerCount: 2
Fore
SplineSet
803 87 m 0
 803 73 734 -8 594 -8 c 0
 549 -8 504 3 469 32 c 1
 456 -5 423 -8 416 -8 c 0
 399 -8 379 -1 376 28 c 1
 323 -8 278 -8 263 -8 c 0
 156 -8 89 36 89 106 c 0
 89 124 99 213 209 293 c 0
 291 353 408 391 469 409 c 1
 480 446 511 452 523 452 c 0
 553 452 562 430 564 419 c 1
 599 438 648 452 698 452 c 0
 768 452 827 418 827 356 c 0
 827 218 624 218 561 218 c 2
 516 218 l 1
 503 164 503 139 503 130 c 0
 503 52 547 28 595 28 c 0
 619 28 691 35 757 109 c 0
 762 116 765 119 772 119 c 0
 782 119 803 96 803 87 c 0
762 357 m 0
 762 385 743 416 696 416 c 0
 671 416 623 407 583 367 c 0
 556 338 536 296 525 254 c 1
 546 254 l 2
 601 254 762 254 762 357 c 0
397 122 m 2
 458 366 l 1
 388 339 323 295 283 250 c 0
 202 163 202 80 202 76 c 0
 202 29 253 28 269 28 c 0
 333 28 389 90 397 122 c 2
EndSplineSet
EndChar

StartChar: ccedilla
Encoding: 231 231 167
Width: 532
GlyphClass: 2
Flags: MW
HStem: -8 36 416 36<387 407.5>
VStem: 107 109<125.5 135.5 87.5 225> 408 122<320.5 384.5>
LayerCount: 2
Fore
SplineSet
536 86 m 0
 536 74 497 35 443 14 c 0
 411 2 376 -3 347 -6 c 1
 336 -51 l 1
 389 -51 433 -78 421 -125 c 0
 403 -200 257 -200 139 -200 c 0
 124 -200 114 -187 118 -172 c 0
 122 -157 138 -144 153 -144 c 0
 213 -144 297 -144 301 -125 c 0
 306 -107 251 -107 210 -107 c 1
 236 -1 l 1
 140 20 107 91 107 160 c 0
 107 290 213 452 403 452 c 0
 486 452 530 409 530 360 c 0
 530 317 500 282 458 282 c 0
 416 282 408 313 408 328 c 0
 408 331 409 377 459 395 c 1
 440 415 413 416 402 416 c 0
 372 416 310 401 271 329 c 0
 244 277 216 155 216 116 c 0
 216 59 247 28 302 28 c 0
 317 28 418 28 492 111 c 0
 499 118 503 118 506 118 c 0
 516 118 536 94 536 86 c 0
EndSplineSet
EndChar

StartChar: egrave
Encoding: 232 232 168
Width: 532
GlyphClass: 2
Flags: MW
HStem: -8 36<275 310 275 317.5> 218 36<243 273.5 243 274 234 273.5> 416 36<385 423> 502 21G<422 433> 679 20G<350.5 374>
VStem: 110 108<113 132.5 90.5 244> 467 65<305.5 373>
LayerCount: 2
Fore
SplineSet
536 86 m 0
 536 74 497 35 443 14 c 0
 392 -5 333 -8 302 -8 c 0
 177 -8 110 59 110 167 c 0
 110 321 229 452 402 452 c 0
 476 452 532 416 532 356 c 0
 532 218 334 218 274 218 c 2
 234 218 l 1
 225 184 218 145 218 120 c 0
 218 61 247 28 303 28 c 0
 317 28 418 28 492 111 c 0
 499 118 503 118 506 118 c 0
 516 118 536 94 536 86 c 0
467 357 m 0
 467 389 444 416 402 416 c 0
 368 416 324 400 296 366 c 0
 267 334 257 304 243 254 c 1
 304 254 467 254 467 357 c 0
470 535 m 0
 467 529 441 502 425 502 c 0
 419 502 416 505 412 508 c 2
 304 597 l 2
 294 605 276 620 292 651 c 0
 306 679 338 699 363 699 c 0
 385 699 392 687 402 668 c 2
 467 554 l 2
 471 549 473 542 470 535 c 0
EndSplineSet
EndChar

StartChar: eacute
Encoding: 233 233 169
Width: 532
GlyphClass: 2
Flags: MW
HStem: -8 36<275 310 275 317.5> 218 36<243 273.5 243 274 234 273.5> 416 36<385 423> 502 21G<351 362> 679 20G<509 532.5>
VStem: 110 108<113 132.5 90.5 244> 467 65<305.5 373>
LayerCount: 2
Fore
SplineSet
536 86 m 0
 536 74 497 35 443 14 c 0
 392 -5 333 -8 302 -8 c 0
 177 -8 110 59 110 167 c 0
 110 321 229 452 402 452 c 0
 476 452 532 416 532 356 c 0
 532 218 334 218 274 218 c 2
 234 218 l 1
 225 184 218 145 218 120 c 0
 218 61 247 28 303 28 c 0
 317 28 418 28 492 111 c 0
 499 118 503 118 506 118 c 0
 516 118 536 94 536 86 c 0
467 357 m 0
 467 389 444 416 402 416 c 0
 368 416 324 400 296 366 c 0
 267 334 257 304 243 254 c 1
 304 254 467 254 467 357 c 0
567 651 m 0
 567 620 542 605 528 597 c 2
 375 508 l 2
 370 505 365 502 359 502 c 0
 343 502 331 529 331 535 c 0
 331 542 337 549 343 554 c 2
 465 668 l 2
 485 687 498 699 520 699 c 0
 545 699 567 679 567 651 c 0
EndSplineSet
EndChar

StartChar: ecircumflex
Encoding: 234 234 170
Width: 532
GlyphClass: 2
Flags: MW
HStem: -8 36<275 310 275 317.5> 218 36<243 273.5 243 274 234 273.5> 416 36<385 423> 497 21G<236 236 551 551> 684 20G<428 428>
VStem: 110 108<113 132.5 90.5 244> 467 65<305.5 373>
LayerCount: 2
Fore
SplineSet
536 86 m 0
 536 74 497 35 443 14 c 0
 392 -5 333 -8 302 -8 c 0
 177 -8 110 59 110 167 c 0
 110 321 229 452 402 452 c 0
 476 452 532 416 532 356 c 0
 532 218 334 218 274 218 c 2
 234 218 l 1
 225 184 218 145 218 120 c 0
 218 61 247 28 303 28 c 0
 317 28 418 28 492 111 c 0
 499 118 503 118 506 118 c 0
 516 118 536 94 536 86 c 0
467 357 m 0
 467 389 444 416 402 416 c 0
 368 416 324 400 296 366 c 0
 267 334 257 304 243 254 c 1
 304 254 467 254 467 357 c 0
574 519 m 1
 551 497 l 1
 410 596 l 1
 236 497 l 1
 221 519 l 1
 428 704 l 1
 574 519 l 1
EndSplineSet
EndChar

StartChar: edieresis
Encoding: 235 235 171
Width: 532
GlyphClass: 2
Flags: MW
HStem: -8 36<275 310 275 317.5> 218 36<243 273.5 243 274 234 273.5> 416 36<385 423> 535 132<286.5 304 531.5 549>
VStem: 110 108<113 132.5 90.5 244> 467 65<305.5 373>
LayerCount: 2
Fore
SplineSet
536 86 m 0
 536 74 497 35 443 14 c 0
 392 -5 333 -8 302 -8 c 0
 177 -8 110 59 110 167 c 0
 110 321 229 452 402 452 c 0
 476 452 532 416 532 356 c 0
 532 218 334 218 274 218 c 2
 234 218 l 1
 225 184 218 145 218 120 c 0
 218 61 247 28 303 28 c 0
 317 28 418 28 492 111 c 0
 499 118 503 118 506 118 c 0
 516 118 536 94 536 86 c 0
467 357 m 0
 467 389 444 416 402 416 c 0
 368 416 324 400 296 366 c 0
 267 334 257 304 243 254 c 1
 304 254 467 254 467 357 c 0
362 613 m 0
 362 574 325 535 283 535 c 0
 248 535 227 560 226 589 c 0
 226 628 266 667 307 667 c 0
 344 667 362 638 362 613 c 0
607 613 m 0
 607 574 570 535 528 535 c 0
 493 535 472 560 471 589 c 0
 471 628 511 667 552 667 c 0
 589 667 607 638 607 613 c 0
EndSplineSet
EndChar

StartChar: igrave
Encoding: 236 236 172
Width: 356
GlyphClass: 2
Flags: MW
HStem: -8 36<239.5 270.5 239.5 289> 416 36<196.5 227.5> 502 21G<333 344> 679 20G<261.5 285>
VStem: 132 96<37 88.5> 239 96<355.5 407>
LayerCount: 2
Fore
SplineSet
390 148 m 0
 390 127 341 -8 237 -8 c 0
 183 -8 132 25 132 81 c 0
 132 96 135 104 141 120 c 2
 231 358 l 2
 232 360 239 385 239 398 c 0
 239 416 230 416 225 416 c 0
 168 416 141 321 133 295 c 0
 129 282 124 282 105 282 c 0
 90 282 77 282 77 296 c 0
 77 317 126 452 230 452 c 0
 284 452 335 419 335 363 c 0
 335 348 332 340 326 324 c 2
 236 86 l 2
 235 84 228 59 228 46 c 0
 228 28 237 28 242 28 c 0
 299 28 326 123 334 149 c 0
 338 162 343 162 362 162 c 0
 377 162 390 162 390 148 c 0
381 535 m 0
 378 529 352 502 336 502 c 0
 330 502 327 505 323 508 c 2
 215 597 l 2
 205 605 187 620 203 651 c 0
 217 679 249 699 274 699 c 0
 296 699 303 687 313 668 c 2
 378 554 l 2
 382 549 384 542 381 535 c 0
EndSplineSet
EndChar

StartChar: iacute
Encoding: 237 237 173
Width: 356
GlyphClass: 2
Flags: MW
HStem: -8 36<239.5 270.5 239.5 289> 416 36<196.5 227.5> 502 21G<262 273> 679 20G<420 443.5>
VStem: 132 96<37 88.5> 239 96<355.5 407>
LayerCount: 2
Fore
SplineSet
390 148 m 0
 390 127 341 -8 237 -8 c 0
 183 -8 132 25 132 81 c 0
 132 96 135 104 141 120 c 2
 231 358 l 2
 232 360 239 385 239 398 c 0
 239 416 230 416 225 416 c 0
 168 416 141 321 133 295 c 0
 129 282 124 282 105 282 c 0
 90 282 77 282 77 296 c 0
 77 317 126 452 230 452 c 0
 284 452 335 419 335 363 c 0
 335 348 332 340 326 324 c 2
 236 86 l 2
 235 84 228 59 228 46 c 0
 228 28 237 28 242 28 c 0
 299 28 326 123 334 149 c 0
 338 162 343 162 362 162 c 0
 377 162 390 162 390 148 c 0
478 651 m 0
 478 620 453 605 439 597 c 2
 286 508 l 2
 281 505 276 502 270 502 c 0
 254 502 242 529 242 535 c 0
 242 542 248 549 254 554 c 2
 376 668 l 2
 396 687 409 699 431 699 c 0
 456 699 478 679 478 651 c 0
EndSplineSet
EndChar

StartChar: icircumflex
Encoding: 238 238 174
Width: 356
GlyphClass: 2
Flags: MW
HStem: -8 36<239.5 270.5 239.5 289> 416 36<196.5 227.5> 497 21G<147 147 462 462> 684 20G<339 339>
VStem: 132 96<37 88.5> 239 96<355.5 407>
LayerCount: 2
Fore
SplineSet
390 148 m 0
 390 127 341 -8 237 -8 c 0
 183 -8 132 25 132 81 c 0
 132 96 135 104 141 120 c 2
 231 358 l 2
 232 360 239 385 239 398 c 0
 239 416 230 416 225 416 c 0
 168 416 141 321 133 295 c 0
 129 282 124 282 105 282 c 0
 90 282 77 282 77 296 c 0
 77 317 126 452 230 452 c 0
 284 452 335 419 335 363 c 0
 335 348 332 340 326 324 c 2
 236 86 l 2
 235 84 228 59 228 46 c 0
 228 28 237 28 242 28 c 0
 299 28 326 123 334 149 c 0
 338 162 343 162 362 162 c 0
 377 162 390 162 390 148 c 0
485 519 m 1
 462 497 l 1
 321 596 l 1
 147 497 l 1
 132 519 l 1
 339 704 l 1
 485 519 l 1
EndSplineSet
EndChar

StartChar: idieresis
Encoding: 239 239 175
Width: 356
GlyphClass: 2
Flags: MW
HStem: -8 36<239.5 270.5 239.5 289> 416 36<196.5 227.5> 535 132<197.5 215 442.5 460>
VStem: 132 96<37 88.5> 239 96<355.5 407>
LayerCount: 2
Fore
SplineSet
390 148 m 0
 390 127 341 -8 237 -8 c 0
 183 -8 132 25 132 81 c 0
 132 96 135 104 141 120 c 2
 231 358 l 2
 232 360 239 385 239 398 c 0
 239 416 230 416 225 416 c 0
 168 416 141 321 133 295 c 0
 129 282 124 282 105 282 c 0
 90 282 77 282 77 296 c 0
 77 317 126 452 230 452 c 0
 284 452 335 419 335 363 c 0
 335 348 332 340 326 324 c 2
 236 86 l 2
 235 84 228 59 228 46 c 0
 228 28 237 28 242 28 c 0
 299 28 326 123 334 149 c 0
 338 162 343 162 362 162 c 0
 377 162 390 162 390 148 c 0
273 613 m 0
 273 574 236 535 194 535 c 0
 159 535 138 560 137 589 c 0
 137 628 177 667 218 667 c 0
 255 667 273 638 273 613 c 0
518 613 m 0
 518 574 481 535 439 535 c 0
 404 535 383 560 382 589 c 0
 382 628 422 667 463 667 c 0
 500 667 518 638 518 613 c 0
EndSplineSet
EndChar

StartChar: eth
Encoding: 240 240 176
Width: 591
GlyphClass: 2
Flags: MW
HStem: -11 40<284.5 312.5 284.5 356> 425 36<384.5 429>
VStem: 106 111<95.5 139 77 219> 484 129<353 356>
LayerCount: 2
Fore
SplineSet
586 220 m 0
 546 62 419 -11 293 -11 c 0
 190 -11 106 38 106 153 c 0
 106 285 216 461 408 461 c 0
 451 461 476 445 487 436 c 1
 479 483 461 526 435 563 c 1
 355 518 l 2
 349 515 344 513 340 513 c 0
 329 513 321 522 321 533 c 0
 321 542 326 552 338 559 c 2
 406 596 l 1
 380 622 348 642 311 657 c 0
 305 659 302 664 302 669 c 0
 302 681 314 695 329 693 c 0
 386 685 437 666 479 637 c 1
 567 686 l 2
 572 689 577 691 582 691 c 0
 593 691 600 682 600 671 c 0
 600 662 595 652 583 645 c 2
 517 608 l 1
 577 553 613 474 613 381 c 0
 613 325 605 294 586 220 c 0
436 125 m 0
 456 172 484 278 484 326 c 0
 484 386 457 425 401 425 c 0
 368 425 308 412 273 342 c 0
 253 300 217 166 217 112 c 0
 217 42 266 29 303 29 c 0
 322 29 398 33 436 125 c 0
EndSplineSet
EndChar

StartChar: ntilde
Encoding: 241 241 177
Width: 650
GlyphClass: 2
Flags: MW
HStem: -8 36<533.5 564.5 533.5 583> 416 36<180 203 455.5 480.5> 541 58<506 552.5> 602 58<418 419>
VStem: 426 96<53 56.5 37 88.5>
LayerCount: 2
Fore
SplineSet
684 148 m 0
 684 127 635 -8 531 -8 c 0
 477 -8 426 25 426 81 c 0
 426 96 429 106 438 131 c 0
 456 176 502 299 502 359 c 0
 502 378 502 416 459 416 c 0
 368 416 312 323 305 294 c 2
 243 46 l 2
 230 -6 187 -8 180 -8 c 0
 159 -8 135 4 135 35 c 0
 135 40 135 42 139 57 c 2
 210 342 l 2
 214 358 216 366 216 385 c 0
 216 408 209 416 197 416 c 0
 163 416 145 341 137 308 c 0
 130 283 129 282 105 282 c 0
 90 282 77 282 77 296 c 0
 77 300 90 356 116 398 c 0
 129 418 154 452 201 452 c 0
 233 452 293 440 313 383 c 1
 379 452 445 452 466 452 c 0
 545 452 604 422 604 339 c 0
 604 282 559 164 545 127 c 0
 532 93 522 67 522 46 c 0
 522 28 531 28 536 28 c 0
 593 28 620 123 628 149 c 0
 632 162 637 162 656 162 c 0
 671 162 684 162 684 148 c 0
662 642 m 0
 662 628 617 593 601 580 c 0
 576 560 544 541 515 541 c 0
 497 541 478 546 447 580 c 0
 436 594 426 602 412 602 c 0
 385 602 346 570 324 551 c 0
 318 545 313 541 306 541 c 0
 293 541 288 553 288 559 c 0
 288 572 329 605 345 617 c 0
 363 631 401 660 435 660 c 0
 455 660 475 652 496 628 c 0
 515 606 525 599 538 599 c 0
 567 599 610 636 623 647 c 0
 632 656 636 660 644 660 c 0
 654 660 662 652 662 642 c 0
EndSplineSet
EndChar

StartChar: ograve
Encoding: 242 242 178
Width: 591
GlyphClass: 2
Flags: MW
HStem: -8 36<281.5 324.5 281.5 395.5> 416 36<377.5 420.5> 502 21G<451 462> 679 20G<379.5 403>
VStem: 107 109<108.5 135.5 80.5 222.5> 486 109<308.5 335.5 221 363.5>
LayerCount: 2
Fore
SplineSet
595 284 m 0
 595 158 494 -8 297 -8 c 0
 178 -8 107 57 107 160 c 0
 107 285 207 452 405 452 c 0
 524 452 595 387 595 284 c 0
435 124 m 0
 460 177 486 289 486 328 c 0
 486 399 438 416 403 416 c 0
 352 416 296 383 267 320 c 0
 242 267 216 155 216 116 c 0
 216 45 264 28 299 28 c 0
 350 28 406 61 435 124 c 0
499 535 m 0
 496 529 470 502 454 502 c 0
 448 502 445 505 441 508 c 2
 333 597 l 2
 323 605 305 620 321 651 c 0
 335 679 367 699 392 699 c 0
 414 699 421 687 431 668 c 2
 496 554 l 2
 500 549 502 542 499 535 c 0
EndSplineSet
EndChar

StartChar: oacute
Encoding: 243 243 179
Width: 591
GlyphClass: 2
Flags: MW
HStem: -8 36<281.5 324.5 281.5 395.5> 416 36<377.5 420.5> 502 21G<380 391> 679 20G<538 561.5>
VStem: 107 109<108.5 135.5 80.5 222.5> 486 109<308.5 335.5 221 363.5>
LayerCount: 2
Fore
SplineSet
595 284 m 0
 595 158 494 -8 297 -8 c 0
 178 -8 107 57 107 160 c 0
 107 285 207 452 405 452 c 0
 524 452 595 387 595 284 c 0
435 124 m 0
 460 177 486 289 486 328 c 0
 486 399 438 416 403 416 c 0
 352 416 296 383 267 320 c 0
 242 267 216 155 216 116 c 0
 216 45 264 28 299 28 c 0
 350 28 406 61 435 124 c 0
596 651 m 0
 596 620 571 605 557 597 c 2
 404 508 l 2
 399 505 394 502 388 502 c 0
 372 502 360 529 360 535 c 0
 360 542 366 549 372 554 c 2
 494 668 l 2
 514 687 527 699 549 699 c 0
 574 699 596 679 596 651 c 0
EndSplineSet
EndChar

StartChar: ocircumflex
Encoding: 244 244 180
Width: 591
GlyphClass: 2
Flags: MW
HStem: -8 36<281.5 324.5 281.5 395.5> 416 36<377.5 420.5> 497 21G<265 265 580 580> 684 20G<457 457>
VStem: 107 109<108.5 135.5 80.5 222.5> 486 109<308.5 335.5 221 363.5>
LayerCount: 2
Fore
SplineSet
595 284 m 0
 595 158 494 -8 297 -8 c 0
 178 -8 107 57 107 160 c 0
 107 285 207 452 405 452 c 0
 524 452 595 387 595 284 c 0
435 124 m 0
 460 177 486 289 486 328 c 0
 486 399 438 416 403 416 c 0
 352 416 296 383 267 320 c 0
 242 267 216 155 216 116 c 0
 216 45 264 28 299 28 c 0
 350 28 406 61 435 124 c 0
603 519 m 1
 580 497 l 1
 439 596 l 1
 265 497 l 1
 250 519 l 1
 457 704 l 1
 603 519 l 1
EndSplineSet
EndChar

StartChar: otilde
Encoding: 245 245 181
Width: 591
GlyphClass: 2
Flags: MW
HStem: -8 36<281.5 324.5 281.5 395.5> 416 36<377.5 420.5> 541 58<477 523.5> 602 58<389 390>
VStem: 107 109<108.5 135.5 80.5 222.5> 486 109<308.5 335.5 221 363.5>
LayerCount: 2
Fore
SplineSet
595 284 m 0
 595 158 494 -8 297 -8 c 0
 178 -8 107 57 107 160 c 0
 107 285 207 452 405 452 c 0
 524 452 595 387 595 284 c 0
435 124 m 0
 460 177 486 289 486 328 c 0
 486 399 438 416 403 416 c 0
 352 416 296 383 267 320 c 0
 242 267 216 155 216 116 c 0
 216 45 264 28 299 28 c 0
 350 28 406 61 435 124 c 0
633 642 m 0
 633 628 588 593 572 580 c 0
 547 560 515 541 486 541 c 0
 468 541 449 546 418 580 c 0
 407 594 397 602 383 602 c 0
 356 602 317 570 295 551 c 0
 289 545 284 541 277 541 c 0
 264 541 259 553 259 559 c 0
 259 572 300 605 316 617 c 0
 334 631 372 660 406 660 c 0
 426 660 446 652 467 628 c 0
 486 606 496 599 509 599 c 0
 538 599 581 636 594 647 c 0
 603 656 607 660 615 660 c 0
 625 660 633 652 633 642 c 0
EndSplineSet
EndChar

StartChar: odieresis
Encoding: 246 246 182
Width: 591
GlyphClass: 2
Flags: MW
HStem: -8 36<281.5 324.5 281.5 395.5> 416 36<377.5 420.5> 535 132<315.5 333 560.5 578>
VStem: 107 109<108.5 135.5 80.5 222.5> 486 109<308.5 335.5 221 363.5>
LayerCount: 2
Fore
SplineSet
595 284 m 0
 595 158 494 -8 297 -8 c 0
 178 -8 107 57 107 160 c 0
 107 285 207 452 405 452 c 0
 524 452 595 387 595 284 c 0
435 124 m 0
 460 177 486 289 486 328 c 0
 486 399 438 416 403 416 c 0
 352 416 296 383 267 320 c 0
 242 267 216 155 216 116 c 0
 216 45 264 28 299 28 c 0
 350 28 406 61 435 124 c 0
391 613 m 0
 391 574 354 535 312 535 c 0
 277 535 256 560 255 589 c 0
 255 628 295 667 336 667 c 0
 373 667 391 638 391 613 c 0
636 613 m 0
 636 574 599 535 557 535 c 0
 522 535 501 560 500 589 c 0
 500 628 540 667 581 667 c 0
 618 667 636 638 636 613 c 0
EndSplineSet
EndChar

StartChar: divide
Encoding: 247 247 183
Width: 886
GlyphClass: 2
Flags: MW
HStem: -57 147<440.5 454.5> 220 61<187 812 199 812 812 818> 411 147<557.5 571.5>
CounterMasks: 1 e0
LayerCount: 2
Fore
SplineSet
858 250 m 0
 858 220 830 220 818 220 c 2
 193 220 l 2
 181 220 153 220 153 250 c 0
 153 281 184 281 199 281 c 2
 812 281 l 2
 827 281 858 281 858 250 c 0
639 499 m 0
 639 452 594 411 549 411 c 0
 520 411 489 429 489 470 c 0
 489 520 537 558 578 558 c 0
 614 558 639 534 639 499 c 0
522 31 m 0
 522 -16 477 -57 432 -57 c 0
 403 -57 372 -39 372 2 c 0
 372 52 420 90 461 90 c 0
 497 90 522 66 522 31 c 0
EndSplineSet
EndChar

StartChar: oslash
Encoding: 248 248 184
Width: 591
GlyphClass: 2
Flags: MW
HStem: -12 36<293.5 324.5 293.5 390.5> 420 36<377.5 408.5>
VStem: 113 97<137 137.5 111 224> 492 97<306.5 315.5 220 333>
LayerCount: 2
Fore
SplineSet
589 287 m 0
 589 153 485 -12 296 -12 c 0
 255 -12 222 -3 201 7 c 1
 134 -77 134 -79 121 -94 c 0
 103 -114 102 -115 95 -115 c 0
 86 -115 77 -107 77 -97 c 0
 77 -91 77 -89 95 -67 c 2
 170 25 l 1
 121 67 113 117 113 157 c 0
 113 291 217 456 406 456 c 0
 447 456 480 447 501 437 c 1
 587 545 l 2
 596 556 599 560 607 560 c 0
 614 560 625 555 625 542 c 0
 625 536 625 535 614 521 c 2
 532 418 l 1
 571 387 589 344 589 287 c 0
467 396 m 1
 444 420 413 420 404 420 c 0
 351 420 292 385 260 319 c 0
 233 263 210 156 210 119 c 0
 210 103 213 89 215 82 c 1
 467 396 l 1
442 125 m 0
 469 181 492 288 492 325 c 0
 492 341 489 355 487 362 c 1
 235 49 l 1
 257 24 289 24 298 24 c 0
 351 24 410 59 442 125 c 0
EndSplineSet
EndChar

StartChar: ugrave
Encoding: 249 249 185
Width: 621
GlyphClass: 2
Flags: MW
HStem: -8 36<290 323 529 552> 416 36<196.5 227.5> 502 21G<466 477> 679 20G<394.5 418>
VStem: 239 96<387.5 391 354.5 407>
LayerCount: 2
Fore
SplineSet
655 148 m 0
 655 144 642 88 616 46 c 0
 603 26 578 -8 531 -8 c 0
 492 -8 447 8 428 43 c 1
 379 -3 337 -8 309 -8 c 0
 226 -8 161 27 161 118 c 0
 161 174 189 246 221 332 c 0
 227 346 239 377 239 398 c 0
 239 416 230 416 225 416 c 0
 168 416 141 321 133 295 c 0
 129 282 124 282 105 282 c 0
 90 282 77 282 77 296 c 0
 77 317 126 452 230 452 c 0
 284 452 335 419 335 363 c 0
 335 346 330 334 321 309 c 0
 297 246 263 157 263 97 c 0
 263 75 265 28 315 28 c 0
 345 28 370 44 384 57 c 0
 412 85 413 89 417 107 c 2
 486 388 l 2
 498 438 537 444 550 444 c 0
 571 444 595 432 595 401 c 0
 595 396 595 394 591 379 c 2
 522 102 l 2
 518 86 516 78 516 59 c 0
 516 36 523 28 535 28 c 0
 569 28 587 103 595 136 c 0
 602 161 603 162 627 162 c 0
 642 162 655 162 655 148 c 0
514 535 m 0
 511 529 485 502 469 502 c 0
 463 502 460 505 456 508 c 2
 348 597 l 2
 338 605 320 620 336 651 c 0
 350 679 382 699 407 699 c 0
 429 699 436 687 446 668 c 2
 511 554 l 2
 515 549 517 542 514 535 c 0
EndSplineSet
EndChar

StartChar: uacute
Encoding: 250 250 186
Width: 621
GlyphClass: 2
Flags: MW
HStem: -8 36<290 323 529 552> 416 36<196.5 227.5> 502 21G<395 406> 679 20G<553 576.5>
VStem: 239 96<387.5 391 354.5 407>
LayerCount: 2
Fore
SplineSet
655 148 m 0
 655 144 642 88 616 46 c 0
 603 26 578 -8 531 -8 c 0
 492 -8 447 8 428 43 c 1
 379 -3 337 -8 309 -8 c 0
 226 -8 161 27 161 118 c 0
 161 174 189 246 221 332 c 0
 227 346 239 377 239 398 c 0
 239 416 230 416 225 416 c 0
 168 416 141 321 133 295 c 0
 129 282 124 282 105 282 c 0
 90 282 77 282 77 296 c 0
 77 317 126 452 230 452 c 0
 284 452 335 419 335 363 c 0
 335 346 330 334 321 309 c 0
 297 246 263 157 263 97 c 0
 263 75 265 28 315 28 c 0
 345 28 370 44 384 57 c 0
 412 85 413 89 417 107 c 2
 486 388 l 2
 498 438 537 444 550 444 c 0
 571 444 595 432 595 401 c 0
 595 396 595 394 591 379 c 2
 522 102 l 2
 518 86 516 78 516 59 c 0
 516 36 523 28 535 28 c 0
 569 28 587 103 595 136 c 0
 602 161 603 162 627 162 c 0
 642 162 655 162 655 148 c 0
611 651 m 0
 611 620 586 605 572 597 c 2
 419 508 l 2
 414 505 409 502 403 502 c 0
 387 502 375 529 375 535 c 0
 375 542 381 549 387 554 c 2
 509 668 l 2
 529 687 542 699 564 699 c 0
 589 699 611 679 611 651 c 0
EndSplineSet
EndChar

StartChar: ucircumflex
Encoding: 251 251 187
Width: 621
GlyphClass: 2
Flags: MW
HStem: -8 36<290 323 529 552> 416 36<196.5 227.5> 497 21G<280 280 595 595> 684 20G<472 472>
VStem: 239 96<387.5 391 354.5 407>
LayerCount: 2
Fore
SplineSet
655 148 m 0
 655 144 642 88 616 46 c 0
 603 26 578 -8 531 -8 c 0
 492 -8 447 8 428 43 c 1
 379 -3 337 -8 309 -8 c 0
 226 -8 161 27 161 118 c 0
 161 174 189 246 221 332 c 0
 227 346 239 377 239 398 c 0
 239 416 230 416 225 416 c 0
 168 416 141 321 133 295 c 0
 129 282 124 282 105 282 c 0
 90 282 77 282 77 296 c 0
 77 317 126 452 230 452 c 0
 284 452 335 419 335 363 c 0
 335 346 330 334 321 309 c 0
 297 246 263 157 263 97 c 0
 263 75 265 28 315 28 c 0
 345 28 370 44 384 57 c 0
 412 85 413 89 417 107 c 2
 486 388 l 2
 498 438 537 444 550 444 c 0
 571 444 595 432 595 401 c 0
 595 396 595 394 591 379 c 2
 522 102 l 2
 518 86 516 78 516 59 c 0
 516 36 523 28 535 28 c 0
 569 28 587 103 595 136 c 0
 602 161 603 162 627 162 c 0
 642 162 655 162 655 148 c 0
618 519 m 1
 595 497 l 1
 454 596 l 1
 280 497 l 1
 265 519 l 1
 472 704 l 1
 618 519 l 1
EndSplineSet
EndChar

StartChar: udieresis
Encoding: 252 252 188
Width: 621
GlyphClass: 2
Flags: MW
HStem: -8 36<290 323 529 552> 416 36<196.5 227.5> 535 132<330.5 348 575.5 593>
VStem: 239 96<387.5 391 354.5 407>
LayerCount: 2
Fore
SplineSet
655 148 m 0
 655 144 642 88 616 46 c 0
 603 26 578 -8 531 -8 c 0
 492 -8 447 8 428 43 c 1
 379 -3 337 -8 309 -8 c 0
 226 -8 161 27 161 118 c 0
 161 174 189 246 221 332 c 0
 227 346 239 377 239 398 c 0
 239 416 230 416 225 416 c 0
 168 416 141 321 133 295 c 0
 129 282 124 282 105 282 c 0
 90 282 77 282 77 296 c 0
 77 317 126 452 230 452 c 0
 284 452 335 419 335 363 c 0
 335 346 330 334 321 309 c 0
 297 246 263 157 263 97 c 0
 263 75 265 28 315 28 c 0
 345 28 370 44 384 57 c 0
 412 85 413 89 417 107 c 2
 486 388 l 2
 498 438 537 444 550 444 c 0
 571 444 595 432 595 401 c 0
 595 396 595 394 591 379 c 2
 522 102 l 2
 518 86 516 78 516 59 c 0
 516 36 523 28 535 28 c 0
 569 28 587 103 595 136 c 0
 602 161 603 162 627 162 c 0
 642 162 655 162 655 148 c 0
406 613 m 0
 406 574 369 535 327 535 c 0
 292 535 271 560 270 589 c 0
 270 628 310 667 351 667 c 0
 388 667 406 638 406 613 c 0
651 613 m 0
 651 574 614 535 572 535 c 0
 537 535 516 560 515 589 c 0
 515 628 555 667 596 667 c 0
 633 667 651 638 651 613 c 0
EndSplineSet
EndChar

StartChar: yacute
Encoding: 253 253 189
Width: 562
GlyphClass: 2
Flags: MW
HStem: -202 36<230.5 273.5 230.5 297> -8 36<290 329> 416 36<196.5 227.5> 502 21G<365 376> 679 20G<523 546.5>
VStem: 107 121<-104 -93.5> 239 96<387.5 391 354.5 407>
LayerCount: 2
Fore
SplineSet
495 -7 m 2
 471 -104 360 -202 234 -202 c 0
 160 -202 107 -168 107 -115 c 0
 107 -72 139 -39 179 -39 c 0
 197 -39 228 -47 228 -85 c 0
 228 -123 198 -144 183 -151 c 1
 203 -165 226 -166 235 -166 c 0
 312 -166 374 -74 393 16 c 1
 378 6 349 -8 309 -8 c 0
 226 -8 161 27 161 118 c 0
 161 174 189 246 221 332 c 0
 227 346 239 377 239 398 c 0
 239 416 230 416 225 416 c 0
 168 416 141 321 133 295 c 0
 129 282 124 282 105 282 c 0
 90 282 77 282 77 296 c 0
 77 317 126 452 230 452 c 0
 284 452 335 419 335 363 c 0
 335 346 330 334 321 309 c 0
 297 246 263 157 263 97 c 0
 263 75 265 28 315 28 c 0
 346 28 370 45 378 52 c 0
 408 77 412 92 415 104 c 2
 487 390 l 2
 500 443 544 444 550 444 c 0
 571 444 595 432 595 401 c 0
 595 396 595 394 591 379 c 2
 495 -7 l 2
581 651 m 0
 581 620 556 605 542 597 c 2
 389 508 l 2
 384 505 379 502 373 502 c 0
 357 502 345 529 345 535 c 0
 345 542 351 549 357 554 c 2
 479 668 l 2
 499 687 512 699 534 699 c 0
 559 699 581 679 581 651 c 0
EndSplineSet
EndChar

StartChar: thorn
Encoding: 254 254 190
Width: 591
GlyphClass: 2
Flags: MW
HStem: -194 21G<39.5 58 221 241.5> -8 36<316.5 341 310.5 412> 416 36<416.5 443.5> 673 20G<368 368>
VStem: 489 107<318 351.5 225 373.5>
LayerCount: 2
Fore
SplineSet
596 292 m 0
 596 158 496 -8 328 -8 c 0
 305 -8 269 -4 237 24 c 1
 195 -146 l 1
 208 -147 224 -147 238 -147 c 0
 248 -147 265 -148 265 -165 c 0
 265 -194 245 -194 238 -194 c 0
 204 -194 168 -191 133 -191 c 0
 104 -191 72 -194 44 -194 c 0
 35 -194 25 -188 25 -176 c 0
 25 -147 42 -147 57 -147 c 0
 87 -147 88 -146 92 -131 c 2
 283 637 l 1
 271 638 253 639 241 639 c 0
 232 639 214 639 214 657 c 0
 214 686 234 686 245 687 c 2
 368 693 l 2
 382 694 400 695 400 676 c 0
 400 671 398 665 397 660 c 2
 338 424 l 1
 354 434 391 452 436 452 c 0
 512 452 596 411 596 292 c 0
443 140 m 0
 454 168 489 291 489 345 c 0
 489 402 455 416 432 416 c 0
 401 416 359 401 316 344 c 1
 315 336 315 333 313 326 c 2
 254 90 l 1
 265 50 293 28 328 28 c 0
 354 28 409 43 443 140 c 0
EndSplineSet
EndChar

StartChar: ydieresis
Encoding: 255 255 191
Width: 562
GlyphClass: 2
Flags: MW
HStem: -202 36<230.5 273.5 230.5 297> -8 36<290 329> 416 36<196.5 227.5> 535 132<300.5 318 545.5 563>
VStem: 107 121<-104 -93.5> 239 96<387.5 391 354.5 407>
LayerCount: 2
Fore
SplineSet
495 -7 m 2
 471 -104 360 -202 234 -202 c 0
 160 -202 107 -168 107 -115 c 0
 107 -72 139 -39 179 -39 c 0
 197 -39 228 -47 228 -85 c 0
 228 -123 198 -144 183 -151 c 1
 203 -165 226 -166 235 -166 c 0
 312 -166 374 -74 393 16 c 1
 378 6 349 -8 309 -8 c 0
 226 -8 161 27 161 118 c 0
 161 174 189 246 221 332 c 0
 227 346 239 377 239 398 c 0
 239 416 230 416 225 416 c 0
 168 416 141 321 133 295 c 0
 129 282 124 282 105 282 c 0
 90 282 77 282 77 296 c 0
 77 317 126 452 230 452 c 0
 284 452 335 419 335 363 c 0
 335 346 330 334 321 309 c 0
 297 246 263 157 263 97 c 0
 263 75 265 28 315 28 c 0
 346 28 370 45 378 52 c 0
 408 77 412 92 415 104 c 2
 487 390 l 2
 500 443 544 444 550 444 c 0
 571 444 595 432 595 401 c 0
 595 396 595 394 591 379 c 2
 495 -7 l 2
376 613 m 0
 376 574 339 535 297 535 c 0
 262 535 241 560 240 589 c 0
 240 628 280 667 321 667 c 0
 358 667 376 638 376 613 c 0
621 613 m 0
 621 574 584 535 542 535 c 0
 507 535 486 560 485 589 c 0
 485 628 525 667 566 667 c 0
 603 667 621 638 621 613 c 0
EndSplineSet
EndChar

StartChar: Amacron
Encoding: 256 256 192
Width: 866
GlyphClass: 2
Flags: MW
HStem: 0 47<97 104 97 107.5 307 309 499 517 760 773 773 780.5> 192 47<357 555 357 560 328 555> 691 20G<599 625> 761 50<462.5 790 473 787>
VStem: 73 260<18 32.5>
LayerCount: 2
Fore
SplineSet
805 29 m 0
 805 0 787 0 777 0 c 0
 732 0 685 3 640 3 c 0
 591 3 541 0 493 0 c 0
 471 0 471 18 471 18 c 1
 471 47 488 47 510 47 c 0
 530 47 556 48 575 52 c 1
 560 192 l 1
 328 192 l 1
 247 57 l 1
 271 48 307 47 307 47 c 2
 315 47 333 47 333 29 c 0
 333 0 313 0 305 0 c 0
 268 0 228 3 190 3 c 0
 158 3 123 0 92 0 c 0
 73 0 73 18 73 18 c 1
 73 47 90 47 104 47 c 0
 176 48 187 66 198 84 c 2
 563 686 l 2
 578 711 588 711 610 711 c 0
 640 711 643 708 646 682 c 2
 712 66 l 2
 714 51 715 50 727 48 c 0
 735 47 751 47 760 47 c 2
 773 47 l 2
 788 47 805 47 805 29 c 0
555 239 m 1
 525 517 l 1
 357 239 l 1
 555 239 l 1
822 793 m 0
 822 761 805 761 787 761 c 2
 470 761 l 2
 455 761 438 761 438 779 c 0
 438 811 455 811 473 811 c 2
 790 811 l 2
 805 811 822 811 822 793 c 0
EndSplineSet
Position2: "'cpsp' Capital Spacing lookup 0 subtable" dx=7 dy=0 dh=14 dv=0
EndChar

StartChar: amacron
Encoding: 257 257 193
Width: 591
GlyphClass: 2
Flags: MW
HStem: -8 36<248.5 275.5 248.5 286.5 489 512> 416 36<351 377 280 381.5> 576 50<278.5 606 289 603>
VStem: 96 107<92.5 126 70.5 219>
LayerCount: 2
Fore
SplineSet
615 148 m 0
 615 144 602 88 576 46 c 0
 563 26 538 -8 491 -8 c 0
 452 -8 407 8 388 43 c 1
 364 24 317 -8 256 -8 c 0
 180 -8 96 33 96 152 c 0
 96 286 196 452 364 452 c 0
 390 452 429 447 461 414 c 1
 474 427 491 435 508 435 c 0
 536 435 553 416 553 393 c 0
 553 389 553 387 549 372 c 2
 482 102 l 2
 478 86 476 78 476 59 c 0
 476 36 483 28 495 28 c 0
 529 28 547 103 555 136 c 0
 562 161 563 162 587 162 c 0
 602 162 615 162 615 148 c 0
376 100 m 1
 377 108 377 111 379 118 c 2
 438 354 l 1
 427 394 399 416 364 416 c 0
 338 416 283 401 249 304 c 0
 238 276 203 153 203 99 c 0
 203 42 237 28 260 28 c 0
 291 28 333 43 376 100 c 1
638 608 m 0
 638 576 621 576 603 576 c 2
 286 576 l 2
 271 576 254 576 254 594 c 0
 254 626 271 626 289 626 c 2
 606 626 l 2
 621 626 638 626 638 608 c 0
EndSplineSet
EndChar

StartChar: Abreve
Encoding: 258 258 194
Width: 866
GlyphClass: 2
Flags: MW
HStem: 0 47<97 104 97 107.5 307 309 499 517 760 773 773 780.5> 192 47<357 555 357 560 328 555> 691 20G<599 625> 751 59<607.5 652 607.5 688> 910 20G<505.5 520 801.5 813>
VStem: 73 260<18 32.5>
LayerCount: 2
Fore
SplineSet
805 29 m 0
 805 0 787 0 777 0 c 0
 732 0 685 3 640 3 c 0
 591 3 541 0 493 0 c 0
 471 0 471 18 471 18 c 1
 471 47 488 47 510 47 c 0
 530 47 556 48 575 52 c 1
 560 192 l 1
 328 192 l 1
 247 57 l 1
 271 48 307 47 307 47 c 2
 315 47 333 47 333 29 c 0
 333 0 313 0 305 0 c 0
 268 0 228 3 190 3 c 0
 158 3 123 0 92 0 c 0
 73 0 73 18 73 18 c 1
 73 47 90 47 104 47 c 0
 176 48 187 66 198 84 c 2
 563 686 l 2
 578 711 588 711 610 711 c 0
 640 711 643 708 646 682 c 2
 712 66 l 2
 714 51 715 50 727 48 c 0
 735 47 751 47 760 47 c 2
 773 47 l 2
 788 47 805 47 805 29 c 0
555 239 m 1
 525 517 l 1
 357 239 l 1
 555 239 l 1
826 912 m 0
 826 872 750 751 626 751 c 0
 551 751 493 801 493 878 c 0
 493 905 496 930 515 930 c 0
 525 930 533 921 533 912 c 0
 533 905 530 901 530 887 c 0
 530 834 583 810 632 810 c 0
 672 810 762 830 790 914 c 0
 792 919 795 930 808 930 c 0
 818 930 826 922 826 912 c 0
EndSplineSet
Position2: "'cpsp' Capital Spacing lookup 0 subtable" dx=7 dy=0 dh=14 dv=0
EndChar

StartChar: abreve
Encoding: 259 259 195
Width: 591
GlyphClass: 2
Flags: MW
HStem: -8 36<248.5 275.5 248.5 286.5 489 512> 416 36<351 377 280 381.5> 511 59<409.5 454 409.5 490> 670 20G<307.5 322 603.5 615>
VStem: 96 107<92.5 126 70.5 219>
LayerCount: 2
Fore
SplineSet
615 148 m 0
 615 144 602 88 576 46 c 0
 563 26 538 -8 491 -8 c 0
 452 -8 407 8 388 43 c 1
 364 24 317 -8 256 -8 c 0
 180 -8 96 33 96 152 c 0
 96 286 196 452 364 452 c 0
 390 452 429 447 461 414 c 1
 474 427 491 435 508 435 c 0
 536 435 553 416 553 393 c 0
 553 389 553 387 549 372 c 2
 482 102 l 2
 478 86 476 78 476 59 c 0
 476 36 483 28 495 28 c 0
 529 28 547 103 555 136 c 0
 562 161 563 162 587 162 c 0
 602 162 615 162 615 148 c 0
376 100 m 1
 377 108 377 111 379 118 c 2
 438 354 l 1
 427 394 399 416 364 416 c 0
 338 416 283 401 249 304 c 0
 238 276 203 153 203 99 c 0
 203 42 237 28 260 28 c 0
 291 28 333 43 376 100 c 1
628 672 m 0
 628 632 552 511 428 511 c 0
 353 511 295 561 295 638 c 0
 295 665 298 690 317 690 c 0
 327 690 335 681 335 672 c 0
 335 665 332 661 332 647 c 0
 332 594 385 570 434 570 c 0
 474 570 564 590 592 674 c 0
 594 679 597 690 610 690 c 0
 620 690 628 682 628 672 c 0
EndSplineSet
EndChar

StartChar: Aogonek
Encoding: 260 260 196
Width: 866
GlyphClass: 2
Flags: MW
HStem: -204 66<641 661> 0 47<97 104 97 107.5 307 309 777 780.5> 192 47<357 555 357 560 328 555> 691 20G<599 625>
VStem: 73 260<18 32.5>
LayerCount: 2
Fore
SplineSet
805 29 m 0
 805 0 787 0 777 0 c 2
 683 2 l 1
 601 -44 607 -138 675 -138 c 0
 698 -138 704 -127 713 -119 c 0
 722 -113 735 -116 742 -122 c 0
 750 -129 751 -144 746 -150 c 0
 718 -180 683 -204 639 -204 c 0
 569 -204 534 -159 534 -114 c 0
 534 -70 571 -21 606 3 c 1
 493 0 l 2
 471 0 471 18 471 18 c 1
 471 47 488 47 510 47 c 0
 530 47 556 48 575 52 c 1
 560 192 l 1
 328 192 l 1
 247 57 l 1
 271 48 307 47 307 47 c 2
 315 47 333 47 333 29 c 0
 333 0 313 0 305 0 c 0
 268 0 228 3 190 3 c 0
 158 3 123 0 92 0 c 0
 73 0 73 18 73 18 c 1
 73 47 90 47 104 47 c 0
 176 48 187 66 198 84 c 2
 563 686 l 2
 578 711 588 711 610 711 c 0
 640 711 643 708 646 682 c 2
 712 66 l 2
 714 51 715 50 727 48 c 0
 735 47 751 47 760 47 c 2
 773 47 l 2
 788 47 805 47 805 29 c 0
555 239 m 1
 525 517 l 1
 357 239 l 1
 555 239 l 1
EndSplineSet
Position2: "'cpsp' Capital Spacing lookup 0 subtable" dx=7 dy=0 dh=14 dv=0
EndChar

StartChar: aogonek
Encoding: 261 261 197
Width: 591
GlyphClass: 2
Flags: MW
HStem: -204 66<453.5 471> -8 36<248.5 275.5 248.5 286.5 489 491> 416 36<351 377 280 381.5>
VStem: 96 107<92.5 126 70.5 219>
LayerCount: 2
Fore
SplineSet
556 -150 m 0
 528 -180 493 -204 449 -204 c 0
 379 -204 344 -159 344 -114 c 0
 344 -70 384 -20 425 8 c 1
 409 16 396 28 388 43 c 1
 364 24 317 -8 256 -8 c 0
 180 -8 96 33 96 152 c 0
 96 286 196 452 364 452 c 0
 390 452 429 447 461 414 c 1
 474 427 491 435 508 435 c 0
 536 435 553 416 553 393 c 0
 553 389 553 387 549 372 c 2
 482 102 l 2
 478 86 476 78 476 59 c 0
 476 36 483 28 495 28 c 0
 529 28 547 103 555 136 c 0
 562 161 563 162 587 162 c 0
 602 162 615 162 615 148 c 0
 615 144 602 88 576 46 c 0
 563 26 538 -8 491 -8 c 0
 487 -8 482 -9 478 -8 c 0
 406 -55 422 -138 485 -138 c 0
 508 -138 514 -127 523 -119 c 0
 532 -113 545 -116 552 -122 c 0
 560 -129 561 -144 556 -150 c 0
376 100 m 1
 377 108 377 111 379 118 c 2
 438 354 l 1
 427 394 399 416 364 416 c 0
 338 416 283 401 249 304 c 0
 238 276 203 153 203 99 c 0
 203 42 237 28 260 28 c 0
 291 28 333 43 376 100 c 1
EndSplineSet
EndChar

StartChar: Cacute
Encoding: 262 262 198
Width: 827
GlyphClass: 2
Flags: MW
HStem: -17 47<467 494.5> 656 47<610.5 642.5 483 693.5> 751 21G<596 599> 898 20G<771 796>
VStem: 163 135<191.5 224.5 191.5 351>
LayerCount: 2
Fore
SplineSet
849 446 m 2
 844 426 842 426 817 426 c 0
 797 426 786 426 786 441 c 0
 786 448 789 454 789 484 c 0
 789 578 743 656 644 656 c 0
 577 656 480 631 411 547 c 0
 323 439 298 247 298 202 c 0
 298 181 298 119 344 77 c 0
 388 36 451 30 483 30 c 0
 562 30 692 82 740 239 c 0
 743 248 752 248 767 248 c 0
 782 248 795 248 795 234 c 0
 795 225 773 136 688 68 c 0
 611 6 531 -17 458 -17 c 0
 310 -17 163 53 163 245 c 0
 163 457 336 703 630 703 c 0
 655 703 733 703 796 635 c 1
 882 703 l 1
 897 703 909 703 909 689 c 2
 909 689 909 685 905 670 c 2
 849 446 l 2
827 861 m 0
 821 831 794 820 779 815 c 2
 613 754 l 2
 607 752 602 751 596 751 c 0
 580 753 573 782 574 788 c 0
 575 795 583 801 589 805 c 2
 729 896 l 2
 749 909 762 918 780 918 c 0
 812 918 832 893 827 861 c 0
EndSplineSet
Position2: "'cpsp' Capital Spacing lookup 0 subtable" dx=7 dy=0 dh=14 dv=0
EndChar

StartChar: cacute
Encoding: 263 263 199
Width: 532
GlyphClass: 2
Flags: MW
HStem: -8 36<274.5 309.5 274.5 314> 416 36<387 407.5> 502 21G<377 388> 679 20G<535 558.5>
VStem: 107 109<119 135.5 87.5 225> 408 122<320.5 384.5>
LayerCount: 2
Fore
SplineSet
536 86 m 0
 536 74 497 35 443 14 c 0
 389 -6 327 -8 301 -8 c 0
 154 -8 107 78 107 160 c 0
 107 290 213 452 403 452 c 0
 486 452 530 409 530 360 c 0
 530 317 500 282 458 282 c 0
 416 282 408 313 408 328 c 0
 408 331 409 377 459 395 c 1
 440 415 413 416 402 416 c 0
 372 416 310 401 271 329 c 0
 244 277 216 155 216 116 c 0
 216 59 247 28 302 28 c 0
 317 28 418 28 492 111 c 0
 499 118 503 118 506 118 c 0
 516 118 536 94 536 86 c 0
593 651 m 0
 593 620 568 605 554 597 c 2
 401 508 l 2
 396 505 391 502 385 502 c 0
 369 502 357 529 357 535 c 0
 357 542 363 549 369 554 c 2
 491 668 l 2
 511 687 524 699 546 699 c 0
 571 699 593 679 593 651 c 0
EndSplineSet
EndChar

StartChar: Ccircumflex
Encoding: 264 264 200
Width: 827
GlyphClass: 2
Flags: MW
HStem: -17 47<467 494.5> 656 47<610.5 642.5 483 693.5> 741 21G<482 482 802 802> 885 20G<670 670>
VStem: 163 135<191.5 224.5 191.5 351>
LayerCount: 2
Fore
SplineSet
849 446 m 2
 844 426 842 426 817 426 c 0
 797 426 786 426 786 441 c 0
 786 448 789 454 789 484 c 0
 789 578 743 656 644 656 c 0
 577 656 480 631 411 547 c 0
 323 439 298 247 298 202 c 0
 298 181 298 119 344 77 c 0
 388 36 451 30 483 30 c 0
 562 30 692 82 740 239 c 0
 743 248 752 248 767 248 c 0
 782 248 795 248 795 234 c 0
 795 225 773 136 688 68 c 0
 611 6 531 -17 458 -17 c 0
 310 -17 163 53 163 245 c 0
 163 457 336 703 630 703 c 0
 655 703 733 703 796 635 c 1
 882 703 l 1
 897 703 909 703 909 689 c 2
 909 689 909 685 905 670 c 2
 849 446 l 2
821 766 m 1
 802 741 l 1
 651 797 l 1
 482 741 l 1
 472 766 l 1
 670 905 l 1
 821 766 l 1
EndSplineSet
Position2: "'cpsp' Capital Spacing lookup 0 subtable" dx=7 dy=0 dh=14 dv=0
EndChar

StartChar: ccircumflex
Encoding: 265 265 201
Width: 532
GlyphClass: 2
Flags: MW
HStem: -8 36<274.5 309.5 274.5 314> 416 36<387 407.5> 497 21G<262 262 577 577> 684 20G<454 454>
VStem: 107 109<119 135.5 87.5 225> 408 122<320.5 384.5>
LayerCount: 2
Fore
SplineSet
536 86 m 0
 536 74 497 35 443 14 c 0
 389 -6 327 -8 301 -8 c 0
 154 -8 107 78 107 160 c 0
 107 290 213 452 403 452 c 0
 486 452 530 409 530 360 c 0
 530 317 500 282 458 282 c 0
 416 282 408 313 408 328 c 0
 408 331 409 377 459 395 c 1
 440 415 413 416 402 416 c 0
 372 416 310 401 271 329 c 0
 244 277 216 155 216 116 c 0
 216 59 247 28 302 28 c 0
 317 28 418 28 492 111 c 0
 499 118 503 118 506 118 c 0
 516 118 536 94 536 86 c 0
600 519 m 1
 577 497 l 1
 436 596 l 1
 262 497 l 1
 247 519 l 1
 454 704 l 1
 600 519 l 1
EndSplineSet
EndChar

StartChar: Cdotaccent
Encoding: 266 266 202
Width: 827
GlyphClass: 2
Flags: MW
HStem: -17 47<467 494.5> 656 47<610.5 642.5 483 693.5> 758 147<654 673.5>
VStem: 163 135<191.5 224.5 191.5 351>
LayerCount: 2
Fore
SplineSet
849 446 m 2
 844 426 842 426 817 426 c 0
 797 426 786 426 786 441 c 0
 786 448 789 454 789 484 c 0
 789 578 743 656 644 656 c 0
 577 656 480 631 411 547 c 0
 323 439 298 247 298 202 c 0
 298 181 298 119 344 77 c 0
 388 36 451 30 483 30 c 0
 562 30 692 82 740 239 c 0
 743 248 752 248 767 248 c 0
 782 248 795 248 795 234 c 0
 795 225 773 136 688 68 c 0
 611 6 531 -17 458 -17 c 0
 310 -17 163 53 163 245 c 0
 163 457 336 703 630 703 c 0
 655 703 733 703 796 635 c 1
 882 703 l 1
 897 703 909 703 909 689 c 2
 909 689 909 685 905 670 c 2
 849 446 l 2
739 845 m 0
 739 802 697 758 650 758 c 0
 612 758 588 786 588 818 c 0
 588 862 631 905 677 905 c 0
 718 905 739 873 739 845 c 0
EndSplineSet
Position2: "'cpsp' Capital Spacing lookup 0 subtable" dx=7 dy=0 dh=14 dv=0
EndChar

StartChar: cdotaccent
Encoding: 267 267 203
Width: 532
GlyphClass: 2
Flags: MW
HStem: -8 36<274.5 309.5 274.5 314> 416 36<387 407.5> 527 147<434 453.5>
VStem: 107 109<119 135.5 87.5 225> 408 122<320.5 384.5>
LayerCount: 2
Fore
SplineSet
536 86 m 0
 536 74 497 35 443 14 c 0
 389 -6 327 -8 301 -8 c 0
 154 -8 107 78 107 160 c 0
 107 290 213 452 403 452 c 0
 486 452 530 409 530 360 c 0
 530 317 500 282 458 282 c 0
 416 282 408 313 408 328 c 0
 408 331 409 377 459 395 c 1
 440 415 413 416 402 416 c 0
 372 416 310 401 271 329 c 0
 244 277 216 155 216 116 c 0
 216 59 247 28 302 28 c 0
 317 28 418 28 492 111 c 0
 499 118 503 118 506 118 c 0
 516 118 536 94 536 86 c 0
519 614 m 0
 519 571 477 527 430 527 c 0
 392 527 368 555 368 587 c 0
 368 631 411 674 457 674 c 0
 498 674 519 642 519 614 c 0
EndSplineSet
EndChar

StartChar: Ccaron
Encoding: 268 268 204
Width: 827
GlyphClass: 2
Flags: MW
HStem: -17 47<467 494.5> 656 47<610.5 642.5 483 693.5> 741 21G<653 653> 885 20G<521 521 841 841>
VStem: 163 135<191.5 224.5 191.5 351>
LayerCount: 2
Fore
SplineSet
849 446 m 2
 844 426 842 426 817 426 c 0
 797 426 786 426 786 441 c 0
 786 448 789 454 789 484 c 0
 789 578 743 656 644 656 c 0
 577 656 480 631 411 547 c 0
 323 439 298 247 298 202 c 0
 298 181 298 119 344 77 c 0
 388 36 451 30 483 30 c 0
 562 30 692 82 740 239 c 0
 743 248 752 248 767 248 c 0
 782 248 795 248 795 234 c 0
 795 225 773 136 688 68 c 0
 611 6 531 -17 458 -17 c 0
 310 -17 163 53 163 245 c 0
 163 457 336 703 630 703 c 0
 655 703 733 703 796 635 c 1
 882 703 l 1
 897 703 909 703 909 689 c 2
 909 689 909 685 905 670 c 2
 849 446 l 2
850 880 m 1
 653 741 l 1
 501 880 l 1
 521 905 l 1
 672 849 l 1
 841 905 l 1
 850 880 l 1
EndSplineSet
Position2: "'cpsp' Capital Spacing lookup 0 subtable" dx=7 dy=0 dh=14 dv=0
EndChar

StartChar: ccaron
Encoding: 269 269 205
Width: 532
GlyphClass: 2
Flags: MW
HStem: -8 36<274.5 309.5 274.5 314> 416 36<387 407.5> 497 21G<433 433> 684 20G<310 310 625 625>
VStem: 107 109<119 135.5 87.5 225> 408 122<320.5 384.5>
LayerCount: 2
Fore
SplineSet
536 86 m 0
 536 74 497 35 443 14 c 0
 389 -6 327 -8 301 -8 c 0
 154 -8 107 78 107 160 c 0
 107 290 213 452 403 452 c 0
 486 452 530 409 530 360 c 0
 530 317 500 282 458 282 c 0
 416 282 408 313 408 328 c 0
 408 331 409 377 459 395 c 1
 440 415 413 416 402 416 c 0
 372 416 310 401 271 329 c 0
 244 277 216 155 216 116 c 0
 216 59 247 28 302 28 c 0
 317 28 418 28 492 111 c 0
 499 118 503 118 506 118 c 0
 516 118 536 94 536 86 c 0
640 682 m 1
 433 497 l 1
 287 682 l 1
 310 704 l 1
 451 605 l 1
 625 704 l 1
 640 682 l 1
EndSplineSet
EndChar

StartChar: Dcaron
Encoding: 270 270 206
Width: 876
GlyphClass: 2
Flags: MW
HStem: 0 47<88.5 121 99 121 121 127 334 438 438 464> 639 47<248.5 635 259 278 474.5 490 490 585> 741 21G<576 576> 885 20G<444 444 764 764>
VStem: 757 128<456 534.5 345 549>
LayerCount: 2
Fore
SplineSet
885 446 m 0
 885 244 733 0 464 0 c 2
 96 0 l 2
 81 0 64 0 64 18 c 0
 64 47 82 47 99 47 c 2
 121 47 l 2
 133 47 149 48 161 49 c 0
 179 50 180 51 184 65 c 2
 327 637 l 1
 315 638 289 639 278 639 c 2
 256 639 l 2
 241 639 224 639 224 657 c 0
 224 686 242 686 259 686 c 2
 635 686 l 2
 759 686 885 623 885 446 c 0
757 483 m 0
 757 615 656 639 585 639 c 2
 490 639 l 2
 459 639 458 638 454 623 c 2
 311 48 l 1
 318 47 325 47 334 47 c 2
 438 47 l 2
 538 47 621 91 673 174 c 0
 719 249 757 429 757 483 c 0
773 880 m 1
 576 741 l 1
 424 880 l 1
 444 905 l 1
 595 849 l 1
 764 905 l 1
 773 880 l 1
EndSplineSet
Position2: "'cpsp' Capital Spacing lookup 0 subtable" dx=7 dy=0 dh=14 dv=0
EndChar

